<?xml version="1.0" encoding="UTF-8"?><svg id="Calque_1" xmlns="http://www.w3.org/2000/svg" viewBox="0 0 73 55"><defs><style>.cls-1{fill:#f400ff;}.cls-2{opacity:.5;}.cls-3{fill:#e4bfff;}</style></defs><path class="cls-3" d="m59.02,10.94c2.78,0,5.04,2.26,5.04,5.04v26.05c0,2.78-2.26,5.04-5.04,5.04H12.98c-2.78,0-5.04-2.26-5.04-5.04V15.98c0-2.78,2.26-5.04,5.04-5.04h46.05m0-1.94H12.98c-3.85,0-6.98,3.12-6.98,6.98v26.05c0,3.85,3.12,6.98,6.98,6.98h46.05c3.85,0,6.98-3.12,6.98-6.98V15.98c0-3.85-3.12-6.98-6.98-6.98h0Z"/><g class="cls-2"><path class="cls-1" d="m12.68,19.26c15.12-.07,30.24-.14,45.36-.21,1.29,0,1.3-2.02,0-2.01-15.12.07-30.24.14-45.36.21-1.29,0-1.3,2.02,0,2.01h0Z"/></g><g class="cls-2"><path class="cls-1" d="m13.12,41.05c15.12-.07,30.24-.14,45.36-.21,1.29,0,1.3-2.02,0-2.01-15.12.07-30.24.14-45.36.21-1.29,0-1.3,2.02,0,2.01h0Z"/></g><g class="cls-2"><path class="cls-1" d="m13.12,30.05c15.12-.07,30.24-.14,45.36-.21,1.29,0,1.3-2.02,0-2.01-15.12.07-30.24.14-45.36.21-1.29,0-1.3,2.02,0,2.01h0Z"/></g></svg>