<?xml version="1.0" encoding="utf-8"?>
<!-- Generator: Adobe Illustrator 27.2.0, SVG Export Plug-In . SVG Version: 6.00 Build 0)  -->
<svg version="1.1" xmlns="http://www.w3.org/2000/svg" xmlns:xlink="http://www.w3.org/1999/xlink" x="0px" y="0px"
	 viewBox="0 0 2972.2 2594.4" style="enable-background:new 0 0 2972.2 2594.4;" xml:space="preserve">
<style type="text/css">
	.st0{fill:none;stroke:#DF8790;stroke-width:120;stroke-linecap:round;stroke-linejoin:round;stroke-miterlimit:10;}
</style>
<g id="Background">
</g>
<g id="Layer_1">
	<g>
		<g>
			<path class="st0" d="M2552.5,1323.2l44-526.6c6.4-76.8,74-133.6,150.8-126.8l0,0c76.1,6.8,132.4,73.8,126.1,149.9l-29.1,349
				l-35.7,415.4c-8.7,100.7-58,193.4-136.7,256.8L2333.8,2113c-69.6,56.1-110.1,140.7-110.1,230.1V2490h-539.5v-417.8
				c0-134.7,64-261.4,172.4-341.4l549.2-404.8c56.9-42,137.2-29.3,178.5,28.1l0,0c40.5,56.5,28.1,135-27.8,176.2L2210,1785.8"/>
			<path class="st0" d="M436.6,1323.2l-44-526.6c-6.4-76.8-74-133.6-150.8-126.8l0,0c-76.1,6.8-132.4,73.8-126.1,149.9l29.1,349
				l35.7,415.4c8.7,100.7,58,193.4,136.7,256.8L655.3,2113c69.6,56.1,110.1,140.7,110.1,230.1V2490h539.5v-417.8
				c0-134.7-64-261.4-172.4-341.4L583.3,1326c-56.9-42-137.2-29.3-178.5,28.1l0,0c-40.5,56.5-28.1,135,27.8,176.2l346.5,255.5"/>
		</g>
		<path class="st0" d="M1494.6,1429c137.9-123.3,753.9-536.7,753.9-939.5c3.1-270.7-214.5-394.3-347.3-394.3
			s-260.5,65.4-406.6,245.2C1348.5,160.5,1220.8,95.1,1088,95.1c-132.8,0-350.4,123.6-347.3,394.3
			C740.7,892.3,1356.7,1305.6,1494.6,1429z"/>
	</g>
</g>
</svg>
