<?xml version="1.0" encoding="utf-8"?>
<!-- Generator: Adobe Illustrator 27.0.1, SVG Export Plug-In . SVG Version: 6.00 Build 0)  -->
<svg version="1.1" id="Calque_1" xmlns="http://www.w3.org/2000/svg" xmlns:xlink="http://www.w3.org/1999/xlink" x="0px" y="0px"
	 viewBox="0 0 223 224" style="enable-background:new 0 0 223 224;" xml:space="preserve">
<style type="text/css">
	.st0{fill:#EC1655;}
	.st1{fill:#0CBAC6;}
</style>
<g>
	<g>
		<g>
			<path d="M100.36,148.77c9.18,0.56,16.84-6.93,16.84-15.25c0-24.88,0-49.77,0-74.65c0-1.68,0-1.68,1.69-1.68
				c12.63,0,12.1-0.09,12.63,0.21c0.72,0.74,1.02,9.62,10.95,16.77c2.68,1.93,6.22,6.6,14.55,8.72c0.34,0.09,0.74,0.08,0.99,0.4
				c0.02,0.02,0.04,0.04,0.06,0.05c0.23,0.24,0.19,0.54,0.19,0.83c0,4.39,0.01,8.77,0,13.16c0,1-0.14,1.05-1.16,1.06
				c-15.16,0.02-25.03-8.16-25.5-7.95c-0.41,0.18,0.04,0.01-0.18,37.91c-0.23,39.48-58.83,50.47-65.45,10.51
				c-3.56-21.48,12.83-39.54,32.18-40.88c1.01-0.07,1.49-0.31,2.36,0.09c0.17,0.29,0.11,0.13,0.11,14.15c0,0.66-0.01,1.14-0.69,0.95
				c-17.07-4.79-28.77,17.83-13.17,28.49C90.27,144.05,92.69,148.3,100.36,148.77z"/>
			<path class="st0" d="M76.41,158.11c0.43-0.12,4.95,3.6,13.59,4.98c20.36,3.23,40.05-11.58,41.15-32.88
				c0.1-1.85,0.07-1.74,0.07-40.23c0.59-0.16,4.95,4.03,14.43,6.6c6.17,1.67,10.37,1.54,11.87,1.65c0.68,0.05,0.53,0.12,0.53-2.2
				c0-12.17-0.01-11.68,0.02-12.69c1.06,0.12,2.11,0.34,3.18,0.42c2.17,0.16,2.48-0.08,2.41,0.52l0,17.69
				c0,0.87,0.03,0.85-0.55,0.85c-10.72-0.03-18.56-3.49-26.28-8.4l0,38.54c-0.03,30.58-36.86,46.61-59.95,25.64
				C76.7,158.45,76.56,158.28,76.41,158.11z"/>
			<path class="st1" d="M131.45,57.34c-1.01,0.05-0.06,0.04-13.07,0.04c-0.95,0-0.95,0-0.95,0.91c0,24.75,0,49.51,0.01,74.26
				c0.01,15.8-18.74,22.05-28.86,10.59c-0.07-0.08-0.12-0.19-0.18-0.28c11.71,4.59,21.44-2.13,23.22-11.91
				c0.34-1.84,0.18-0.3,0.19-77.16c0-1.16-0.16-1.01,1-1.01c5.8-0.01,11.59,0,17.39,0c1.03,0,1.01-0.06,1.01,0.6
				C131.2,54.71,131.18,56.04,131.45,57.34z"/>
			<path class="st1" d="M100.43,98.02c-25.76,0.85-41.3,26.24-32.19,48.19c2.88,6.94,6.79,10.41,7.29,11.13
				c-0.7-0.3-1.26-0.8-1.85-1.26C45.4,133.96,64.13,89.5,99.97,93.7c0.32,0.04,0.5,0.1,0.49,0.47
				C100.44,95.45,100.44,96.73,100.43,98.02z"/>
			<path class="st0" d="M88.09,142.59c-3.83-1.7-8.01-6.29-8.7-12.37c-1.28-11.25,9.26-20.23,20.5-17.25
				c0.17,0.05,0.34,0.12,0.53,0.07c0.14-0.34-0.02-12.79,0.09-14.97c1.76-0.12,3.51,0.04,5.25,0.23c0.27,0.03,0.35,0.16,0.34,0.39
				c-0.07,2.19,0.12,18.64-0.09,18.97c-0.8-0.15-1.58-0.38-2.39-0.5C90.44,115.35,79.39,128.83,88.09,142.59z"/>
			<path class="st0" d="M143.44,75c-6.64-3.87-11.86-12.8-11.93-17.61c1.64-0.09,3.28-0.01,4.92-0.04c0.29-0.01,0.42,0.11,0.39,0.4
				C135.98,66.64,143.42,74.78,143.44,75z"/>
			<path class="st1" d="M158,83.29c-6.74-1.42-12.37-5.68-13.83-7.67c0.44-0.04,3.42,2.34,9.51,3.34c4.36,0.71,4.34-0.13,4.34,0.84
				C158.03,80.96,158.01,82.12,158,83.29z"/>
		</g>
	</g>
</g>
<g>
	<path d="M110.59,197.98c-49.61,0-89.97-39.83-89.97-88.78s40.36-88.78,89.97-88.78c49.61,0,89.97,39.83,89.97,88.78
		S160.19,197.98,110.59,197.98z M110.59,29.06c-44.79,0-81.23,35.96-81.23,80.15s36.44,80.15,81.23,80.15
		c44.79,0,81.23-35.96,81.23-80.15S155.37,29.06,110.59,29.06z"/>
</g>
</svg>
