<?xml version="1.0" encoding="utf-8"?>
<!-- Generator: Adobe Illustrator 27.0.1, SVG Export Plug-In . SVG Version: 6.00 Build 0)  -->
<svg version="1.1" id="Calque_1" xmlns="http://www.w3.org/2000/svg" xmlns:xlink="http://www.w3.org/1999/xlink" x="0px" y="0px"
	 viewBox="0 0 223 217" style="enable-background:new 0 0 223 217;" xml:space="preserve">
<style type="text/css">
	.st0{fill:#1677F0;}
</style>
<g>
	<path class="st0" d="M140.4,136.53l3.74-24.04h-23.38v-15.6c0-6.58,3.27-12.99,13.74-12.99h10.63V63.43c0,0-9.65-1.62-18.87-1.62
		c-19.25,0-31.84,11.52-31.84,32.36v18.33h-21.4v24.04h21.4v58.13c8.71,1.35,17.64,1.35,26.34,0v-58.13H140.4z"/>
	<g>
		<path class="st0" d="M112.59,199.17c-49.15,0-89.14-39.46-89.14-87.96s39.99-87.96,89.14-87.96s89.14,39.46,89.14,87.96
			S161.74,199.17,112.59,199.17z M112.59,30.24c-45.24,0-82.05,36.32-82.05,80.96c0,44.64,36.81,80.96,82.05,80.96
			s82.05-36.32,82.05-80.96C194.64,66.56,157.83,30.24,112.59,30.24z"/>
	</g>
</g>
</svg>
