<?xml version="1.0" encoding="UTF-8"?><svg id="a" xmlns="http://www.w3.org/2000/svg" viewBox="0 0 500 500"><defs><style>.b{fill:#fff;}.c{fill:#63cbd3;}.d{fill:#010101;}.e{fill:#ee1e53;}</style></defs><rect class="d" width="500" height="500" rx="47.51" ry="47.51"/><g><circle class="b" cx="160.84" cy="401.13" r="8.13"/><rect class="b" x="152.71" y="414.28" width="16.26" height="45.74"/><path class="b" d="m150.13,393.72c.08-.24-.1-.5-.36-.5h-50.19v13.97h16.4v52.84h16.26v-52.84h13.23c.16,0,.31-.11.36-.26l4.29-13.21Z"/><path class="b" d="m283.58,393.72c.08-.24-.1-.5-.36-.5h-50.19v13.97h16.4v52.84h16.26v-52.84h13.23c.16,0,.31-.11.36-.26l4.29-13.21Z"/><path class="b" d="m206.69,428.17l19.07-18.64c.24-.24.07-.65-.26-.65h-18.21l-15.26,15.45v-31.11h-16.26v66.81h16.26v-17.03l3.89-4.3c.16-.18.45-.16.59.04l14.91,21.14c.07.1.19.16.31.16h16.92c.31,0,.49-.35.31-.6l-22.26-31.25Z"/><path class="b" d="m377.96,428.17l19.07-18.64c.24-.24.07-.65-.26-.65h-18.21l-15.26,15.45v-31.11h-16.26v66.81h16.26v-17.03l3.89-4.3c.16-.18.45-.16.59.04l14.91,21.14c.07.1.19.16.31.16h16.92c.31,0,.49-.35.31-.6l-22.26-31.25Z"/><path class="e" d="m310.01,405.34c15.55,0,28.16,12.24,28.16,27.34s-12.61,27.34-28.16,27.34c17.92,0,32.44-12.24,32.44-27.34s-14.53-27.34-32.44-27.34Z"/><path class="c" d="m281.85,432.68c0-15.1,12.61-27.34,28.16-27.34-17.92,0-32.44,12.24-32.44,27.34s14.52,27.34,32.44,27.34c-15.55,0-28.16-12.24-28.16-27.34Z"/><path class="b" d="m310.01,405.34c-15.55,0-28.16,12.24-28.16,27.34s12.61,27.34,28.16,27.34,28.16-12.24,28.16-27.34-12.61-27.34-28.16-27.34Zm0,41.22c-7.47,0-13.52-6.05-13.52-13.52s6.05-13.52,13.52-13.52,13.52,6.05,13.52,13.52-6.05,13.52-13.52,13.52Z"/></g><g><path class="e" d="m217.58,172.85c13.14-.06,13.58.67,16.02,1.33v56.56c-4.35-1.31-8.97-2.02-13.75-2.02-26.14,0-47.34,21.11-47.34,47.15s21.19,47.14,47.34,47.14c.58,0,1.16-.01,1.74-.03,25.16-.9,44.82-22.13,44.82-47.3V53.42h56.16c0,4.36-.74,67.99,78.19,78.63v55.28s-39.61,2.81-78.19-24.83v109.67c0,83.06-68.43,106.92-105.68,106.92s-97.84-25.33-101.39-106.32c-1.96-44.6,39.46-98.29,102.08-99.91Z"/><path class="b" d="m200.73,158.66c13.14-.06,13.58.67,16.02,1.33v56.56c-4.35-1.31-8.97-2.02-13.75-2.02-26.14,0-47.34,21.11-47.34,47.15s21.19,47.14,47.34,47.14c.58,0,1.16-.01,1.74-.03,25.16-.9,44.82-22.13,44.82-47.3V39.23h56.16c0,4.36-.74,67.99,78.19,78.63v55.28s-39.61,2.81-78.19-24.83v109.67c0,83.06-68.43,106.92-105.68,106.92s-97.84-25.33-101.39-106.32c-1.96-44.6,39.46-98.29,102.08-99.91Z"/><g><path class="c" d="m383.91,128.7v-10.84c-18.08-2.44-31.97-7.66-42.65-14.31,9.08,10.34,22.59,19.72,42.65,25.14Z"/><path class="c" d="m203,308.82c-7.66,0-14.89-1.82-21.29-5.04,8.62,11.66,22.49,19.23,38.14,19.23.58,0,1.16-.01,1.74-.03,25.16-.9,44.82-22.13,44.82-47.3V53.42h40.72c-1.46-7.56-1.4-13.02-1.4-14.19h-56.16v222.26c0,25.17-19.67,46.4-44.82,47.3-.58.02-1.15.03-1.74.03Z"/><path class="c" d="m115.5,272.76c-1.95-44.4,39.1-97.8,101.24-99.88v-12.89c-2.44-.67-2.88-1.39-16.02-1.33-62.61,1.63-104.03,55.31-102.08,99.91,2,45.74,21.64,73.73,45.38,89.43-15.62-16.64-27.03-40.95-28.53-75.24Z"/></g></g></svg>