<?xml version="1.0" standalone="no"?>
<!DOCTYPE svg PUBLIC "-//W3C//DTD SVG 1.1//EN" "http://www.w3.org/Graphics/SVG/1.1/DTD/svg11.dtd" >
<svg xmlns="http://www.w3.org/2000/svg" xmlns:xlink="http://www.w3.org/1999/xlink" version="1.1">
<metadata>
Created by FontForge 20201107 at Wed Mar 24 21:52:54 2021
 By Jimmy Wärting
Copyright 2011 The Alex Brush Project Authors (https://github.com/googlefonts/alex-brush)
</metadata>
<defs>
<font id="AlexBrush-Regular" horiz-adv-x="0" >
  <font-face 
    font-family="Alex Brush"
    font-weight="400"
    font-stretch="normal"
    units-per-em="1000"
    panose-1="0 0 0 0 0 0 0 0 0 0"
    ascent="800"
    descent="-200"
    x-height="297"
    cap-height="703"
    bbox="-501 -425 1610.25 899.78"
    underline-thickness="20"
    underline-position="-153"
    unicode-range="U+0020-FB02"
  />
<missing-glyph horiz-adv-x="499" 
d="M62 0v750h375v-750h-375zM124 63h250v625h-250v-625z" />
    <glyph glyph-name="fi" unicode="fi" horiz-adv-x="468" 
d="M-170 -205q-30 0 -51 25t-22 54q3 12 9 12t7 -15.5t16 -30.5t30 -15q85 0 155 105q19 28 46.5 82t62.5 134l54 130q-100 1 -100 24q0 10 11 18q8 6 15 6v0v0q1 0 24.5 -0.5t69.5 -1.5q98 218 180 218q32 0 63 -30q8 -8 8 -21q0 -31 -18 -31q-5 0 -10 8q-4 7 -13 11.5
t-17 4.5q-11 0 -19 -1.5t-22 -12.5q-14 -10 -26 -25.5t-19 -26.5t-19 -34.5t-31 -59.5h12q109 0 145 3q4 -1 4 -4q0 -8 -71 -22q-28 -4 -55 -9t-55 -10q-13 -28 -32 -66.5t-43 -85.5q-47 -88 -77 -140t-42 -69q-87 -124 -170 -124zM463 344q-17 0 -29.5 11t-12.5 25
q0 28 38 28q14 0 28 -9.5t14 -23.5q0 -12 -13 -21.5t-25 -9.5zM278 -11q-22 0 -36.5 14.5t-14.5 51.5q0 5 0.5 9.5t1.5 8.5q9 54 60 136q56 91 92 92q9 0 22 -7.5t13 -16.5l-76 -98q-75 -97 -75 -138q0 -32 25 -32q17 0 40.5 13t44.5 28t28 21q27 23 44.5 39.5t32.5 35.5
q10 13 17.5 18t9.5 5q4 0 4 -6q0 -5 -11.5 -20t-31.5 -35q-24 -24 -53 -52t-63 -47.5t-74 -19.5z" />
    <glyph glyph-name="fl" unicode="fl" horiz-adv-x="501" 
d="M-170 -205q-30 0 -51 25t-22 54q3 12 9 12t7 -15.5t16 -30.5t30 -15q85 0 155 105q19 28 46.5 82t62.5 134l54 130q-100 1 -100 24q0 10 11 18q8 6 15 6v0v0q1 0 24.5 -0.5t69.5 -1.5q98 218 180 218q32 0 63 -30q8 -8 8 -21q0 -31 -18 -31q-5 0 -10 8q-4 7 -13 11.5
t-17 4.5q-11 0 -19 -1.5t-22 -12.5q-14 -10 -26 -25.5t-19 -26.5t-19 -34.5t-31 -59.5h12q47 0 80 0.5t53 1.5q108 174 156 174q10 0 20.5 -7.5t11.5 -16.5l-70 -94q-41 -55 -74 -101.5t-57 -83.5q-12 -19 -27 -43t-26.5 -49.5t-11.5 -51.5q0 -12 7 -21.5t25 -9.5
q32 0 84 34.5t103 95.5q5 6 11 11t10 5q5 0 5 -6q0 -3 -6.5 -11.5t-10.5 -13.5l-24 -27q-20 -22 -47.5 -48t-58 -44t-61.5 -18q-29 0 -54 14.5t-25 48.5q0 19 5 39t12 37q13 30 36 73t57 98v1q-8 -2 -19.5 -5t-25.5 -5q-28 -4 -55 -9t-55 -10q-13 -28 -32 -66.5t-43 -85.5
q-47 -88 -77 -140t-42 -69q-87 -124 -170 -124z" />
    <glyph glyph-name=".notdef" horiz-adv-x="499" 
d="M62 0v750h375v-750h-375zM124 63h250v625h-250v-625z" />
    <glyph glyph-name="CR" horiz-adv-x="198" 
 />
    <glyph glyph-name="space" unicode=" " horiz-adv-x="198" 
 />
    <glyph glyph-name="exclam" unicode="!" horiz-adv-x="259" 
d="M139 117q-7 0 -4 19q12 69 93 190q81 122 110 122q12 0 24 -4q17 -5 17 -13q0 -3 -4 -7q-42 -43 -123 -150q-40 -53 -63 -86.5t-29 -47.5q-11 -23 -21 -23zM119 2q-17 0 -29.5 11t-12.5 25q0 28 39 28q14 0 27.5 -9.5t13.5 -23.5q0 -12 -13 -21.5t-25 -9.5z" />
    <glyph glyph-name="quotedbl" unicode="&#x22;" horiz-adv-x="206" 
d="M21 329q-4 1 -4 3l23 26q24 26 21 47q-1 11 -14 19.5t-13 17.5q0 30 29 30q14 0 28 -9.5t14 -24.5q0 -42 -36 -80q-32 -33 -48 -29zM123 329q-4 1 -4 3t22 27t21 46q-1 11 -14 19.5t-13 17.5q0 30 30 30q14 0 27.5 -9.5t13.5 -24.5q0 -42 -35 -80q-32 -33 -48 -29z" />
    <glyph glyph-name="numbersign" unicode="#" horiz-adv-x="791" 
d="M147 38q-7 0 -10 6t-3 14q0 9 2 18t4 16q13 29 25 59t24 61l-105 -1q-94 0 -94 26q0 17 51 20l166 1q26 68 63 174l-98 -1q-94 -1 -94 26q0 15 50 20q28 0 67.5 -0.5t90.5 -1.5l46 130q15 41 24 44h1q6 0 8 -11q1 -2 1 -6.5v-9.5q-2 -59 -16 -98l-18 -49
q59 -1 106.5 -1.5t84.5 -0.5q14 35 27.5 68t27.5 64q18 41 27 42q4 1 7 -6.5t3 -19.5q-3 -55 -19 -97l-19 -50q40 1 77.5 2t72.5 2q51 2 51 -8q0 -7 -23 -15q-56 -22 -99 -22h-94l-66 -175l144 1q50 0 50 -11q0 -8 -22 -15q-54 -19 -99 -19l-90 -1l-35 -96q-28 -79 -52 -79
q-12 0 -12 19q0 8 2 17.5t3 17.5q11 26 22 56.5t23 64.5l-197 -1l-35 -95q-28 -79 -51 -79zM250 258h196q10 29 25.5 73t36.5 102l-192 -1z" />
    <glyph glyph-name="dollar" unicode="$" horiz-adv-x="537" 
d="M50 3q-15 0 -15 25q0 34 19 87q5 14 19 39t36 59q-36 9 -58 26q-19 15 -31 37t-12 44q0 25 15.5 46t39.5 21q6 0 6 -2q0 -3 -12 -11l-17 -12q-11 -11 -11 -31q0 -37 28 -66q26 -28 61 -38q26 40 59.5 87t73.5 102q-67 18 -67 67q0 36 45 72q69 54 172 58q97 121 109 121
q10 0 17 -7q4 -4 4 -10q0 -7 -8 -17q-33 -37 -75 -90q83 -12 83 -65q0 -37 -39 -52q-22 -9 -37 -9q-11 0 -16 4q-1 1 -1 4q0 5 15 6q5 0 12.5 1t15.5 3q23 11 23 34q0 47 -71 56q-30 -37 -60 -75t-60 -77q36 -5 68.5 -13t52.5 -23.5t20 -41.5q0 -34 -34 -71
q-43 -47 -103.5 -66t-131.5 -19q-11 0 -21.5 0.5t-20.5 1.5q-31 -47 -51 -81.5t-28 -55.5q-6 -16 -6 -29q0 -18 11 -22q4 -3 -1 -8q-7 -9 -18 -9zM275 449q29 38 56.5 74t53.5 70q-86 -8 -132 -49q-30 -28 -30 -50q0 -29 52 -45zM184 220q43 0 85 10.5t76.5 32t53.5 54.5
q11 19 11 32q0 18 -17.5 29t-45.5 18t-59 12q-40 -53 -73.5 -99.5t-61.5 -87.5q8 -1 15.5 -1h15.5z" />
    <glyph glyph-name="percent" unicode="%" horiz-adv-x="701" 
d="M133 -115q-17 0 -17 29q0 37 22 97q25 70 203 314q82 113 148.5 198t116.5 142q-49 -24 -120 -45q-38 -11 -68.5 -16.5t-52.5 -6.5q1 -3 1 -9q0 -35 -67 -117q-79 -97 -135 -97h-16q-26 0 -41 27q-12 20 -12 42q0 60 87 168q88 109 142 109q51 0 51 -54q0 -8 -1.5 -17
t-3.5 -19q2 -2 9 -2q10 0 32 3q101 12 234 74q4 2 5 2q11 0 19 -8q5 -5 5 -11q0 -8 -9 -19q-68 -79 -142 -171.5t-154 -199.5q-188 -253 -220 -337q-6 -18 -6 -32q0 -19 11 -25q5 -1 0 -9q-7 -10 -21 -10zM166 404q43 0 110 79q65 77 65 111q-16 9 -40 46q-34 0 -98 -82
q-61 -79 -61 -121q0 -33 24 -33zM348 -82q-25 0 -39 23.5t-14 45.5q0 60 87 168q88 109 142 109q51 0 51 -54q0 -8 -1.5 -17t-3.5 -19q1 -2 9.5 -3t8.5 -8q0 -13 -23 -22q1 -3 1 -9q0 -35 -67 -117q-79 -97 -135 -97h-16zM366 -52q43 0 110 79q65 77 65 111q-16 9 -40 46
q-34 0 -98 -82q-61 -79 -61 -121q0 -33 24 -33z" />
    <glyph glyph-name="ampersand" unicode="&#x26;" horiz-adv-x="753" 
d="M374 -134q-54 0 -96.5 21t-67.5 59t-25 89v11.5t1 11.5q-48 5 -87.5 20t-62.5 41.5t-23 65.5q0 36 22 68.5t55.5 61t70.5 49.5q69 42 135 63q-13 16 -20.5 37.5t-7.5 41.5q0 36 26.5 64.5t68.5 48.5t89 31t87 11q106 0 106 -65q0 -30 -23 -52t-51 -22q-27 0 -27 14
q0 10 13 10q4 0 10 -2q2 -1 7 -1q13 0 25 15q16 19 16 36q0 27 -31 39q-20 7 -51 7q-40 0 -79.5 -13.5t-72 -37t-52.5 -53.5t-20 -64q0 -24 12 -38q38 11 67 11q58 0 58 -23q0 -13 -17 -22.5t-37 -9.5q-50 0 -85 26q-28 -8 -59 -25t-65 -42q-46 -34 -80 -75.5t-34 -88.5
q0 -89 121 -99q11 71 47.5 128t96.5 94q34 21 77.5 33.5t88 20t81.5 13.5q49 8 79 18t45 21q11 8 16.5 18t5.5 18q0 6 -2 11.5t5 5.5t11 -9t4 -17q0 -20 -20 -43q-22 -22 -53 -33t-65 -17t-67 -14q19 -18 19 -54q0 -74 -84 -142q-58 -46 -123.5 -63.5t-140.5 -17.5
q-1 -6 -1.5 -12.5t-0.5 -12.5q0 -67 45.5 -109t119.5 -42q25 0 43 16.5t18 37.5q0 7 -3 14q-1 2 -1 5q0 6 8 6q11 0 11 -26q0 -27 -23 -47.5t-53 -20.5zM387 406q25 0 29 12q1 10 -29 10q-24 0 -54 -6q25 -16 54 -16zM214 85q65 0 133.5 21t115.5 64q63 57 63 117
q0 44 -38 44q-11 0 -49 -9q-193 -72 -225 -237z" />
    <glyph glyph-name="quotesingle" unicode="'" horiz-adv-x="130" 
d="M76 269q-3 2 -3 4q0 4 28 39q29 37 26 57q-1 11 -14 19.5t-13 17.5q0 30 29 30q14 0 28 -9.5t14 -23.5q0 -43 -41 -93q-38 -45 -54 -41z" />
    <glyph glyph-name="parenleft" unicode="(" horiz-adv-x="375" 
d="M191 -34q-64 6 -107 40t-64.5 86.5t-21.5 114.5q0 84 38 169q33 73 96 139.5t143.5 119t168 85.5t171.5 40q20 -3 20 -12q0 -10 -25 -11q-106 -10 -201 -61t-171 -129.5t-126 -173.5q-28 -55 -44 -109.5t-16 -101.5q0 -70 36 -117.5t113 -53.5q23 -2 23 -11
q0 -17 -33 -14z" />
    <glyph glyph-name="parenright" unicode=")" horiz-adv-x="651" 
d="M30 -35q-21 3 -21 12q0 10 25 11q105 10 200 61t172 129.5t127 172.5q60 114 60 210q0 74 -38 120.5t-112 52.5q-22 1 -22 11q0 17 32 14q58 -5 102 -38.5t69 -85.5t25 -115q0 -80 -41 -171q-33 -73 -96 -139t-143.5 -119t-168 -86t-170.5 -40z" />
    <glyph glyph-name="asterisk" unicode="*" horiz-adv-x="352" 
d="M154 218q-6 0 -8 12q-1 2 -1 5.5v7.5l14 76l-52 -39q-30 -21 -40 -14q-2 2 -2 5q0 7 12 19l66 48h-63q-37 0 -40 11q-3 10 22 14l89 4q-7 11 -16.5 24.5t-20.5 29.5q-18 21 -18 33q0 7 7 7t20 -12l51 -64l18 74q3 17 12 33q8 5 9 -12q3 -24 -11 -99l58 40q26 19 31 17
q8 -3 -1 -16q-7 -10 -24.5 -24.5t-43.5 -33.5h79q19 0 22 -4q5 -4 -3 -9q-15 -10 -47 -12q-9 -1 -23 -1t-34 -1l46 -62q20 -26 19 -30q-3 -8 -16 1q-10 7 -28.5 25t-44.5 46l-18 -63q-7 -18 -7 -21q-6 -15 -13 -15z" />
    <glyph glyph-name="plus" unicode="+" horiz-adv-x="406" 
d="M156 67q-9 2 -14 12t-2 19l31 114q-152 0 -152 23q0 11 9 17.5t16 6.5h12t36 1h93q2 10 5 18.5t5 15.5q30 97 39 143q12 2 12 -35q0 -20 -15 -142h17q53 -1 90 0t58 2q8 -15 -62 -29q-28 -4 -55.5 -8t-55.5 -9q-7 -25 -15 -49t-17 -46q-23 -59 -35 -54z" />
    <glyph glyph-name="comma" unicode="," horiz-adv-x="194" 
d="M85 -80q-4 1 -4 3q0 1 23 27t20 46q-1 11 -14 19.5t-13 17.5q0 30 29 30q14 0 28 -9.5t14 -24.5q0 -42 -35 -80q-32 -33 -48 -29z" />
    <glyph glyph-name="hyphen" unicode="-" horiz-adv-x="297" 
d="M95 213q-8 -2 -19 -1.5t-25 2.5q-32 6 -32 21q0 11 9 17.5t16 6.5h3.5t6.5 1h26q22 1 56 0q51 -1 88.5 -0.5t60.5 2.5q8 -17 -78 -32l-56 -8t-56 -9z" />
    <glyph glyph-name="period" unicode="." horiz-adv-x="226" 
d="M130 -1q-17 0 -29.5 10.5t-12.5 24.5q0 29 38 29q14 0 28 -9.5t14 -24.5q0 -12 -13 -21t-25 -9z" />
    <glyph glyph-name="slash" unicode="/" horiz-adv-x="604" 
d="M44 -124q-17 0 -17 29q0 37 22 97q31 85 261 394q227 302 251 302q11 0 19 -8q12 -11 -4 -30q-68 -79 -142 -171.5t-154 -199.5q-188 -253 -220 -337q-6 -18 -6 -32q0 -19 11 -25q5 -1 0 -9q-7 -10 -21 -10z" />
    <glyph glyph-name="zero" unicode="0" horiz-adv-x="576" 
d="M154 -9q-20 0 -38 3q-83 11 -83 118q0 105 78 232q48 80 138 156q86 74 174 114q-4 4 -4 8q0 7 16 10t41 1q29 10 77 10q75 0 75 -28q-2 -14 -20 -6q-33 12 -61 11q31 -10 57 -35q56 -53 56 -135q0 -75 -45 -158q-43 -82 -117 -147q-173 -154 -344 -154zM128 16
q142 -12 323 147q156 137 156 298q0 76 -32 102q-49 38 -92 46q-93 -29 -196 -127q-76 -74 -126 -151q-82 -127 -82 -235q0 -76 49 -80z" />
    <glyph glyph-name="one" unicode="1" horiz-adv-x="349" 
d="M18 -22q-8 -3 -13.5 6t-5.5 20q0 15 9 18q17 8 42.5 17t58.5 20q41 76 103.5 190t147.5 267q-55 -34 -140 -66q-15 -6 -15 10q0 9 9 13q68 26 189 120l6 10q10 19 45 19q29 0 29 -15q0 -3 -3 -8l-322 -532q68 12 143 12q11 0 11 -11q0 -14 -15 -14q-66 0 -143 -24
q-15 -5 -49 -18t-87 -34z" />
    <glyph glyph-name="two" unicode="2" horiz-adv-x="648" 
d="M522 -49q-61 0 -145 29l-139 50q-47 14 -75 14q-19 -9 -48.5 -20.5t-69.5 -25.5q-12 -3 -21 -3q-24 0 -24 18q0 22 26 42q24 16 48 20q20 4 44.5 5t52.5 -1q234 141 306 198q68 53 102 95q47 56 57 120q1 5 1.5 9t0.5 8q0 54 -68 54q-66 0 -165 -45q-90 -41 -144 -89
q-4 -4 -9 -4q-10 0 -10 12q0 8 6 12q69 59 178 108q120 53 202 53q92 0 92 -71q0 -5 -0.5 -10.5t-1.5 -11.5q-12 -70 -91 -150q-22 -22 -57 -52t-82 -68q-105 -82 -291 -180q44 -4 156 -42q107 -36 175 -36q39 0 73 15q44 18 44 53q0 40 -61 62q-8 3 -8 8q0 13 17 8
q83 -24 83 -80q0 -47 -56 -79q-46 -25 -98 -25z" />
    <glyph glyph-name="three" unicode="3" horiz-adv-x="718" 
d="M255 -10q-98 0 -158 30q-65 32 -65 90q0 31 19 66q25 45 99 77q63 26 109 26q12 0 12 -8q0 -10 -14 -10q-32 0 -82 -30q-56 -35 -66 -70q-2 -9 -3.5 -17.5t-1.5 -16.5q0 -87 119 -108q116 -21 241 36q140 65 189 187q7 17 7 34q0 40 -45 59q-39 17 -96 17q-59 0 -98 -15
q-9 -4 -19 -4q-18 0 -18 17q0 11 8 20.5t21 9.5q86 0 161 29q96 38 108 107q1 4 1 7v6q0 43 -57 43q-50 0 -122 -27q-64 -24 -111 -54q-4 -3 -7 -3q-7 0 -7 13q0 30 19 34q23 7 73 54q6 6 11 4t5 -7q0 -6 -6 -12q-3 -2 -8 -8q107 46 179 46q98 0 94 -91q-5 -87 -179 -141
q151 -16 151 -106q0 -15 -4 -28q-30 -118 -177 -192q-129 -64 -282 -64z" />
    <glyph glyph-name="four" unicode="4" horiz-adv-x="568" 
d="M339 -81q-4 0 -9 1.5t-7 4.5q-17 38 -14.5 84t16.5 92t29 85q-37 11 -68.5 16.5t-57.5 5.5q-66 0 -187 -50q-12 -4 -20 6.5t-8 24.5q0 26 22 33q10 4 23.5 7t32.5 7q47 26 100 63t106 76t99 68q94 59 150.5 102t75.5 70l2 3l9 14q5 7 17 7q34 0 34 -19q0 -2 -2 -4
l-176 -253q-17 -26 -37.5 -58t-37.5 -60t-25 -41q71 -24 118 -24q28 0 51 17q29 24 29 58q0 11 -3 21q-3 15 8 15q9 0 14 -10q19 -34 19 -61q0 -68 -122 -68q-52 0 -130 24q-14 -28 -28.5 -70t-19 -85t10.5 -75q2 -6 2 -9q0 -18 -16 -18zM368 219q12 26 38 70.5t59.5 97
t67.5 101.5l23 34q-40 -24 -101.5 -67t-136 -97t-156.5 -112q25 3 42 4t27 1q53 0 137 -32z" />
    <glyph glyph-name="five" unicode="5" horiz-adv-x="662" 
d="M308 552q-7 -5 -9.5 5t-0.5 28q2 20 9 24q23 17 51 20q6 1 19.5 1.5t35.5 0.5q24 0 58.5 -6.5t80.5 -19.5t80.5 -19.5t58.5 -6.5q20 0 45 12q33 17 33 41q0 15 12 15t12 -26q0 -34 -45 -54q-30 -13 -63 -13q-25 0 -59 3t-78 10q-43 7 -77.5 10t-60.5 3q-65 0 -102 -28z
M154 -8q-82 -3 -134.5 24t-52.5 76q0 51 65 113q10 10 19 10q7 0 7 -7q0 -8 -10 -18q-36 -34 -36 -70q0 -42 46 -70t108 -28q119 0 241 85q127 88 150 200q1 5 1.5 10t0.5 10q0 50 -62 76q-46 17 -99 15q-66 -3 -120 -29l-105 -51q-2 -1 -6 -1q-9 0 -9 12q0 15 13 21
l118 149q9 11 45 11q20 0 20 -6q0 -2 -2 -4l-116 -126q128 51 183 51q214 0 214 -106q0 -16 -6 -36q-41 -129 -185 -220q-136 -85 -288 -91z" />
    <glyph glyph-name="six" unicode="6" horiz-adv-x="612" 
d="M213 -19q-85 0 -127 36q-39 33 -36 92q5 85 83 183q82 103 208 171q155 84 253 117q-3 1 -9 2.5t-9 1.5q-5 3 -4 7q2 4 11.5 7.5t15.5 2.5l84 5q28 2 45 -9.5t17 -25.5q0 -10 -11 -12q-154 -30 -363 -132q-96 -46 -182 -135q-104 -106 -104 -194q0 -91 125 -91
q69 0 176 32q49 15 94 51q55 43 55 87q0 35 -46 35q-71 0 -145 -42q-85 -49 -98 -122q-3 -19 -17 -19q-12 0 -9 17q17 92 108 150q80 50 166 51q100 1 100 -68q0 -53 -62 -103q-49 -37 -111 -57q-125 -38 -208 -38z" />
    <glyph glyph-name="seven" unicode="7" horiz-adv-x="494" 
d="M139 -15q-14 0 -16 11.5t-2 23.5q0 106 133 255q137 155 324 303q-82 11 -134.5 16.5t-76.5 5.5q-86 0 -130 -18q-57 -25 -79 -91q-8 -20 -27 -20q-11 0 -18.5 8t-3.5 20l1 6l2 6l18 36q12 25 10 36q-1 10 3 23q3 7 7 6q8 -6 8 -31q71 63 188 63q51 0 130 -19
q48 -11 80.5 -17.5t48.5 -8.5l51 38q11 8 29 -13q20 -20 8 -28q-119 -86 -220.5 -170t-184.5 -167q-49 -49 -89 -114q-50 -80 -50 -131q0 -4 0.5 -8.5t1.5 -8.5q2 -12 -12 -12z" />
    <glyph glyph-name="eight" unicode="8" horiz-adv-x="608" 
d="M126 -18q-75 0 -104 33q-21 24 -21 57q0 60 61 125q114 124 269 204q-62 38 -62 73q0 11 4 20q22 60 100 100q71 36 147 36q54 0 89 -20q27 -16 27 -42q0 -21 -18 -47l84 27q8 2 12.5 -2.5t3.5 -12.5q-3 -17 -29 -23q-61 -13 -127 -37t-139 -58q60 -25 92 -45
q73 -46 73 -106q0 -64 -82 -134q-72 -60 -185 -107q-102 -41 -195 -41zM394 428q30 14 78 35t113 47q4 7 8.5 17.5l10.5 24.5q7 25 -17 34q-39 14 -80 14q-71 0 -126 -34q-54 -33 -48 -77q4 -35 61 -61zM137 1q65 0 155 37q239 98 239 200q0 60 -86 104l-86 44
q-88 -50 -182 -135q-130 -120 -120 -196q8 -54 80 -54z" />
    <glyph glyph-name="nine" unicode="9" horiz-adv-x="440" 
d="M161 -152q-40 5 -41 54q-4 107 109 282q47 73 103.5 141.5t121.5 132.5q-209 -145 -320 -145q-60 0 -59 51q3 84 107 150q86 54 218 87q114 28 197 25q8 0 6 -9q-1 -9 -10 -22t-17 -12q-142 11 -294 -57q-156 -69 -161 -153q-1 -38 45 -32q34 4 85.5 28.5t121.5 68.5
q52 33 98.5 67t89.5 68q4 4 18 4q42 0 42 -21q0 -7 -9 -15q-16 -13 -43.5 -37.5t-66.5 -59.5q-349 -322 -340 -546q2 -28 15 -33q15 -6 5 -13q-6 -6 -21 -4z" />
    <glyph glyph-name="colon" unicode=":" horiz-adv-x="226" 
d="M170 193q-17 0 -29.5 10.5t-12.5 24.5q0 29 38 29q14 0 28 -10t14 -24q0 -12 -13 -21t-25 -9zM130 -1q-17 0 -29.5 10.5t-12.5 24.5q0 29 38 29q14 0 28 -9.5t14 -24.5q0 -12 -13 -21t-25 -9z" />
    <glyph glyph-name="semicolon" unicode=";" horiz-adv-x="226" 
d="M170 193q-17 0 -29.5 10.5t-12.5 24.5q0 29 38 29q14 0 28 -10t14 -24q0 -12 -13 -21t-25 -9zM85 -80q-4 1 -4 3q0 1 23 27t20 46q-1 11 -14 19.5t-13 17.5q0 30 29 30q14 0 28 -9.5t14 -24.5q0 -42 -35 -80q-32 -33 -48 -29z" />
    <glyph glyph-name="less" unicode="&#x3c;" horiz-adv-x="318" 
d="M217 136l-8 4q-34 48 -121 110q-3 2 -3 6q0 14 52 85l66 90q8 11 19 11q7 0 7 -6q0 -15 -99 -153q97 -124 97 -134q0 -13 -10 -13z" />
    <glyph glyph-name="equal" unicode="=" horiz-adv-x="406" 
d="M240 333q-10 -2 -35 -1.5t-65 2.5q-88 6 -88 21q0 12 9 18t16 6l40 1q22 1 41.5 1h36.5h47.5t38.5 -1q51 -1 88 0t60 2q7 -16 -78 -31zM207 213q-21 -5 -100 1q-88 6 -88 21q0 11 9 17.5t16 6.5q-1 0 9 0t30 1h80q51 1 85 0q51 -1 88 -0.5t60 2.5q8 -17 -77 -32l-56 -8
t-56 -9z" />
    <glyph glyph-name="greater" unicode="&#x3e;" horiz-adv-x="318" 
d="M91 129q-6 0 -6 6q0 15 99 153q-98 125 -98 134q0 13 11 13l8 -4q17 -23 47.5 -50.5t73.5 -59.5q3 -1 3 -6q0 -14 -52 -85q-16 -22 -33 -44.5t-34 -45.5q-8 -11 -19 -11z" />
    <glyph glyph-name="question" unicode="?" horiz-adv-x="401" 
d="M151 113q-7 0 -7 13q0 4 2 10q26 53 88 93q47 31 74.5 49.5t35.5 25.5q43 39 43 72q0 32 -37 51.5t-88 19.5q-59 0 -101 -24q-49 -28 -55 -78q-2 -13 10.5 -24.5t30.5 -11.5q30 0 58 30q3 3 5 3q4 0 4 -6q0 -7 -5 -12q-31 -34 -71 -34q-25 0 -41.5 16t-14.5 41
q6 67 71 108q54 33 117 33q166 0 166 -95q0 -61 -54 -103q-12 -9 -120 -72q-70 -40 -96 -89q-9 -16 -15 -16zM128 -5q-17 0 -29 10.5t-12 24.5q0 28 38 28q14 0 28 -9.5t14 -23.5q0 -12 -13.5 -21t-25.5 -9z" />
    <glyph glyph-name="at" unicode="@" horiz-adv-x="842" 
d="M233 26h-20.5t-21.5 1q-79 5 -126 51q-51 50 -51 131q0 72 41 162q52 113 197 217q160 114 326 127q11 1 20.5 1h19.5q99 0 153 -39q50 -36 50 -95q0 -35 -16 -68q-11 -21 -10 -22q7 -24 7 -53q0 -125 -128 -238q-196 -175 -441 -175zM201 48q213 -13 403 156
q122 110 137 208q-2 2 -4 2l-122 -135q-92 -89 -151 -89q-15 0 -26 4q-44 17 -44 66q0 6 0.5 12.5t1.5 13.5q-2 2 -4 2q-109 -105 -143 -105q-25 0 -47 16q-25 16 -28 39q-10 78 97 182t191 104q38 0 46 -29q1 -4 1.5 -5.5t0.5 -0.5v-2l1 -2q2 -2 3 -2q3 0 7 1.5t7 1.5
q11 0 20.5 -9t10.5 -16q0 -7 -19 -35q-16 -23 -32 -46.5t-33 -46.5q-43 -70 -39 -97q5 -24 24 -24q35 0 123 80q44 41 83.5 82t73.5 83v2q-7 54 -53 95q-40 36 -96 51q-27 8 -68 8q-53 2 -68 3l-8 2q-1 3 1 4q47 16 91 16q20 0 43.5 -3t51.5 -10q102 -24 145 -97q3 -4 4 0
q8 24 8 43q0 34 -22 65q-42 60 -151 60q-120 0 -250 -76t-212 -189q-88 -122 -88 -245q0 -131 133 -138zM240 205q51 0 139 102q14 16 42 53t69 95l13 18q1 1 0 2q-7 12 -24 12q-62 0 -166 -96q-107 -100 -97 -163q3 -23 24 -23z" />
    <glyph glyph-name="A" unicode="A" horiz-adv-x="1020" 
d="M153 -116q-154 13 -154 158q0 86 54 182q32 58 80.5 113t106 99.5t118 70.5t116.5 26q99 0 99 -73q0 -49 -30 -109t-61 -76q-3 -1 -7 -1q-3 0 -3 2l33 54q34 56 34 98q0 30 -16 57t-57 27q-50 0 -102.5 -28t-101.5 -74t-89 -101.5t-64 -109.5q-51 -115 -51 -186
q0 -107 109 -107q104 0 282 134q41 31 105.5 87t151.5 136l-30 -2.5t-42 -5.5q-10 -2 -19 -3.5t-17 -1.5q-20 2 -17 10q4 37 38 37q31 -4 58.5 -6t52.5 -2q39 36 103.5 100.5t153.5 158.5q115 121 140 121q11 0 11 -20q0 -8 -2 -20t-6 -28q-10 -38 -21 -46
q-31 -22 -51.5 -56.5t-41.5 -76.5q-21 -43 -38.5 -76.5t-31.5 -59.5l97 2q36 0 36 -5q0 -1 -2 -3q-17 -11 -144 -20q-93 -181 -93 -248q0 -46 29 -46q11 0 28 14q16 13 20 13q0 2 1 1t-1 -1q-5 -18 -29.5 -32.5t-51.5 -14.5q-25 0 -33 16t-8 44q0 101 77 257l-120 -3
q-134 -131 -269 -230q-215 -156 -330 -146zM881 289q12 23 48 83.5t97 157.5l-256 -240z" />
    <glyph glyph-name="B" unicode="B" horiz-adv-x="819" 
d="M424 -47q-158 0 -215 108q-103 -86 -147 -86q-21 0 -32.5 20t-11.5 45q0 60 46 140q20 35 44 64t54 29q29 0 44 -48l30 -96q16 17 35.5 41.5t43.5 57.5l89 120q164 213 215 233q18 7 36 7q20 0 32.5 -8.5t12.5 -19.5q0 -18 -29 -21q-30 -17 -117 -101
q-40 -39 -64.5 -64.5t-33.5 -38.5q-112 -156 -207 -240q61 -121 183 -121q46 0 93.5 19.5t88 51.5t65.5 71.5t25 78.5q0 41 -29 74t-71 47l-15 2t-46 6q-47 6 -47 19q0 9 11.5 16t23.5 7q9 0 21 -4t21.5 -7.5l9.5 -3.5q8 -1 18 -1.5t20 -0.5q66 0 120 21q52 21 76 58t24 86
q0 50 -31.5 79t-83 41.5t-111.5 12.5q-117 0 -222.5 -34t-182.5 -113q-59 -61 -59 -102q0 -29 15 -49q4 -5 9 -10t12 -10q5 -3 -6 -3q-62 14 -62 83t70 130q54 47 123.5 76t147 42t153.5 13q54 0 104 -8t90 -26.5t63.5 -48.5t23.5 -74q0 -62 -33 -99t-89 -57
q-66 -23 -142 -24q42 -2 73.5 -22t49 -52t17.5 -70q0 -51 -30.5 -94.5t-81.5 -75t-112 -49t-122 -17.5zM75 -2q32 0 123 91l-3 4q-40 133 -64 133q-1 0 -5 -2q-74 -107 -74 -172q0 -14 5.5 -34t17.5 -20z" />
    <glyph glyph-name="C" unicode="C" horiz-adv-x="726" 
d="M263 -65q-111 0 -171.5 59t-60.5 153q0 86 42.5 168t107.5 151q53 56 121.5 97t144 64t147.5 23q57 0 103 -15.5t73 -48.5t27 -86q0 -47 -22.5 -87.5t-60 -70.5t-82.5 -47t-91 -17q-60 0 -101 27.5t-41 69.5q0 54 69 106q12 9 19 9q5 0 5 -4q0 -10 -16 -16
q-56 -45 -56 -91q0 -33 30 -55.5t75 -22.5q40 0 80.5 17t74.5 46t54.5 65.5t20.5 76.5q0 65 -44 95t-112 30q-77 0 -152.5 -29t-141.5 -80t-118 -117q-104 -131 -104 -246q0 -61 28 -103.5t77.5 -64.5t113.5 -22q95 0 184 41.5t152 111.5q17 18 25 18q6 0 6 -9
q0 -12 -11 -23q-34 -36 -81 -67t-100.5 -55t-108.5 -37.5t-105 -13.5z" />
    <glyph glyph-name="D" unicode="D" horiz-adv-x="921" 
d="M427 -58q-167 -8 -240 83q-88 -68 -129 -68q-22 0 -32.5 21.5t-10.5 46.5q0 48 37 138q44 102 81 102q19 0 29 -60q17 -90 31 -124q33 35 82.5 95t114.5 145q162 213 215 233q18 7 36 7q20 0 32.5 -8.5t12.5 -19.5q0 -17 -29 -20q-21 -11 -51.5 -38t-64 -61.5t-62.5 -68
t-47 -57.5q-107 -149 -214 -238l-6 -5q32 -47 77 -65t100 -18q91 0 173.5 27.5t149 82t109.5 133.5q47 86 47 164q0 53 -23 100.5t-61.5 81.5t-85.5 44q-55 12 -115 12q-154 0 -284 -71q-137 -75 -137 -168q0 -25 15 -43q12 -14 17 -16h-6q-28 5 -48 28t-20 51
q0 52 32.5 95.5t94.5 79.5q124 71 293 71q38 0 76 -4t75 -12q65 -14 118 -53t85 -95t32 -121q0 -75 -44 -155q-44 -81 -113.5 -135.5t-156.5 -83t-185 -33.5zM63 -25q43 19 104 79q-29 48 -38 81q-6 22 -9 67q-69 -99 -69 -173q0 -31 12 -54z" />
    <glyph glyph-name="E" unicode="E" horiz-adv-x="691" 
d="M256 -80q-67 0 -124.5 17t-93 52t-35.5 88q0 41 26 82q92 146 314 217q-33 38 -33 86q0 39 21 67q41 56 124 93q47 20 95.5 31t98.5 11q62 0 94.5 -20t32.5 -56q0 -25 -13.5 -45.5t-33.5 -33t-41 -12.5q-31 0 -31 15q0 9 13 9q4 0 10.5 -1.5t9.5 -1.5q21 0 37 22t16 44
q0 32 -30.5 46t-68.5 14q-95 0 -186 -61q-96 -63 -96 -142q0 -29 20 -54q35 11 65.5 15.5t58.5 4.5q96 0 96 -37q0 -17 -14 -29.5t-35.5 -19t-43.5 -6.5q-23 0 -51 6t-54 16t-44 23q-94 -27 -166.5 -83.5t-107.5 -126.5q-19 -38 -19 -74q0 -44 25 -72t66.5 -41t91.5 -13
q83 0 165 26.5t140 78.5q79 70 79 147q0 61 -59 61q-31 0 -69 -15.5t-71.5 -41.5t-55.5 -57t-22 -63t28 -39q10 -4 10 -10q0 -8 -15 -8q-53 0 -53 59q0 39 23 74t59.5 62t79.5 42.5t83 15.5q47 0 73 -20.5t26 -66.5q0 -93 -103 -175q-65 -53 -144 -76.5t-168 -23.5zM500 337
q54 0 54 31q0 14 -54 14q-24 0 -49.5 -3t-51.5 -8q43 -34 101 -34z" />
    <glyph glyph-name="F" unicode="F" horiz-adv-x="632" 
d="M254 -89q-19 0 -19 11q0 22 71 123q32 44 68.5 90.5t76.5 94.5q-37 -7 -65 -10t-45 -3q-4 1 -4 5q0 7 12 17t20 10h14.5t34.5 1h51q15 20 52.5 73t98.5 139q48 69 48 114q0 70 -104 70q-63 0 -133.5 -23t-138 -61.5t-120.5 -83.5q-65 -55 -103 -117.5t-38 -111.5
q0 -85 111 -78q61 5 119 73q56 67 50 114q26 -5 26 -31q0 -43 -54 -99q-37 -37 -82.5 -59t-95.5 -22q-56 0 -86.5 29.5t-30.5 78.5q0 118 144 238q63 52 136 90.5t150 60t151 21.5q73 0 116 -24.5t43 -71.5q0 -43 -39 -99q-13 -20 -53 -75t-108 -144l58 -2q23 -1 36 -1.5
t15 0.5h6q18 0 18 -7q0 -14 -39 -14h-10.5t-26.5 1q-15 1 -27 1h-21q-26 -2 -31 -5q-22 -28 -48.5 -63t-56.5 -77q-79 -109 -79 -128q0 -6 7.5 -2t10.5 6q11 0 11 -3q0 -5 -22 -15l-28 -15q-19 -16 -47 -16z" />
    <glyph glyph-name="G" unicode="G" horiz-adv-x="828" 
d="M509 -154q-8 0 -8 13q0 18 14.5 51.5t41.5 83.5l70 131q-64 -55 -158 -99q-60 -29 -127 -47t-129 -18q-108 0 -168 50t-60 132q0 153 185 311q45 38 102 72t120 59.5t126 40t119 14.5q47 0 88.5 -13t68 -37.5t26.5 -60.5q0 -30 -20 -59t-51.5 -52t-68 -37t-70.5 -14
q-91 0 -93 98q-2 50 17 50q17 0 13 -43q-10 -82 69 -82q27 0 58 10t57.5 28t43.5 40t17 46q0 30 -21.5 48.5t-55 27.5t-71.5 9q-81 0 -163 -25.5t-158 -71t-138 -105.5q-143 -140 -143 -257q0 -70 52.5 -111.5t137.5 -41.5q68 0 139 26t135 63q130 73 195 155l29 43
q-13 0 -50.5 -3t-101.5 -8q-67 -5 -105.5 -9.5t-48.5 -6.5q-12 -3 -24 -3q-33 0 -33 16q0 25 88 44q31 7 96 10.5t164 3.5q166 0 224 -14q9 -1 9 -5q0 -10 -69 -16l-49 -4q-28 -3 -39 -3q-102 -133 -264 -414q-9 -16 -18 -16z" />
    <glyph glyph-name="H" unicode="H" horiz-adv-x="951" 
d="M756 -66q-28 0 -43 22t-15 52q0 58 53 158q-37 -3 -74 -3q-27 0 -102 3l-128 4q-70 -112 -114 -204q-13 -27 -35 -27q-15 0 -15 14q0 10 6 22q17 37 44.5 86t64.5 110q-82 0 -109 -7q-45 -11 -67 -45q-8 -11 -13 -12q-6 -1 -6 5q0 5 4 9q38 51 77 71q40 21 139 18
q62 93 171 276q41 77 41 125q0 78 -105 78q-128 0 -238 -67q-58 -36 -109 -90.5t-82 -116t-31 -120.5q0 -93 87 -93q39 0 69 18.5t53 47.5q45 56 45 111q0 31 -16 51q-2 2 -2 5q0 7 8 7q5 0 6 -3q20 -26 20 -62q0 -61 -50 -125q-31 -38 -63.5 -55.5t-74.5 -17.5
q-63 0 -98 39.5t-35 101.5q0 84 50.5 159t127.5 129q152 107 339 102q40 -1 75 -14.5t56.5 -39t21.5 -63.5q0 -48 -37 -107l-181 -278q20 -1 52 -3.5t76 -7.5q37 -4 62 -5.5t38 -1.5h39.5t26.5 1l38 63q50 83 104.5 157.5t113.5 140.5q134 148 229 182q3 1 7 1q6 0 6 -8
q0 -3 -3 -5q-31 -17 -75.5 -59.5t-103.5 -110.5q-124 -143 -211 -289l-39 -66q46 6 66 23q4 3 7 -3q3 -7 -1 -10q-30 -23 -85 -33q-70 -130 -70 -183q0 -34 29 -34q20 0 46.5 13.5t42.5 30.5q2 2 3 2q3 0 3 -6q-1 -7 -5 -11q-12 -12 -32 -24t-41.5 -20t-37.5 -8z" />
    <glyph glyph-name="I" unicode="I" horiz-adv-x="576" 
d="M177 -69q-156 0 -156 184q0 152 81 245q68 80 156 80q49 0 77.5 -26t28.5 -75q0 -78 -60 -158q-62 -83 -126 -83q-37 0 -54.5 22t-17.5 53q0 20 8 44q11 29 23 29q9 0 9 -9q0 -5 -9 -26q-7 -15 -7 -31q0 -21 13.5 -33.5t35.5 -12.5q59 0 111 75q49 70 49 139
q0 36 -17.5 55.5t-47.5 19.5q-71 0 -142 -98q-73 -105 -69 -231q2 -56 30.5 -95t76.5 -39q135 0 345 359q-110 33 -110 130q0 65 35 117.5t96 88.5q83 48 162 48q43 0 83.5 -10.5t67.5 -33t27 -58.5q0 -12 -5.5 -23t-11.5 -11q1 0 -9 6.5t-22 6.5q-85 0 -233 -253q4 -1 8 -1
h8q25 0 48.5 9t39 25t15.5 36q0 8 -3.5 16.5t-3.5 10.5q0 8 8 8q4 0 8 -3q23 -17 23 -42t-19 -44t-48.5 -29.5t-59.5 -10.5q-17 0 -34 3q-69 -127 -168 -234q-132 -140 -240 -140zM532 344q55 90 134 171q95 98 153 98q15 0 26 -7q-1 19 -18 34.5t-40.5 24.5t-44.5 10
q-66 3 -140 -30q-63 -28 -103.5 -84.5t-40.5 -130.5q0 -72 74 -86z" />
    <glyph glyph-name="J" unicode="J" horiz-adv-x="822" 
d="M222 -130q-83 0 -133 42.5t-50 116.5q0 50 22 91q28 55 76 100.5t104.5 73.5t109.5 28q68 0 106.5 -32t38.5 -84q0 -28 -11.5 -54t-28.5 -44q-25 -28 -40 -28q-4 0 -4 4q0 3 3 9q36 53 36 102q0 44 -28 73t-75 29q-45 0 -90 -26.5t-82.5 -69t-61.5 -91.5q-25 -49 -25 -95
q0 -61 39.5 -92.5t103.5 -31.5q255 0 532 446q166 266 170 326l-59 3q-24 1 -57 -5.5t-66 -19t-59.5 -29t-37.5 -36.5q-9 -15 -9 -29q0 -22 19 -44t19 -26q0 -5 -12 -7q-3 -1 -8 -1q-21 0 -40 19q-22 22 -22 53q0 28 18 52q25 34 69.5 54t96 28.5t97.5 7.5q9 0 49 -3
q-2 13 10.5 24.5t28.5 11.5q30 0 29 -43q108 -19 114 -58q1 -4 1 -8v-7q0 -20 -11 -20q-9 0 -9 13v5t1 6q-25 37 -99 52q-18 -81 -188 -352q-52 -83 -120 -160.5t-145 -139.5t-159 -98t-163 -36z" />
    <glyph glyph-name="K" unicode="K" horiz-adv-x="936" 
d="M1033 -129q-39 0 -69 14q-43 21 -85 58.5t-80 84.5t-68 99t-50 101q-55 -32 -91 -35q-28 -36 -71 -82t-95.5 -89t-112 -70.5t-120.5 -27.5q-78 0 -123.5 39.5t-45.5 124.5q0 47 23 93t62 83t85 56q57 25 119 25q35 0 56 -18.5t21 -47.5q0 -13 -4 -17q-1 -1 -3 -1
q-3 0 -8 8q-16 31 -32 41t-45 10q-44 0 -85.5 -21.5t-75 -57.5t-53.5 -80.5t-20 -89.5q0 -108 122 -122q46 -4 121 39q112 64 239 220q-23 21 -23 60q0 43 29 78q32 38 85 38q15 0 28 -3q27 46 52 93t48 95q44 91 44 106q0 2 -1 2q-3 2 -24 -7.5t-49 -23t-52 -26.5t-33 -19
q-34 -22 -68 -56q-44 -44 -44 -68q0 -11 10 -18q21 -15 62 -15q5 -2 5 -4q0 -5 -32 -10t-50 -3q-25 6 -25 29q0 35 43 84t94 77q149 80 189 80q10 0 17 -4q4 -3 4 -11q0 -61 -168 -349q3 -12 8.5 -27.5t13.5 -35.5l298 227q75 57 137 103t118.5 78t114 49t124.5 17
q37 0 68 -12q19 -7 19 -28q0 -17 -10 -17q-5 0 -10 6q-9 10 -38 10q-16 0 -42 -4t-63 -12q-57 -13 -120.5 -41t-133.5 -71q-88 -55 -240 -171q-77 -59 -130.5 -97.5t-82.5 -57.5q22 -46 53.5 -95t68.5 -94.5t78 -81t81 -53.5q39 -18 71 -18q48 0 48 37v5t-1 5q0 2 -0.5 3.5
t-0.5 2.5q0 10 5 17.5t11 7.5q13 0 17 -31q1 -2 1 -5v-5q0 -24 -17 -40.5t-43 -24.5t-55 -8zM576 249l7 10q8 12 21.5 31t30.5 45q-12 5 -21 5q-21 0 -35 -18t-14 -40q0 -19 11 -33zM620 232q10 0 13 1q13 2 40 16q-4 12 -7.5 22t-5.5 18q-7 -11 -17 -25.5t-23 -31.5z" />
    <glyph glyph-name="L" unicode="L" horiz-adv-x="658" 
d="M545 -109q-56 0 -115 16.5t-111.5 48.5t-90.5 76q-80 -80 -152 -80q-37 0 -55 21.5t-18 55.5q0 63 48 148q45 80 72 84q20 0 41 -41l63 -122q53 71 111 153q-82 37 -82 107q0 30 14.5 55.5t37.5 41.5t47 16q33 0 48 -31q2 -3 0.5 -6t-3.5 -2q-7 8 -20 14t-24 6
q-21 0 -38.5 -16.5t-27 -38.5t-7.5 -39q0 -51 72 -89q17 25 37 54.5t43 63.5q199 292 331 292q93 0 93 -87q0 -79 -77 -186q-38 -53 -96 -95t-122.5 -66.5t-124.5 -24.5q-14 0 -27.5 1.5t-24.5 5.5q-26 -34 -60 -76t-75 -93q18 -25 51.5 -50t75.5 -44.5t83 -31.5t74 -12
q38 0 70 8.5t52 27t20 48.5v8t-1 8q0 2 -0.5 3t-0.5 2q0 10 6 10q10 0 16 -15.5t6 -24.5q0 -31 -24 -54.5t-60.5 -36.5t-74.5 -13zM432 246q51 0 109 23.5t109.5 62t83.5 83.5q91 127 91 193q0 28 -16 41t-39 13q-50 0 -124 -84q-23 -27 -60.5 -77.5t-88.5 -124.5
q-20 -29 -44 -61t-50 -66q14 -3 29 -3zM78 -21q19 0 42.5 13.5t45.5 33.5t36 39q-14 20 -30 48t-35 65q-23 48 -35 43q-18 -3 -39 -64t-21 -114q0 -64 36 -64z" />
    <glyph glyph-name="M" unicode="M" horiz-adv-x="1136" 
d="M945 -67q-18 0 -24 9q-18 26 -18 63q0 86 92 247q59 101 182 272q-52 -43 -113 -99t-131 -124q-91 -89 -148.5 -156.5t-82.5 -111.5q-26 -47 -63 -47q-17 0 -17 12q0 4 3 8q17 27 44 71.5t64 106.5q108 188 155 299q17 42 17 61q0 16 -11 16q-15 0 -47 -27
q-111 -93 -249 -259q-58 -69 -101.5 -127.5t-73.5 -105.5q-24 -37 -24 -53q0 -6 4.5 -8.5l4.5 -2.5q0 -1 -18 -15q-16 -8 -36 -8q-41 0 -35 19q14 45 93 163q103 153 134 209q67 121 67 193q0 50 -26 71t-79 21q-117 0 -242 -101q-54 -44 -101 -99.5t-76 -115.5t-29 -118
q0 -104 98 -104q115 0 178 83q24 33 24 62q0 17 -10 23q-1 1 -1 3q0 4 6 4q26 0 26 -34q0 -21 -18 -53q-23 -40 -69 -68q-58 -36 -128 -36q-68 0 -109 43t-41 113q0 158 206 323q38 30 90.5 51.5t108.5 33t103 11.5q68 0 103.5 -22.5t35.5 -78.5q0 -70 -57 -189
q-18 -37 -81 -135l77 98q29 38 78 90t116 118q29 28 66 48t63 20q36 0 36 -38q0 -33 -27 -90q-36 -76 -90 -177q-17 -31 -23 -53t-8 -25q4 5 19.5 23.5t43.5 50.5q34 38 81 83.5t108 97.5l160 132q19 16 34 16q14 0 20.5 -16.5t13.5 -42.5q5 -17 -48 -71
q-125 -128 -216 -286q-83 -146 -83 -211q0 -29 19 -29q12 0 60 21q42 19 55 22q5 -2 5 -5q0 -15 -53 -42q-52 -27 -87 -27z" />
    <glyph glyph-name="N" unicode="N" horiz-adv-x="925" 
d="M753 -96q-25 0 -33.5 24t-8.5 48q0 86 92 247q59 101 182 272q-133 -12 -344 -210q-168 -159 -239 -273q-24 -37 -24 -53q0 -7 4.5 -9l4.5 -2q0 -2 -19 -15q-14 -8 -35 -8q-42 0 -36 19q14 44 93 162q103 153 134 209q68 122 68 193q0 50 -24.5 69t-68.5 19
q-119 0 -253 -109q-55 -45 -102 -99.5t-76 -112.5t-29 -114q0 -96 89 -98q124 -3 187 83q24 33 24 62q0 17 -11 23q-1 1 -1 3q0 4 6 4q26 0 26 -34q0 -21 -17 -53q-28 -48 -83 -76t-114 -28q-65 0 -104 39t-39 105q0 156 214 328q36 29 88 52t107.5 36t102.5 13
q59 0 93.5 -22.5t34.5 -77.5q0 -71 -58 -188q-13 -26 -33 -60t-47 -75q31 39 101 99q126 106 233 174.5t195 100.5q9 4 20 4q38 0 48 -43q5 -17 -48 -71q-125 -128 -216 -286q-83 -146 -83 -212q0 -28 19 -28q12 0 60 21q42 19 55 22q5 -2 5 -5q0 -15 -53 -42
q-52 -27 -87 -27z" />
    <glyph glyph-name="O" unicode="O" horiz-adv-x="784" 
d="M245 -59h-22t-22 1q-79 4 -128 52t-49 131q0 72 41 163q52 115 196 218q83 59 177 94.5t190 35.5q56 0 102.5 -15t74 -45t27.5 -76q0 -16 -4 -33.5t-13 -34.5l-11 -21q8 -27 8 -55q0 -125 -128 -239q-196 -176 -439 -176zM239 -39q197 0 375 159q128 114 138 217
q-52 -57 -180 -136l-8 -2q-8 0 26 28l56 46q36 30 62 56t43 47q-7 56 -54 96q-40 35 -96 52q-28 7 -92 9q-53 2 -53 5q0 1 2 3q47 15 90 15q20 0 44 -3t52 -10q105 -25 147 -102q10 24 10 49q0 41 -23.5 69t-63 42t-87.5 14q-151 0 -290 -97q-129 -90 -204 -232
q-55 -103 -55 -185q0 -132 133 -139q7 -1 14 -1h14z" />
    <glyph glyph-name="P" unicode="P" horiz-adv-x="1057" 
d="M213 -108q-78 0 -124 36.5t-46 105.5q0 50 21.5 94.5t58.5 79.5t84.5 55t99.5 20q53 0 83.5 -24t30.5 -65q0 -30 -39 -78t-39 -32q0 4 3 8q32 47 32 88q0 37 -23.5 59t-61.5 22q-42 0 -80.5 -20.5t-68.5 -54.5t-47 -75t-17 -81q0 -55 35.5 -83.5t93.5 -28.5
q59 0 113.5 21.5t97.5 61.5q51 48 103 140l87 157q34 54 71 130.5t78 175.5q-144 2 -280 -28q-145 -31 -215 -86q-30 -22 -30 -46q0 -21 23.5 -34.5t59.5 -13.5q21 0 50 6t56 16.5t41 23.5q10 8 14 8q8 0 3 -8q-21 -25 -54.5 -42t-70.5 -25.5t-69 -8.5q-49 0 -76.5 19.5
t-27.5 50.5q0 36 36 70q68 66 243 98q68 12 146 17.5t166 4.5q22 19 42 19t15 -21q63 -4 127.5 -16t118 -33.5t86.5 -53t33 -74.5q0 -46 -30.5 -87.5t-78 -73.5t-99.5 -51q-48 -17 -102.5 -27t-107.5 -10q-40 0 -76.5 6t-66.5 19q-61 -89 -101.5 -145t-62.5 -78
q-108 -108 -258 -108zM753 222q37 0 73.5 7.5t78.5 20.5q42 14 85 35.5t79 49t58 59t22 63.5q0 36 -30 62.5t-79 43.5t-106 26.5t-110 12.5l-32 -100q-17 -43 -48 -100t-76 -128l-22 -34q7 -4 15.5 -6.5t18.5 -4.5q19 -4 37 -5.5t36 -1.5z" />
    <glyph glyph-name="Q" unicode="Q" horiz-adv-x="797" 
d="M712 -206q-104 0 -331 161q-81 -19 -180 -13q-45 3 -83 21q-13 -45 -21 -45q-10 0 -11 28q-1 11 0 19.5t2 15.5q-43 34 -56.5 83.5t-3 107.5t36.5 116q52 115 196 218q83 59 177 94.5t190 35.5q56 0 102.5 -15t74 -45t27.5 -76q0 -32 -17 -68l-11 -21q8 -27 8 -55
q0 -125 -128 -239q-114 -102 -241 -144q203 -146 274 -146q15 0 28.5 8t13.5 22q0 10 -7 20q-3 8 -3 11q0 14 17 -5q18 -19 18 -40q0 -20 -20 -34.5t-52 -14.5zM411 -5q55 20 105.5 51.5t97.5 73.5q127 112 138 217q-52 -57 -180 -136l-8 -2q-8 0 26 28l56 46
q35 31 61.5 56.5t43.5 46.5q-7 56 -54 96q-40 35 -96 52q-28 7 -92 9q-53 2 -53 5q0 1 2 3q47 15 90 15q20 0 44 -3t52 -10q105 -25 147 -102q10 24 10 49q0 41 -23.5 69t-63 42t-87.5 14q-151 0 -290 -97q-129 -90 -204 -232q-25 -46 -40.5 -96t-15 -95t22.5 -78
q11 27 27 49q26 36 67 36q40 0 88 -27.5t112 -68.5zM211 -38q67 -3 139 14q-115 70 -163 70q-36 0 -51 -32l-10 -24q34 -27 85 -28z" />
    <glyph glyph-name="R" unicode="R" horiz-adv-x="752" 
d="M638 -112q-40 0 -68.5 32t-49.5 82t-37 103q-37 121 -31 144q-59 -79 -102 -131.5t-70 -78.5q-118 -114 -239 -114q-36 0 -59.5 15t-23.5 50q0 22 10 47.5t25 48.5t30 38q33 33 55 33q4 0 4 -2q0 -5 -15 -17q-35 -28 -58 -64.5t-23 -66.5q0 -56 79 -53q129 5 358 312
q13 17 22 24l-16 6q-13 -5 -21 -5q-21 0 -21 17q0 23 31 30q19 5 49 -17q39 44 75.5 84t66.5 65.5t48 25.5q24 0 24 -22q0 -9 -4.5 -18.5t-10.5 -9.5q-6 -1 -6 6q0 5 6 12v4q0 6 -4 9q-26 17 -160 -169q11 -1 23.5 -1.5t26.5 -0.5q232 0 290 120q12 26 12 48q0 44 -41 77
q-37 30 -97.5 40.5t-120.5 10.5q-133 0 -283 -73q-182 -89 -182 -209q0 -39 51 -39q47 0 106 38q51 34 70 69q7 13 13 13q7 0 4 -8q-19 -56 -85 -96q-64 -39 -132 -39q-81 0 -75 52q15 131 161 223q145 91 350 91q78 0 151.5 -14t119.5 -52q48 -40 48 -94q0 -23 -11 -50
q-17 -39 -52 -66.5t-81 -44.5t-97 -25t-99 -8q-26 0 -49.5 2t-43.5 6q6 -19 21 -69t38 -130q7 -22 19.5 -48t28.5 -49t34.5 -38t37.5 -15q42 0 70 85q5 20 11 20q5 0 9 -19q1 -3 1 -8q0 -26 -28 -64q-37 -55 -83 -55z" />
    <glyph glyph-name="S" unicode="S" horiz-adv-x="748" 
d="M279 -95q-41 0 -102 49q-43 7 -73.5 18.5t-50.5 27.5q-28 24 -49 64t-21 77q0 28 13 50q30 53 76 53q35 0 41 -59q7 -55 11.5 -87.5t7.5 -42.5q15 -49 51 -83q42 -9 91 -9q108 0 207 41q42 18 82 47t66 64t26 68q0 47 -83 73l-176 40q-54 12 -86.5 42.5t-32.5 69.5
q0 60 75 120q38 31 89 52.5t107.5 33t108.5 11.5q74 0 126.5 -23t65.5 -67q3 -10 3 -22q0 -61 -61 -85q-37 -15 -63 -15q-16 0 -25 6q-2 2 -2 5q0 7 28 8q17 1 28 3t16 4q38 20 38 59q0 20 -11 42q-31 57 -155 57q-45 0 -93 -9.5t-91 -28t-73 -46.5q-52 -48 -52 -86
q0 -29 28.5 -51.5t86.5 -33.5l118 -22q68 -13 110 -38.5t42 -77.5q0 -46 -23 -86t-61.5 -71.5t-87.5 -52.5q-111 -49 -262 -49q-19 0 -38 1t-37 3q14 -8 35.5 -16t49.5 -15q3 -1 3 -4q0 -9 -21 -9zM147 -18q-27 30 -42 62q-22 50 -33 123q-8 53 -17 53q-8 0 -21.5 -12
t-13.5 -51q0 -76 54 -132q27 -28 73 -43z" />
    <glyph glyph-name="T" unicode="T" horiz-adv-x="661" 
d="M169 -101q-79 0 -110 42t-31 124q0 110 64 216q-74 47 -74 139q0 111 98 197q110 97 284 97q55 0 97 -6.5t80.5 -19.5t82.5 -33t104 -48q146 -66 214 -66q33 0 57 15.5t24 38.5q0 15 -13 27q-7 10 -7 14q0 2 2 2q8 0 22 -17t14 -37q0 -22 -16.5 -38t-42 -24.5t-52.5 -8.5
q-75 0 -221 67q-54 25 -93 42.5t-72 29t-65.5 17t-72.5 5.5q-207 0 -326 -134q-13 -14 -25 -40.5t-19.5 -55.5t-7.5 -52q0 -58 41 -90q32 47 74.5 84.5t91.5 59.5t101 22q90 0 90 -70q0 -84 -99 -183q-98 -98 -182 -98q-54 0 -54 46q0 16 8.5 28t20.5 9q0 -5 -1 -12.5
t-1 -10.5q0 -15 46 -15q68 0 146 72q38 36 65.5 80t27.5 82q0 45 -58 45q-42 0 -84.5 -23t-80.5 -59.5t-69 -77.5q5 -2 13 -4t18 -4l60 -2q44 -2 44 -10q0 -14 -40 -14q-18 0 -34.5 1t-31.5 3q-11 2 -21.5 4.5t-20.5 6.5q-77 -118 -77 -217q0 -128 99 -128q112 0 233 156
l196 292q107 159 191 164l38 -9q18 -9 18 -36q0 -14 -10 -14q-3 0 -14.5 2.5t-17.5 2.5q-71 0 -177 -149l-199 -278q-128 -149 -245 -149z" />
    <glyph glyph-name="U" unicode="U" horiz-adv-x="801" 
d="M345 -19q-43 0 -43 29q0 52 145 257q59 83 96 136t52 76q61 94 61 128q0 19 -21.5 25t-47.5 6q-110 0 -281 -117q-45 -31 -90.5 -74.5t-83.5 -92.5t-61.5 -97.5t-23.5 -90.5q0 -34 18 -46.5t54 -12.5q51 0 105 33q27 16 68 53l18 6q-19 -36 -76 -71q-64 -39 -128 -39
q-47 0 -69.5 28t-22.5 69q0 157 296 369q39 28 90 52t104 39t97 15q23 0 45.5 -5.5t37 -18t14.5 -33.5q0 -30 -44 -100q-15 -24 -48.5 -71t-85.5 -118q-44 -59 -88 -134q-14 -24 -28.5 -51t-23.5 -50t-9 -37q0 -17 14 -17q27 0 101 56q176 134 414 435q38 48 61 48q9 0 9 -9
q0 -4 -3 -10q5 -24 -23 -63l-118 -167q-34 -47 -63.5 -93.5t-55.5 -90.5q-63 -106 -59 -122l18 6q18 10 45 30t42 35q13 10 16 10l2 -2q0 -9 -27 -38q-70 -61 -104 -61q-26 0 -26 19t40 92q36 67 82.5 141.5t102.5 157.5q-7 -9 -23 -27t-40 -44q-64 -65 -108 -109.5
t-69 -69.5q-92 -92 -118 -112q-73 -57 -136 -57z" />
    <glyph glyph-name="V" unicode="V" horiz-adv-x="690" 
d="M332 -71q-5 0 -5 10q0 33 56 168l34 78t33 78l46 135q11 34 17.5 58.5t6.5 40.5q0 70 -40 105.5t-106 35.5q-62 0 -122.5 -27.5t-110 -74.5t-79.5 -105q-43 -82 -43 -150q0 -47 23 -85t60 -52q26 -9 51 -9q35 0 65 15.5t48.5 43.5t18.5 63v8.5t-1 8.5q-4 12 6 12
q11 0 12 -16q1 -4 1.5 -8t0.5 -9q0 -36 -24 -67t-61.5 -50.5t-77.5 -19.5q-41 0 -79 20q-81 44 -81 153q0 78 42 151q38 66 99 115t134 76.5t145 27.5q50 0 90 -15.5t63.5 -47t23.5 -80.5q0 -93 -84 -279q-96 -211 -96 -237q0 -7 5 -5q26 17 235 268q107 128 181.5 207.5
t117.5 110.5q38 29 66 47.5t45 28.5q62 34 114 34q23 0 35.5 -4.5t12.5 -24.5q0 -13 -9 -13q-3 0 -14 4.5t-22 4.5q-53 0 -111 -31q-116 -62 -266 -222q-43 -46 -100.5 -114t-129.5 -159q-114 -144 -137 -157q-43 -25 -64.5 -35.5t-24.5 -10.5z" />
    <glyph glyph-name="W" unicode="W" horiz-adv-x="1135" 
d="M217 -112q-18 0 -18 23q0 22 18 56l193 278q89 128 132 210t43 116q0 16 -12 24t-28 11t-30 3q-85 0 -237 -104q-43 -29 -79 -65t-67 -77q-60 -82 -60 -138q0 -43 40 -52q15 -4 34 -4q36 0 72 18t70 46q26 22 30 22t3 -7q-6 -21 -29 -40t-55 -34.5t-64.5 -24t-57.5 -8.5
q-40 0 -70 20.5t-30 60.5q0 61 71 150q68 86 168 153q41 28 96 53.5t111 42t100 16.5q79 0 79 -52q0 -63 -95 -217q-67 -106 -177 -252q-91 -121 -92 -121q3 0 96 103q57 64 107.5 114.5t93.5 88.5q21 19 51 47.5l70 66.5q35 32 68.5 58t61.5 26q29 0 38 -14
q-92 -114 -172 -279q-57 -118 -57 -179q0 -36 19 -52t50 -16q34 0 71.5 19t74.5 49t69 63q115 116 183 251q53 106 53 169q0 6 -0.5 11t-1.5 9q-21 0 -45 22q-15 12 -15 25q0 12 10 20t23 8q19 0 28 -17q4 -8 16 -20q8 -8 7 -12q6 -9 20 -9t26.5 12t27.5 12q8 0 8 -6
q0 -11 -19 -21q-10 -7 -24 -9q-8 -1 -16 -1.5t-16 1.5q12 -40 12 -59q0 -80 -76 -207q-38 -64 -87 -121t-110 -107q-121 -102 -215 -102q-103 0 -103 96q0 45 19 102.5t45 114.5l72 157q-44 -34 -71.5 -55.5t-46 -36.5t-35 -30.5t-39.5 -37.5q-25 -25 -67 -71.5t-98 -115.5
l-116 -142q-10 -12 -23 -22t-26 -10z" />
    <glyph glyph-name="X" unicode="X" horiz-adv-x="640" 
d="M-73 -76q-94 0 -94 101q0 81 57 175q21 35 34 35q4 0 4 -5q0 -8 -7 -18q-55 -88 -55 -163q0 -45 21 -73.5t58 -28.5q80 0 265 133q69 50 140.5 108t144.5 125l16 14q23 100 23 169q0 64 -20.5 95t-73.5 31q-44 0 -90 -19.5t-87.5 -52t-71.5 -72.5q-63 -85 -63 -165
q0 -75 58 -75q32 0 79 29q14 9 12 10q1 0 1 -0.5v-0.5q2 -2 -8 -12q-40 -40 -105 -40q-42 0 -65 23t-19 64q12 133 133 232q112 91 230 91q72 0 104 -38.5t32 -115.5q0 -22 -3 -46.5t-8 -52.5q53 47 106.5 90.5t105.5 83.5q123 94 165 106q34 10 54 10q13 0 23 -6.5
t10 -12.5q0 -8 -26 -8q-67 0 -243 -142q-58 -47 -110 -93.5t-96 -90.5q-7 -21 -21 -69q-22 -79 -32.5 -132t-10.5 -80q0 -29 17 -29q41 0 144 102q17 17 17 6q0 -29 -75 -85q-30 -22 -64.5 -43.5t-59.5 -21.5q-33 0 -33 48q0 42 46 213l11 44q-112 -98 -208.5 -169
t-178.5 -115q-115 -63 -183 -63z" />
    <glyph glyph-name="Y" unicode="Y" horiz-adv-x="882" 
d="M336 -254q-25 0 -50.5 12t-43 32t-17.5 43q0 21 21 21q4 0 7.5 -0.5t7.5 -1.5q12 -43 25 -63.5t53 -20.5q62 0 135.5 85t166.5 251l180 321l-104 -111q-64 -68 -106 -111t-62 -63q-36 -36 -71 -67t-69.5 -50t-70.5 -19q-57 0 -57 67q0 80 68 165l50 60t50 61
q81 102 119 167q14 25 21.5 44t7.5 34q0 22 -19 32.5t-61 10.5q-106 0 -293 -128q-44 -29 -83 -71t-63 -88t-24 -89q0 -44 26.5 -63.5t65.5 -19.5q51 0 113 44q73 49 82 52q-10 -37 -79 -81q-76 -47 -142 -47q-52 0 -79 36t-27 84q0 136 199 278q40 29 96.5 54t115.5 40.5
t106 15.5q44 0 76 -17t32 -55q0 -46 -59 -137q-25 -39 -68.5 -96t-105.5 -131q-25 -29 -46 -76q-21 -46 -21 -74q0 -27 21 -27q22 0 65 31q122 87 251 219q114 116 171 200q41 59 87 59q16 0 16 -10q0 -2 -0.5 -4t-1.5 -4q-53 -93 -138.5 -239t-204.5 -345q-33 -54 -77 -102
t-93 -78t-99 -30z" />
    <glyph glyph-name="Z" unicode="Z" horiz-adv-x="739" 
d="M611 -118q-5 0 -5 5q0 12 13 24q10 9 10 18q0 15 -19.5 27.5t-51.5 23t-69 18t-72.5 12t-62.5 4.5q-35 1 -83 -3t-109 -13t-108.5 -13.5t-81.5 -3.5q-16 -14 -20 -14q-2 0 -2 3q0 4 6 14q-36 2 -37 18q-1 17 15 33q17 17 29 17q2 0 4 -2q5 -8 43 -14q253 264 725 523
l-30 6q-37 8 -79 12t-90 4q-126 0 -209 -30q-17 -4 -38.5 -14t-39.5 -23t-27 -27q-10 -18 -6 -39q4 -17 -1 -19.5t-10 -2.5q-11 0 -19.5 14t-8.5 34q0 12 5 29q19 64 123 94q53 15 156 15q72 0 139 -5.5t129 -16.5q15 -1 50 -9l55 30q8 4 25 4q37 0 37 -10q0 -4 -9 -7
q-5 -4 -18 -11t-33 -18l39 -3q23 -1 33.5 4t7.5 21q-2 5 2 5q5 0 14 -13t9 -25q0 -25 -33 -25q-1 0 -27.5 4l-79.5 12q-80 -46 -170 -102.5t-190 -124.5q-121 -83 -216 -157t-165 -139q59 7 137 15t174 16q47 3 102.5 0t105.5 -13t81.5 -28t31.5 -46q0 -24 -29 -53
q-38 -35 -52 -35z" />
    <glyph glyph-name="bracketleft" unicode="[" horiz-adv-x="585" 
d="M156 -17q-54 0 -93.5 9t-39.5 27q0 120 129 367q131 248 228 315q13 8 42.5 12.5t49.5 4.5q101 0 101 -21v-3t-1 -10q-3 -1 -6.5 -1h-7.5q-12 0 -36 2t-36 2q-44 0 -55 -7q-21 -13 -61 -60t-83.5 -114t-90.5 -155q-109 -200 -109 -291q0 -56 77 -56q13 0 38 2.5t37 2.5
q29 0 29 -12q0 -14 -112 -14z" />
    <glyph glyph-name="backslash" unicode="\" horiz-adv-x="551" 
d="M571 -124q-14 0 -21 10q-4 8 0 9q11 7 10.5 24t-5.5 33q-32 84 -220 337q-80 107 -154 199.5t-142 171.5q-16 19 -4 30q8 8 19 8q24 0 251 -302q230 -309 261 -394q22 -60 22 -97q0 -29 -17 -29z" />
    <glyph glyph-name="bracketright" unicode="]" horiz-adv-x="556" 
d="M124 -17q-101 0 -101 21v3t1 10q3 1 6.5 1h7.5q12 0 36 -2t36 -2q44 0 55 7q21 13 61 60t83.5 114t90.5 155q109 200 109 291q0 56 -77 56q-13 0 -38 -2.5t-37 -2.5q-29 0 -29 12q0 14 112 14q54 0 93.5 -9t39.5 -27q0 -119 -129 -367q-130 -247 -228 -315
q-13 -8 -42.5 -12.5t-49.5 -4.5z" />
    <glyph glyph-name="asciicircum" unicode="^" horiz-adv-x="370" 
d="M332 324q-23 2 -75 35q-26 17 -44 30t-27 23q-100 -84 -114 -84q-8 0 -8 10q0 11 61 60q62 52 75 53l6 -2q38 -42 125 -108l5 -10z" />
    <glyph glyph-name="underscore" unicode="_" horiz-adv-x="806" 
d="M25 -73q-17 0 -17 29q0 19 17 19h740q25 0 28 -28l-7 -7q-140 0 -282 -1.5t-285 -5.5q-6 0 -32.5 -1t-60.5 -2t-62.5 -2t-38.5 -1z" />
    <glyph glyph-name="grave" unicode="`" horiz-adv-x="221" 
d="M166 300q-5 0 -57 31q-26 16 -42 26t-21 14q-9 6 -9 18q0 13 10 13q6 0 17 -8q20 -14 46 -34.5t59 -47.5q4 -3 4 -7q0 -5 -7 -5z" />
    <glyph glyph-name="a" unicode="a" horiz-adv-x="412" 
d="M67 -5q-24 0 -48 17t-27 40q-10 77 97 183q106 106 191 106q23 0 36 -11q7 -7 10.5 -19t5.5 -12q4 0 7 1.5t7 1.5q12 0 21 -9t10 -16q1 -2 -64 -99q-65 -95 -59 -129q5 -23 22 -23q52 0 190 172q3 4 6 4q5 0 5 -7q0 -8 -9 -20q-127 -171 -195 -171q-9 0 -17 3
q-44 17 -44 66q0 17 4 34l-62 -60q-28 -28 -50.5 -40t-36.5 -12zM58 17q58 0 158 127l106 146q-8 14 -26 14q-61 0 -165 -98q-108 -100 -97 -165q5 -24 24 -24z" />
    <glyph glyph-name="b" unicode="b" horiz-adv-x="365" 
d="M48 -1q-53 0 -53 80q0 63 116 230q119 171 181 171q12 0 23 -7.5t11 -19.5q0 1 -73 -78q-42 -46 -76 -86t-60 -75q-73 -100 -73 -146q0 -13 7.5 -26.5t20.5 -13.5q23 0 49 18t50 45t41 55.5t23 50.5q-7 21 -7 52q0 75 51 67q10 -1 13.5 -10t3.5 -21q0 -25 -7.5 -50
t-11.5 -42q4 -23 18.5 -46.5t36.5 -23.5t51 32q6 7 12 7q5 0 6 -7q0 -6 -8 -17q-31 -37 -65 -37q-49 0 -79 72q-19 -44 -52 -84t-71.5 -65t-77.5 -25z" />
    <glyph glyph-name="c" unicode="c" horiz-adv-x="283" 
d="M76 -13q-32 0 -58 20.5t-26 54.5q0 71 87 162q89 92 159 92q24 0 38 -12.5t14 -30.5q0 -25 -12 -46q-14 -26 -40 -26t-26 16q0 11 13 33q14 23 14 24q0 2 -3 2q-28 -3 -78 -41q-22 -17 -38.5 -32t-26.5 -29l-39 -57q-6 -9 -12.5 -31t-6.5 -33q0 -20 13.5 -33t34.5 -13
q50 0 132 65q66 52 106 105q5 6 12 6t7 -4q0 -3 -5 -10q-55 -73 -129 -126q-79 -56 -130 -56z" />
    <glyph glyph-name="d" unicode="d" horiz-adv-x="467" 
d="M67 -5q-30 0 -51 16.5t-24 40.5q-4 32 9.5 64.5t37 62.5t50.5 56q106 106 191 106q29 0 39 -15q4 -5 9 -23q112 182 156 182q10 0 21 -5t11 -13q0 -5 -5 -13q-30 -37 -60 -73.5t-59 -73.5q-49 -62 -79 -108t-43 -78q-4 -10 -7.5 -24.5t-3.5 -29.5q0 -19 8 -33t29 -14
q33 0 81 32t112 105q4 4 7.5 7t7.5 4q9 2 9 -4q0 -3 -6 -11q-31 -37 -69 -73t-77.5 -59.5t-73.5 -23.5t-48 23t-14 52q0 30 11 55l-81 -81q-27 -27 -49.5 -39t-38.5 -12zM58 17q43 0 143 118q5 6 35 44.5t85 112.5q-7 12 -24 12q-62 0 -166 -98q-98 -91 -98 -153
q0 -36 25 -36z" />
    <glyph glyph-name="e" unicode="e" horiz-adv-x="257" 
d="M51 -13q-32 0 -58 20.5t-26 54.5q0 71 87 162q89 92 159 92q23 0 37.5 -12.5t14.5 -30.5q0 -56 -89 -110q-79 -48 -133 -48q-8 0 -14 2q-15 -27 -15 -57q0 -52 49 -52q50 0 129 67q61 49 104 104q9 12 16 12q6 0 6 -6t-8 -17q-28 -37 -60 -68t-69 -57q-77 -56 -130 -56z
M57 137q38 0 99 38q20 14 39.5 31.5t32 35.5t12.5 32q0 13 -21 13q-30 0 -84 -45q-26 -22 -50 -48t-41 -55q6 -2 13 -2z" />
    <glyph glyph-name="f" unicode="f" horiz-adv-x="242" 
d="M-170 -205q-30 0 -51 25t-22 54q3 12 9 12t7 -15.5t16 -30.5t30 -15q85 0 155 105q19 28 47 81.5t62 134.5l54 130q-100 1 -100 24q0 11 10 17.5t16 6.5v0v0q1 0 25 -0.5t69 -1.5q98 218 180 218q32 0 63 -30q8 -8 8 -21q0 -31 -18 -31q-5 0 -10 8q-4 7 -13 11.5t-17 4.5
q-30 0 -52.5 -22.5t-42 -58.5t-41.5 -79h12q109 0 145 3q4 -1 4 -4q0 -8 -71 -22q-28 -4 -55 -9t-55 -10q-13 -28 -32 -66.5t-43 -85.5q-47 -88 -77 -140t-42 -69q-87 -124 -170 -124z" />
    <glyph glyph-name="g" unicode="g" horiz-adv-x="370" 
d="M-11 -205q-30 0 -51 25t-22 54q3 12 9 12t7 -15.5t16 -30.5t29 -15q58 0 122 75q23 27 47.5 63.5t47.5 82.5l50 99l-75 -76q-35 -35 -60.5 -52t-39.5 -17q-24 0 -48 17.5t-27 40.5q-10 77 97 183q107 105 191 105q23 0 36 -11q7 -6 10.5 -18t5.5 -12q4 0 7 1.5t7 1.5
q13 0 21.5 -9t5.5 -18q-1 -9 -29 -54q-18 -30 -41 -72.5t-48.5 -88t-49.5 -85t-43 -64.5q-92 -122 -175 -122zM60 23q58 0 158 127l106 146q-6 14 -25 14q-62 0 -166 -98q-108 -102 -97 -165q5 -24 24 -24z" />
    <glyph glyph-name="h" unicode="h" horiz-adv-x="376" 
d="M-27 -5q-29 0 -29 17q0 10 12 32q46 82 82.5 145.5t64.5 107.5q119 191 168 207q2 0 3 0.5t2 0.5q13 0 17 -21q-3 -21 -104 -152q-53 -67 -82.5 -110.5t-36.5 -63.5q33 24 71 51t74 51.5t65 40t45 17.5q2 0 5 0.5t4 0.5q28 0 28 -26q0 -7 -18 -31t-55 -74
q-66 -88 -66 -132q0 -23 17 -23q18 1 41.5 16t47.5 37t43.5 43.5t29.5 33.5q9 9 14 9q4 0 4 -4q0 -8 -8 -19q-12 -15 -35.5 -39t-51 -48.5t-52 -41t-36.5 -16.5q-59 0 -59 69q0 39 36 102q14 24 29 48l30 48q-128 -64 -232 -189q-13 -18 -27 -38.5t-25 -34.5t-16 -14z" />
    <glyph glyph-name="i" unicode="i" horiz-adv-x="226" 
d="M221 344q-17 0 -29.5 11t-12.5 25q0 28 38 28q14 0 28 -9.5t14 -23.5q0 -12 -13 -21.5t-25 -9.5zM36 -11q-22 0 -36.5 14.5t-14.5 51.5q0 21 9.5 48.5t24 55.5t28.5 50q56 91 92 92q9 0 22 -7.5t13 -16.5l-76 -98q-75 -97 -75 -138q0 -32 25 -32q16 0 41.5 13.5
t53.5 34.5t53.5 45t41.5 44q10 13 17.5 18t9.5 5q4 0 4 -6q0 -5 -11.5 -20t-31.5 -35q-24 -24 -53 -52t-63 -47.5t-74 -19.5z" />
    <glyph glyph-name="j" unicode="j" horiz-adv-x="201" 
d="M208 346q-17 0 -29.5 10.5t-12.5 24.5q0 29 38 29q14 0 28 -10t14 -24q0 -12 -13 -21t-25 -9zM-184 -205q-30 0 -55 19q-26 20 -26 40q0 19 9 19q1 0 20 -25q20 -26 46 -26q80 0 182 181q31 56 52.5 101.5t33.5 81.5q-9 -10 -26 -26.5t-32.5 -29t-22.5 -12.5q-3 0 -3 3
q0 9 13 21q19 16 45 53q29 41 33 45l33 35q20 19 40 19q27 0 27 -22q0 -4 -35 -66l-44 -76q-77 -147 -119 -205q-91 -130 -171 -130z" />
    <glyph glyph-name="k" unicode="k" horiz-adv-x="394" 
d="M205 -12q-33 0 -58.5 19t-44 48t-31.5 58q-7 -9 -14.5 -23t-17.5 -33l-31 -62q-36 14 -36 38q0 43 131 239q127 190 175 224q5 3 16 3q31 0 31 -16q0 -3 -14 -21.5t-35 -44.5t-42.5 -52.5t-37.5 -46t-18 -24.5q91 47 145 47q21 0 38.5 -12t27.5 -29t8 -33q-8 -57 -80 -94
q-58 -31 -106 -31q-52 0 -72 13q-6 1 -9.5 -2.5t-1.5 -10.5q28 -124 93 -124q32 0 85.5 37t113.5 108q7 7 13 7q5 0 5 -6q0 -5 -7 -15q-29 -35 -67.5 -72.5t-79.5 -63t-79 -25.5zM147 168q45 0 118 37q84 42 84 89q0 8 -9 16t-19 8q-54 0 -126 -42q-79 -48 -96 -105
q11 0 28.5 -1.5t19.5 -1.5z" />
    <glyph glyph-name="l" unicode="l" horiz-adv-x="243" 
d="M76 -2q-29 0 -54 14.5t-25 48.5q0 47 33.5 112t76.5 135q117 190 166 190q10 0 20.5 -7.5t11.5 -16.5l-70 -94q-41 -55 -74 -101.5t-57 -83.5q-12 -19 -27 -43t-26.5 -49.5t-11.5 -51.5q0 -12 7 -21.5t25 -9.5q32 0 84 34.5t103 95.5q5 6 11 11t10 5q5 0 5 -6
q0 -3 -6.5 -11.5t-10.5 -13.5l-24 -27q-20 -22 -47.5 -48t-58 -44t-61.5 -18z" />
    <glyph glyph-name="m" unicode="m" horiz-adv-x="631" 
d="M236 -2q-24 0 -24 27q11 56 45 126q16 34 32.5 67t32.5 67q-37 -25 -74 -55.5t-72 -68.5q-41 -44 -95 -113q-39 -49 -45 -49q-14 0 -23 13t-9 22q0 13 23 67q7 17 14.5 33.5t14.5 32.5l-60 -63l-12 -12t-16 -10q-5 0 -5 7q0 2 1.5 5.5t6.5 8.5q15 15 31 32t33 39
q13 17 37.5 50.5t60.5 84.5q11 15 31 15t20 -19q0 -7 -51 -93q-26 -46 -41.5 -75t-19.5 -43q22 24 52.5 54t70.5 67q123 114 162 114q11 0 21.5 -7t10.5 -18q0 -5 -39 -73q-38 -69 -42 -82q111 93 111 94q94 73 135 73q12 0 22.5 -7.5t10.5 -17.5q0 -2 -64 -84
q-66 -83 -74 -136q-4 -36 37 -36q25 0 70 32t94 88q6 7 13 13.5t12 6.5q6 0 6 -5q0 -7 -9 -16q-26 -31 -61.5 -64t-70.5 -55.5t-62 -22.5q-68 0 -68 63q0 22 12 51.5t24 53.5q29 56 63 99q-32 -16 -66.5 -42t-71.5 -61q-86 -84 -118 -170q-5 -8 -17 -8z" />
    <glyph glyph-name="n" unicode="n" horiz-adv-x="403" 
d="M255 -2q-27 0 -38 15.5t-11 38.5q0 58 40 124l64 104q-68 -50 -135 -125q-18 -20 -40.5 -47t-49.5 -62q-36 -47 -43 -47q-14 0 -23 12.5t-9 22.5q0 8 5 29.5t12 37.5q7 17 14.5 33.5t14.5 32.5l-60 -63l-12 -12t-16 -10q-5 0 -5 7q0 2 1.5 5.5t6.5 8.5q15 15 31 32t33 39
q9 11 27 33.5t39.5 48.5t40.5 48q5 7 11 9.5t8 2.5q27 0 27 -21q0 -6 -3 -12q-90 -124 -108 -189q116 116 186.5 174.5t100.5 58.5q16 0 24.5 -5t8.5 -19q0 -5 -1 -8q-3 -7 -41 -56q-23 -28 -40.5 -51t-28.5 -40q-18 -28 -27 -52.5t-9 -41.5q0 -7 2 -17t12 -10q23 0 72 40
q23 20 43 40.5t38 40.5q4 4 13 15.5t11 11.5q4 0 4 -8q0 -4 -4.5 -13.5t-9.5 -14.5q-11 -13 -32.5 -36t-48 -47t-51.5 -41t-44 -17z" />
    <glyph glyph-name="o" unicode="o" horiz-adv-x="281" 
d="M43 -2q-25 0 -39 23.5t-14 45.5q0 60 87 168q88 109 142 109q51 0 51 -54q0 -8 -1.5 -17t-3.5 -19q2 -3 10 -3q27 0 64 19q-1 -17 -79 -49q11 -33 -66 -126q-79 -97 -135 -97h-16zM61 28q43 0 110 79q65 77 65 111q-16 9 -40 46q-34 0 -98 -82q-63 -80 -61 -123
q1 -31 24 -31z" />
    <glyph glyph-name="p" unicode="p" horiz-adv-x="377" 
d="M-58 -189q-42 23 -42 87q0 69 113 236q108 161 150 174q4 1 7 1.5t6 0.5q17 0 17 -37q7 7 24.5 13.5t36 10.5t27.5 5q41 2 68.5 -19.5t27.5 -56.5q0 -81 -97 -157q-88 -69 -156 -69q-45 0 -62 5q-24 7 -49 37q-11 -9 -24 -30.5t-24.5 -47t-19 -50.5t-7.5 -42t6.5 -28.5
t12.5 -21.5q0 -1 0.5 -1.5l0.5 -0.5q0 -5 -5.5 -8.5t-10.5 -0.5zM111 28q56 0 129 57q86 68 86 151q0 38 -47 38q-43 0 -80 -19q-10 -4 -32.5 -26t-59.5 -60q-79 -82 -79 -105q0 -18 33 -29q22 -7 50 -7z" />
    <glyph glyph-name="q" unicode="q" horiz-adv-x="332" 
d="M104 -242q-52 0 -52 77q0 47 25 106l46 107q-65 -44 -102 -44q-49 0 -49 54q0 42 53 104q47 53 93 78q110 61 179 61q22 0 27 -17v-32l12 -9q5 -5 5 -7q0 -3 -3 -8l-79 -75q-37 -37 -63 -72.5t-40 -68.5q6 2 32 2q28 0 43 -23t15 -47q0 -48 -42 -113q-46 -73 -100 -73z
M26 24q50 0 134 87l126 134q-1 6 -13 6q-50 0 -148 -63q-31 -20 -59 -45t-46 -51t-18 -50q0 -18 24 -18zM113 -222q37 0 68 69q12 28 18.5 50.5t6.5 38.5q0 35 -16 45q-12 9 -44 10q-19 -30 -40 -82q-23 -60 -23 -88q0 -12 8.5 -27.5t21.5 -15.5z" />
    <glyph glyph-name="r" unicode="r" horiz-adv-x="394" 
d="M204 -5q-43 0 -59 22.5t-16 60.5q0 42 26 100q10 23 21 41.5t23 34.5q-4 -1 -7 -1h-6q-24 0 -40 34l-74 -96q-59 -77 -72 -77q-5 0 -5 4q0 5 5 13q3 6 12 16q38 44 70 87t53 84q23 87 58 87q23 0 23 -21q0 -19 -25 -50q-24 -31 -24 -32q0 -21 31 -21q18 0 40 13l26 16
q2 1 6 1q12 0 21 -10t6 -18l-69 -87q-64 -82 -64 -132q0 -45 44 -45q30 0 64.5 18t67 44.5t54.5 51.5l24 28l5 5t5 3q7 0 7 -7q0 -2 -2 -7t-7 -11l-32 -36q-23 -26 -56.5 -52.5t-69 -43.5t-64.5 -17z" />
    <glyph glyph-name="s" unicode="s" horiz-adv-x="359" 
d="M115 -2q-47 0 -69.5 31t-36.5 86q-18 -18 -25 -18q-5 0 -5 8q0 6 5 11l25.5 31t86.5 87l126 118q26 25 41.5 38t22.5 13q32 0 32 -24q0 -12 -13 -28q-10 -12 -14.5 -18.5t-5.5 -7.5q-18 -31 -33 -111q-11 -59 -19 -97t-13 -55q42 1 83 26t88 82l6 6t8 4q6 0 6 -5t-3 -10
t-6 -9q-31 -37 -58 -60.5t-57 -37t-71 -22.5l-32 -21q-13 -9 -31 -13t-38 -4zM127 49q23 0 38 11q11 6 21.5 33.5t20.5 68.5q8 35 12.5 68.5t8.5 64.5l4 34q-23 -17 -58 -49t-69 -67t-44 -51.5t-11 -24.5q-4 -40 19.5 -64t57.5 -24z" />
    <glyph glyph-name="t" unicode="t" horiz-adv-x="297" 
d="M62 -6q-32 0 -50.5 15.5t-18.5 55.5q0 23 14 58.5t35 76.5t42 81q-13 -3 -23 -3q-30 0 -30 23q0 11 8.5 17t15.5 7h2.5t6.5 1h58q18 23 37 49q27 34 43 40h3q7 0 20 -7q16 -9 16 -18q0 -13 -48 -67q9 -1 26 -1h42h34.5t47 0.5t42.5 1t20 0.5q3 -1 3 -3q0 -9 -118 -24
q-67 -9 -102.5 -14t-38.5 -6q-14 -12 -34 -41t-40 -65t-33.5 -68.5t-13.5 -50.5q0 -16 12 -26.5t39 -10.5q18 0 43 8t47.5 18.5t32.5 16.5q26 16 57.5 42.5t62.5 60.5q14 14 19 14q3 0 3 -4q0 -8 -15 -26q-24 -29 -53.5 -55.5t-65.5 -48.5q-41 -25 -78.5 -36t-69.5 -11z" />
    <glyph glyph-name="u" unicode="u" horiz-adv-x="425" 
d="M47 -11q-45 0 -45 57q0 22 13.5 52.5t38.5 64.5l-18 -17t-41 -43q-4 -4 -10 -4q-4 0 -4 5t9 17l138 162q26 30 57 30q23 0 23 -18q0 -7 -6 -13q-19 -18 -46.5 -51t-53.5 -71t-43.5 -72.5t-17.5 -55.5q0 -18 12 -18q7 0 22 5.5t40 23t60 54.5q6 6 32 36t70 86
q78 97 102 97q33 0 36 -27q2 -9 -42 -59q-57 -69 -78 -99q-39 -57 -39 -89q0 -22 15 -22t38.5 14.5t49.5 37t50.5 47t42.5 45.5q6 7 12 7t6 -6q0 -2 -1 -6t-6 -9q-16 -18 -41 -44.5t-54 -52.5t-56 -43t-46 -17q-23 0 -40 12.5t-17 34.5t7 44.5t11 38.5q-47 -55 -82.5 -84
t-59.5 -39.5t-38 -10.5z" />
    <glyph glyph-name="v" unicode="v" horiz-adv-x="301" 
d="M33 -3q-6 0 -17 5.5t-20 13t-10 13.5q-1 8 10.5 45.5t36.5 102.5q25 66 42 102t25 43q4 4 11 4q11 0 21 -9.5t11 -22.5q0 -1 -50 -118q-49 -113 -46 -135q44 14 147 99q62 52 89.5 94.5t27.5 76.5q0 20 -9.5 36.5t-34.5 27.5q-7 3 -7 9q0 9 11 9q29 0 50.5 -19t21.5 -57
q0 -40 -34 -90.5t-97 -107.5q-55 -49 -99.5 -80t-79.5 -42z" />
    <glyph glyph-name="w" unicode="w" horiz-adv-x="449" 
d="M26 -2q-10 0 -27 11q-18 11 -18 21q0 24 59 154q63 139 93 139q12 0 20.5 -11t8.5 -18q0 -3 -55 -100q-54 -98 -53 -118q26 31 51 61t50 61q97 112 127 112q11 0 21.5 -9.5t10.5 -18.5q0 -6 -25 -38q-29 -40 -49.5 -76t-20.5 -73q0 -63 42 -63q37 0 62.5 19t52.5 69
q20 37 30.5 69.5t10.5 57.5q0 22 -3.5 37t-9.5 25q-2 2 -2 5q0 6 6 6t13.5 -3.5t14.5 -18.5q5 -8 8.5 -30t3.5 -36q0 -72 -61 -145q-64 -78 -138 -78q-25 0 -42.5 16.5t-26.5 41t-9 48.5q0 34 16 86q-13 -13 -33.5 -36.5t-46.5 -56.5q-29 -37 -49.5 -64t-31.5 -46z" />
    <glyph glyph-name="x" unicode="x" horiz-adv-x="427" 
d="M-18 -102q-12 0 -12 11q0 3 2 5q93 147 201 258q1 24 2 62.5t3 91.5q-11 -2 -37 -33.5t-61 -82.5q-34 -50 -63.5 -83t-33.5 -36q-7 -6 -13 -6q-5 0 -5 5q0 4 3.5 8.5t16.5 18.5q18 20 31 35.5t25.5 33.5t29.5 44q11 16 27.5 40.5t34 47.5t30.5 34q10 9 21.5 13t21.5 4
q12 0 22.5 -5t7.5 -22q0 -1 -4.5 -31.5t-8.5 -89.5q19 18 75.5 67.5t145.5 125.5q2 2 5 2q7 0 15 -8.5t8 -17.5q0 -8 -8 -16q-31 -25 -120 -90q-40 -28 -71.5 -54t-51.5 -45q-1 -10 -1 -20v-19q0 -62 12.5 -92.5t40.5 -30.5q31 0 78.5 39.5t97.5 97.5q10 10 15 10t5 -6
q0 -2 -1.5 -6t-6.5 -10q-32 -37 -69.5 -75t-75.5 -63.5t-73 -25.5q-30 0 -45 22.5t-19.5 57.5t-5.5 73q-122 -130 -183 -235q-3 -4 -8 -4z" />
    <glyph glyph-name="y" unicode="y" horiz-adv-x="370" 
d="M23 -205q-32 0 -56 27q-24 28 -23 62q12 -15 32 -35q26 -25 51 -25q57 0 123 91q23 32 47.5 74.5t46.5 94.5l38 92l-147 -115q-68 -53 -109 -53q-22 0 -35 16t-13 33q0 43 74 141q74 99 111 99q31 0 31 -23q0 -9 -89 -104q-88 -94 -88 -127q0 -13 17 -13q32 0 139 83
q44 35 78 64t57 52q8 10 16 19.5t15 19.5q19 22 38 22q27 0 27 -22q0 -4 -42 -66q-22 -34 -35 -52.5t-15 -23.5q-31 -60 -95 -175q-97 -156 -194 -156z" />
    <glyph glyph-name="z" unicode="z" horiz-adv-x="386" 
d="M231 -22q-29 0 -57.5 6t-51.5 19q-7 4 -20.5 13t-34.5 25q-16 -11 -30 -19.5t-27 -8.5q-23 0 -23 25q0 8 5.5 21.5t12.5 13.5q5 0 5 -7q0 -5 -1 -8q0 -1 -0.5 -2.5t-0.5 -2.5q0 -10 10 -10q13 0 29 12l-38 29q-2 2 -2 5q0 7 10 16.5t18 9.5q3 0 46 -34q40 45 83 89
q32 34 56.5 58t42.5 37q-79 24 -117 24q-24 0 -39 -10.5t-15 -26.5q0 -13 14 -24q8 -6 8 -10q0 -6 -5 -6q-10 0 -27 20q-16 20 -16 41t15.5 32t38.5 15t45 4q32 0 70 -12t75 -24q14 8 30 8q42 0 42 -25q0 -10 -12.5 -18.5t-30.5 -8.5q-19 0 -34 7q-94 -58 -204 -186l36 -28
q23 -17 50.5 -22.5t54.5 -5.5q44 0 75 16t31 48q0 13 -4 22q-2 6 -2 7q0 7 10 7q5 0 7 -5q8 -18 8 -34q0 -40 -37.5 -66t-98.5 -26z" />
    <glyph glyph-name="braceleft" unicode="{" horiz-adv-x="323" 
d="M203 -122q-56 0 -84 14q-39 20 -39 74q0 31 9 68.5t18 75.5t9 69q0 78 -107 80l11 16q45 5 73.5 16t45.5 35t26 67l22 123q15 62 49 90q43 35 128 34h2q7 0 11 -9l-13 -5q-77 0 -108 -43q-21 -29 -35 -109q-2 -14 -6.5 -34.5t-11.5 -48.5q-33 -106 -116 -126
q66 -24 66 -91q0 -30 -8.5 -67t-16.5 -75t-8 -70q0 -46 28 -58l65 -12l9 -8q-13 -6 -19 -6z" />
    <glyph glyph-name="bar" unicode="|" horiz-adv-x="219" 
d="M52 -102q-1 0 -1 1q0 4 9.5 43t25.5 117q9 55 16.5 121.5t12 135.5t4.5 129q0 32 -1 61t-5 52l-7 29q-5 20 -5 29q0 10 17 10q40 0 40 -86q0 -27 -3.5 -79.5t-9.5 -119t-14 -136t-17.5 -131t-19 -104.5t-18.5 -55q-12 -17 -24 -17z" />
    <glyph glyph-name="braceright" unicode="}" horiz-adv-x="425" 
d="M26 -120q-6 0 -11 9q11 5 51 9q68 5 96 72l39 122q25 79 58 109q21 20 45.5 34t52.5 22q-73 18 -73 79q0 42 25 116t25 115q0 37 -27 46l-59 9l-8 7l14 8q53 0 78 -9q44 -15 44 -61q0 -43 -28 -120q-27 -76 -27 -118q0 -35 28 -48t72 -18l-13 -17q-87 -2 -125 -53
q-22 -31 -48 -127q-22 -89 -54 -127q-50 -59 -155 -59z" />
    <glyph glyph-name="asciitilde" unicode="~" horiz-adv-x="303" 
d="M202 396q-15 0 -33.5 7t-35.5 13.5t-30 6.5q-17 0 -33 -13t-21 -13q-1 1 -1 3q0 15 42 40q16 10 37 10q20 0 46.5 -10.5t48.5 -10.5q25 0 41 22q6 0 6 -4q0 -15 -39 -42q-13 -9 -28 -9z" />
    <glyph glyph-name="uni00A0" unicode="&#xa0;" horiz-adv-x="198" 
 />
    <glyph glyph-name="exclamdown" unicode="&#xa1;" horiz-adv-x="295" 
d="M214 166q-14 0 -28 10t-14 24q0 12 13.5 21t24.5 9q17 0 29.5 -10.5t12.5 -24.5q0 -29 -38 -29zM-9 -215q-12 0 -24 4q-17 5 -17 13q0 3 4 7q21 22 51.5 59.5t70.5 90.5q81 104 93 134q10 22 21 22q7 0 4 -19q-12 -67 -93 -189t-110 -122z" />
    <glyph glyph-name="cent" unicode="&#xa2;" horiz-adv-x="295" 
d="M35 -42q-10 0 -10 7q0 3 1.5 10.5t3.5 18.5q19 99 54 146q-24 17 -24 55q0 42 47 92q48 52 89 47q5 11 16.5 30t27.5 47q19 32 30 49t14 19q7 5 12 5q11 0 11 -7q0 -3 -1 -4q-16 -23 -39.5 -59.5t-53.5 -86.5q5 -5 5 -13q0 -9 -12 -30q-12 -20 -20 -20q-3 0 -3 4t3 11.5
t3 11.5q0 17 -22 17q-30 0 -53 -38t-23 -69q0 -51 45 -51q55 0 118 78q7 10 14 10q3 0 3 -3q0 -12 -37 -46q-31 -28 -55.5 -44t-56.5 -16q-4 0 -8 0.5t-8 1.5q-34 -45 -68 -171q-2 -2 -3 -2z" />
    <glyph glyph-name="sterling" unicode="&#xa3;" horiz-adv-x="881" 
d="M686 -76q-66 0 -155 26t-175 71q-77 -49 -145 -49q-41 0 -81 19.5t-66 52.5t-26 73q0 37 43 37q61 0 275 -108q35 42 68 110t64 160h-161q-12 0 -12 8q0 23 24 23h160q36 107 74.5 191t75.5 127q36 41 67 53.5t60 12.5q38 0 62 -24.5t24 -64.5q0 -98 -109 -150
q-7 -4 -13 -4q-5 0 -5 5q0 11 17 24q5 3 11 8.5t15 12.5q53 49 53 115q0 25 -15 36t-32 11q-25 0 -47 -15.5t-41.5 -40t-35 -50.5t-27.5 -47q-15 -25 -37.5 -75.5t-53.5 -124.5h172q8 0 8 -7q0 -24 -29 -24h-163q-24 -58 -48 -113t-49.5 -98.5t-52.5 -68.5q35 -21 86.5 -38
t103.5 -26.5t90 -9.5q42 0 84 9t70 29.5t28 53.5q0 20 -19 39q-18 18 -18 23q0 6 5 6q4 0 8 -4q23 -16 40 -37.5t17 -41.5q0 -36 -17.5 -58.5t-45.5 -34.5t-61 -17t-65 -5zM219 -3q61 0 105 31q-13 10 -41 24t-61 27t-62 21.5t-44 8.5q-13 0 -13 -8q0 -29 16.5 -52.5
t43 -37.5t56.5 -14z" />
    <glyph glyph-name="currency" unicode="&#xa4;" horiz-adv-x="518" 
d="M49 233l102 96q-35 22 -35 65q0 35 18.5 63t48.5 46l-53 81l29 9q2 -6 12.5 -29.5t26.5 -52.5q39 17 84 17q35 0 60 -12q28 27 47.5 48t24.5 27l23 -9q-7 -7 -30.5 -27t-52.5 -47q29 -21 29 -61t-22.5 -70t-57.5 -47q22 -35 40.5 -63t22.5 -33h-33q-2 7 -15.5 31.5
t-32.5 56.5q-29 -10 -64 -10t-58 11l-82 -90h-32zM233 341q52 0 82 29.5t30 67.5q0 27 -17 46t-55 19q-52 0 -85 -26.5t-33 -67.5q0 -28 19.5 -48t58.5 -20z" />
    <glyph glyph-name="yen" unicode="&#xa5;" horiz-adv-x="549" 
d="M190 -62q-49 0 -31 71q8 28 26 67.5t39 78.5q-58 2 -90 1.5t-31 7.5q7 24 31 24h106l55 86q-61 1 -95.5 0t-31.5 10t10 17.5t20 6.5h115q37 67 61.5 113.5t39.5 81.5t23 66q11 43 -2.5 61.5t-41.5 18.5q-30 0 -69 -18.5t-77.5 -46t-69.5 -56t-46 -48.5q-7 -9 -11 -3
t-2 20.5t13 28.5q29 36 73.5 69.5t95.5 54.5t98 21q53 0 74 -25t4 -92q-10 -37 -32.5 -85t-62.5 -113l-28 -48h6q77 81 135.5 129.5t107.5 87.5q93 76 170 115t129 39q31 0 46.5 -12t10.5 -30q-1 -1 -1.5 -3.5t-2.5 -2.5l-7 17q-9 16 -31 16q-25 0 -72 -23.5t-106 -63
t-120.5 -86.5t-116.5 -94.5t-93 -87.5l138 1l-1 -2q-3 -11 -42.5 -15.5t-122.5 -15.5l-27 -29q-7 -11 -20 -29t-21 -31l172 5q1 -1 0 -2.5t-1 -2.5q-1 -4 -28 -10.5t-69.5 -12.5t-91.5 -8q-28 -49 -51 -93t-31 -70q-8 -32 8 -32q6 0 18 6t25 14t21.5 14l8.5 6q6 0 4 -6
q-2 -8 -16 -18t-32.5 -19t-35 -15t-23.5 -6z" />
    <glyph glyph-name="brokenbar" unicode="&#xa6;" horiz-adv-x="219" 
d="M153 322l-44 2v120q0 63 -2 97t-4 50t-2 25q0 7 6 8.5t11 1.5q20 0 28 -16t10 -36t2 -34q0 -26 -1 -85.5t-4 -132.5zM109 -91q-9 0 -9 15t2.5 31.5t5 41.5t2.5 65q0 36 -0.5 88.5t-0.5 126.5l42 1q-3 -73 -6.5 -139.5t-8 -118.5t-11 -81.5t-16.5 -29.5z" />
    <glyph glyph-name="section" unicode="&#xa7;" horiz-adv-x="570" 
d="M131 -149q-136 -7 -157 80q-7 35 13.5 66t55.5 55.5t70 38.5q8 5 14 5q7 0 10 -4q0 -5 -19 -14q-32 -16 -60 -38.5t-43 -49t-8 -55.5q15 -60 135 -53q44 2 88 13t89 31q28 11 54.5 30.5t41.5 43t9.5 49.5t-43.5 50q-26 17 -60 30t-69.5 27t-66 33t-49 46t-18.5 67
q0 57 44 106.5t111 77.5q-11 24 -11 48q0 42 30 81t79 70t107 50.5t115 22.5q42 3 60 -11t21 -36t-1 -45q-1 -5 -6 -16.5t-13 -21.5t-17 -11q-7 0 -3 13l3 20q8 44 -17 58.5t-64 12.5q-22 -1 -53.5 -8.5t-66.5 -21.5t-65 -33t-49 -43t-19 -53q0 -3 0.5 -5t0.5 -5
q5 -41 30.5 -68t61.5 -44.5t75.5 -31t74 -28t56 -35t21.5 -52.5q0 -35 -22 -71t-59 -66.5t-83 -49.5q9 -9 12.5 -16t5.5 -12q8 -27 -5 -53.5t-38.5 -50t-54.5 -41.5t-53 -29q-98 -47 -195 -53zM440 124q34 12 63.5 32.5t48.5 48t19 57.5q0 32 -21.5 52t-55.5 34.5t-72.5 29
t-74.5 33.5t-60 50q-32 -12 -61.5 -31t-48 -44.5t-18.5 -55.5q0 -3 0.5 -5t0.5 -4q5 -36 24 -60t47 -40t60 -28t61 -24q25 -10 47.5 -21t40.5 -24z" />
    <glyph glyph-name="dieresis" unicode="&#xa8;" horiz-adv-x="261" 
d="M174 343q-7 0 -14 10.5t-7 18.5q0 15 29 36q14 12 27.5 12.5t7.5 -10.5l-16 -40q-12 -27 -27 -27zM53 343q-7 0 -14 10.5t-7 18.5q0 15 29 36q20 12 30 11t5 -9l-16 -40q-12 -27 -27 -27z" />
    <glyph glyph-name="copyright" unicode="&#xa9;" horiz-adv-x="638" 
d="M217 29q-47 0 -87 19.5t-64.5 54.5t-24.5 82q0 118 127 229q122 108 242 108q47 0 86 -19.5t62 -55t23 -83.5q0 -116 -123 -226q-121 -109 -241 -109zM231 50q106 0 209 100t103 206q0 64 -39.5 105t-103.5 41q-112 0 -218 -103q-105 -103 -105 -215q0 -41 22 -71.5
t57.5 -46.5t74.5 -16zM215 115q-34 0 -59 16t-25 48q0 92 100 183q97 88 191 88q49 0 49 -40q0 -30 -18 -32l-5 4q3 27 5 25q-2 34 -36 34q-78 0 -165 -94q-87 -93 -87 -172q0 -48 47 -48q50 0 129 43q78 43 72 44q3 0 3 -3q0 -34 -85 -67q-75 -29 -116 -29z" />
    <glyph glyph-name="ordfeminine" unicode="&#xaa;" horiz-adv-x="240" 
d="M67 235q-24 0 -48 17t-27 40q-10 77 97 183q106 106 191 106q23 0 36 -11q7 -7 10.5 -19t5.5 -12q4 0 7 1.5t7 1.5q12 0 21 -9t10 -16q1 -2 -64 -99q-65 -95 -59 -129q5 -23 22 -23q52 0 190 172q3 4 6 4q5 0 5 -7q0 -8 -9 -20q-127 -171 -195 -171q-25 0 -43 20t-18 49
q0 17 4 34l-62 -60q-59 -52 -87 -52zM58 257q58 0 158 127l106 146q-8 14 -26 14q-61 0 -165 -98q-108 -100 -97 -165q5 -24 24 -24z" />
    <glyph glyph-name="guillemotleft" unicode="&#xab;" horiz-adv-x="420" 
d="M357 136l-8 4q-11 15 -25 30t-31 29l-65 51q-3 2 -3 6t10 21t25.5 40t32 46t30.5 42t21 26q9 11 19 11q6 0 6 -6q0 -15 -99 -153q98 -124 98 -134q0 -15 -11 -13zM217 136l-8 4q-23 31 -57 59l-64 51q-3 2 -3 6q0 5 10 22t25 39.5t32 45.5t30.5 41.5t20.5 26.5
q9 11 19 11q7 0 7 -6q0 -15 -99 -153q97 -122 97 -134q0 -14 -10 -13z" />
    <glyph glyph-name="logicalnot" unicode="&#xac;" horiz-adv-x="259" 
d="M56 -32q-28 0 -40.5 28.5t-12.5 62.5q0 61 161 290q157 223 189 223q41 0 41 -17q0 -3 -4 -7q-53 -58 -108.5 -126.5t-111.5 -148.5q-132 -187 -132 -251q0 -38 37 -45q3 -1 3 -2q0 -7 -22 -7z" />
    <glyph glyph-name="uni00AD" unicode="&#xad;" horiz-adv-x="297" 
d="M95 213q-8 -2 -19 -1.5t-25 2.5q-32 6 -32 21q0 11 9 17.5t16 6.5h3.5t6.5 1h26q22 1 56 0q51 -1 88.5 -0.5t60.5 2.5q8 -17 -78 -32l-56 -8t-56 -9z" />
    <glyph glyph-name="registered" unicode="&#xae;" horiz-adv-x="638" 
d="M217 29q-47 0 -87 19.5t-64.5 54.5t-24.5 82q0 118 127 229q122 108 242 108q47 0 86 -19.5t62 -55t23 -83.5q0 -116 -123 -226q-121 -109 -241 -109zM408 123q135 108 135 233q0 64 -39.5 105t-103.5 41q-110 0 -214 -98q90 35 169 35q32 0 63 -7.5t51 -24.5t20 -44
q0 -26 -17.5 -45t-46 -31.5t-60.5 -18.5t-61 -7q9 -31 23.5 -62.5t35 -53t45.5 -22.5zM231 50q78 0 158 58q-25 6 -48.5 32.5t-40.5 60.5t-26 63q-9 0 -12 3l11 4l7 5l9 -3q175 24 175 97q0 57 -113 57q-25 0 -62.5 -9t-74 -21.5t-58.5 -24.5q-79 -94 -79 -188
q0 -41 22 -71.5t57.5 -46.5t74.5 -16zM150 76q-11 0 -11 36q0 44 80 160q34 50 63 87t54 62l22 -11q-1 -1 -8.5 -12t-23.5 -31q-34 -43 -59 -76t-42 -58q-32 -47 -49.5 -83.5t-21.5 -62.5q-2 -11 -4 -11z" />
    <glyph glyph-name="macron" unicode="&#xaf;" horiz-adv-x="500" 
d="M241 587q-5 0 -12.5 11.5t-8.5 17.5l2 1q10 5 34.5 6t62.5 1q82 0 106 -12q3 -1 3 -3t-1.5 -6t-4.5 -4q-31 0 -91 -6t-90 -6z" />
    <glyph glyph-name="degree" unicode="&#xb0;" horiz-adv-x="283" 
d="M151 320q-36 0 -61 25t-25 61t25 61t61 25t61 -25t25 -61t-25.5 -61t-60.5 -25zM151 342q26 0 45 19t19 45t-19 45t-45 19t-45 -19t-19 -45t19 -45t45 -19z" />
    <glyph glyph-name="plusminus" unicode="&#xb1;" horiz-adv-x="438" 
d="M229 138q-2 0 -4 8q-6 21 -6 92v52q-19 0 -69 -3q-22 -1 -39.5 -1.5t-30.5 -0.5q-6 0 -12 7t-7 14l5 5q20 2 58.5 3.5t94.5 0.5l-3 69q-3 44 -3 69q0 6 7.5 12t14.5 6l5 -5q2 -20 3.5 -57.5t0.5 -93.5q35 -1 73.5 -2.5t80.5 -4.5q6 -3 6 -6v-4l-9 -6h-58.5t-92.5 -1
q-1 -68 -3 -105t-4 -42q-3 -6 -8 -6zM133 65q-5 0 -12.5 9t-8.5 15l2 1q20 7 97 7q82 0 106 -12q3 -1 3 -3q0 -5 -6 -5q-31 0 -91 -6t-90 -6z" />
    <glyph glyph-name="uni00B2" unicode="&#xb2;" horiz-adv-x="455" 
d="M313 350q-22 0 -41 4t-47.5 14t-81.5 29q-29 8 -45 8l-27.5 -11t-33.5 -12.5t-23 -5.5q-14 0 -14 11q0 20 25 30t55 10h11t12 -1q70 43 115.5 72.5t67.5 46.5q38 30 63.5 59.5t32.5 69.5q0 3 0.5 5.5t0.5 4.5q0 33 -41 33q-27 0 -62 -12t-68 -30.5t-55 -38.5q-4 -2 -6 -2
q-6 0 -6 7q0 6 4 7q28 24 68.5 46t83.5 36.5t76 14.5q55 0 55 -43q0 -3 -0.5 -6t-0.5 -7q-5 -29 -26 -57t-50.5 -54t-61.5 -51q-64 -50 -175 -108q32 -3 64.5 -14.5t66.5 -22t68 -10.5q23 0 46.5 10.5t23.5 30.5q0 24 -37 37q-4 3 -4 5q0 8 10 5q50 -15 50 -48
q0 -18 -14 -32t-35.5 -22t-43.5 -8z" />
    <glyph glyph-name="uni00B3" unicode="&#xb3;" horiz-adv-x="476" 
d="M153 372q-35 0 -65.5 7.5t-49.5 23.5t-19 41q0 29 20 50.5t51 35.5q38 15 65 15q8 0 8 -4q0 -6 -9 -6q-19 0 -49 -18q-22 -14 -32.5 -28.5t-10.5 -34.5q0 -26 16 -41t41.5 -21t51.5 -6q45 0 89 17t79.5 48t52.5 72q4 9 4 21q0 25 -26.5 35t-58.5 10q-35 0 -58 -9
q-6 -2 -11 -2q-12 0 -12 10q0 7 5.5 12.5t12.5 5.5q51 0 96 17q30 11 48 30.5t18 41.5q0 26 -34 26q-32 0 -74 -16q-19 -7 -35.5 -15t-30.5 -17q-2 -2 -4 -2q-5 0 -5 8q0 17 12 20q13 4 44 32q2 3 6 3q3 -1 3 -4t-3 -8q-1 0 -5 -4q65 27 107 27q57 0 57 -51q0 -53 -108 -88
q91 -10 91 -64q0 -7 -3 -16q-12 -50 -56 -84.5t-102.5 -52t-116.5 -17.5z" />
    <glyph glyph-name="acute" unicode="&#xb4;" horiz-adv-x="221" 
d="M55 259q-7 -2 -7 6q0 4 4 7l97 78q11 9 17 9q5 0 12.5 -7.5t7.5 -14.5q0 -6 -4.5 -10.5l-8.5 -8.5q-5 -5 -18.5 -14t-36.5 -20q-27 -13 -42 -18z" />
    <glyph glyph-name="uni03BC" unicode="&#xb5;" horiz-adv-x="425" 
d="M-37 -189q-42 23 -42 87q0 69 113 236l13 20l-45 -41q-6 -6 -12 -6q-4 0 -4 4q0 7 10 17l132 155q27 30 57 30q23 0 23 -18q0 -7 -6 -13q-25 -23 -45.5 -49.5t-46.5 -60.5l-2 -4q-71 -100 -67 -141q1 -13 12 -13q19 0 68 38l54 45q7 5 32.5 35.5t69.5 86.5q78 97 102 97
q33 0 36 -27q2 -9 -42 -59q-57 -69 -78 -99q-42 -61 -39 -93q2 -18 15 -18q15 0 38.5 14t49.5 36t50.5 46.5t42.5 45.5q6 7 12 7t6 -6q0 -5 -6 -13q-16 -20 -39.5 -43.5t-55.5 -51.5t-56 -45t-47 -17t-40 12.5t-17 34.5t7 44.5t11 38.5l-88 -88q-52 -46 -92 -46
q-28 0 -38 22q-19 -33 -34.5 -71t-15.5 -68q0 -17 6.5 -28.5t12.5 -21.5q2 -5 -4 -9.5t-11 -1.5z" />
    <glyph glyph-name="paragraph" unicode="&#xb6;" horiz-adv-x="548" 
d="M-36 -177q-14 0 -16 9q3 6 10 6q88 0 178 183q14 29 40.5 95t63.5 169q-154 13 -154 113q0 44 25.5 82t67 66.5t89.5 44t93 15.5q4 0 19.5 0.5t34.5 1.5t34.5 1.5t19.5 0.5q26 0 39 -4q41 42 85 42q26 0 32 -13q-3 -3 -18.5 -5t-26.5 -9q-53 -31 -127 -195l-122 -294
q-69 -162 -115 -188q-4 -3 -12 -3q-6 0 -6 4q2 5 14 16q54 51 120 247q17 50 33.5 100t33.5 100q46 120 99 184h-10q-69 0 -158 -186q-20 -41 -45 -104.5t-56 -149.5q-38 -104 -103 -199q-88 -130 -162 -130z" />
    <glyph glyph-name="periodcentered" unicode="&#xb7;" horiz-adv-x="226" 
d="M130 283q-17 0 -29.5 10.5t-12.5 24.5q0 29 38 29q14 0 28 -9.5t14 -24.5q0 -12 -13 -21t-25 -9z" />
    <glyph glyph-name="cedilla" unicode="&#xb8;" horiz-adv-x="224" 
d="M24 -280q-9 0 -9 11q0 5 9 8l36 6t36 5q35 11 35 58q0 13 -26 51q-26 37 -26 56q0 34 19 60.5t51 26.5q11 0 12 -7q-22 -4 -34 -22t-12 -41q0 -11 29 -48q29 -38 29 -65q0 -47 -53 -76q-44 -23 -96 -23z" />
    <glyph glyph-name="uni00B9" unicode="&#xb9;" horiz-adv-x="349" 
d="M11 358q-5 -2 -8.5 3t-3.5 12q0 10 6 11q11 5 26 10t34 12l151 275q-16 -10 -37 -20t-47 -20q-9 -3 -9 6q0 5 5 8q41 15 114 72l3 6q7 11 27 11q18 0 18 -9q0 -1 -2 -5l-193 -319q20 4 42 5.5t44 1.5q6 0 6 -6q0 -9 -9 -9q-19 0 -41 -3t-45 -11q-9 -3 -29 -10.5
t-52 -20.5z" />
    <glyph glyph-name="ordmasculine" unicode="&#xba;" horiz-adv-x="191" 
d="M43 232q-25 0 -39 23.5t-14 45.5q0 60 87 168q88 109 142 109q51 0 51 -54q0 -8 -1.5 -17t-3.5 -19q2 -3 10 -3q27 0 64 19q-1 -17 -79 -49q1 -3 1 -9q0 -35 -67 -117q-79 -97 -135 -97h-16zM61 262q43 0 110 79q65 77 65 111q-16 9 -40 46q-34 0 -98 -82
q-61 -79 -61 -121q0 -33 24 -33z" />
    <glyph glyph-name="guillemotright" unicode="&#xbb;" horiz-adv-x="420" 
d="M247 129q-6 0 -6 6q0 15 99 153q-98 125 -98 134q0 15 11 13l8 -4q22 -30 55.5 -57.5t65.5 -52.5q3 -1 3 -6q0 -10 -53 -86q-22 -32 -38.5 -54.5t-27.5 -34.5q-9 -11 -19 -11zM91 129q-6 0 -6 6q0 15 99 153q-98 125 -98 134q0 15 11 13l8 -4q22 -30 55.5 -57.5
t65.5 -52.5q3 -1 3 -6q0 -10 -53 -86q-22 -32 -38.5 -54.5t-27.5 -34.5q-9 -11 -19 -11z" />
    <glyph glyph-name="onequarter" unicode="&#xbc;" horiz-adv-x="797" 
d="M11 358q-5 -2 -8.5 3t-3.5 12q0 10 6 11q11 5 26 10t34 12l151 275q-16 -10 -37 -20t-47 -20q-9 -3 -9 6q0 5 5 8q41 15 114 72l3 6q7 11 27 11q18 0 18 -9q0 -1 -2 -5l-193 -319q20 4 42 5.5t44 1.5q6 0 6 -6q0 -9 -9 -9q-19 0 -41 -3t-45 -11q-9 -3 -29 -10.5
t-52 -20.5zM200 93q-10 0 -10 17q0 23 13 58q20 52 157 237q137 181 151 181q6 0 11 -5q7 -6 -2 -18q-82 -94 -178 -223q-57 -76 -89.5 -126t-42.5 -76q-1 -5 -2.5 -10t-1.5 -9q0 -11 7 -15q3 -1 0 -5q-4 -6 -13 -6zM512 -69q-5 0 -9 4q-10 23 -8.5 50.5t9.5 55.5t17 51
q-22 6 -40.5 9.5t-34.5 3.5q-40 0 -112 -30q-7 -2 -12 4t-5 14q0 16 13 20q13 5 34 9q28 15 60 37.5t63.5 45.5t59.5 41q113 71 135 103l1 2l6 8q3 4 10 4q20 0 20 -11q0 -2 -1 -2l-105 -152q-10 -15 -22.5 -34.5t-22.5 -36.5t-15 -25q44 -14 70 -14q16 0 31 10q17 15 17 35
v6t-1 7q-3 9 4 9q5 0 9 -6q6 -10 8.5 -19.5t2.5 -17.5q0 -41 -73 -41q-31 0 -78 15q-8 -17 -17 -42t-11.5 -51t6.5 -45q0 -1 0.5 -3t0.5 -3q0 -11 -10 -11zM530 111q7 16 22.5 42.5t35.5 58t41 61.5l14 20q-37 -22 -100 -67.5t-137 -97.5q30 3 42 3q31 0 82 -20z" />
    <glyph glyph-name="onehalf" unicode="&#xbd;" horiz-adv-x="803" 
d="M11 358q-5 -2 -8.5 3t-3.5 12q0 10 6 11q11 5 26 10t34 12l151 275q-16 -10 -37 -20t-47 -20q-9 -3 -9 6q0 5 5 8q41 15 114 72l3 6q7 11 27 11q18 0 18 -9q0 -1 -2 -5l-193 -319q20 4 42 5.5t44 1.5q6 0 6 -6q0 -9 -9 -9q-19 0 -41 -3t-45 -11q-9 -3 -29 -10.5
t-52 -20.5zM200 93q-10 0 -10 17q0 23 13 58q20 52 157 237q137 181 151 181q6 0 11 -5q7 -6 -2 -18q-82 -94 -178 -223q-57 -76 -89.5 -126t-42.5 -76q-1 -5 -2.5 -10t-1.5 -9q0 -11 7 -15q3 -1 0 -5q-4 -6 -13 -6zM613 -29q-36 0 -87 17l-83 30q-29 8 -45 8
q-12 -5 -29.5 -12t-41.5 -15q-4 -1 -7 -1.5t-6 -0.5q-14 0 -14 11q0 13 16 25q14 9 28 12q13 2 27.5 3t31.5 -1q70 43 115.5 72.5t67.5 46.5q41 32 61 57q27 32 35 72q0 3 0.5 5.5t0.5 4.5q0 33 -41 33q-39 0 -99 -27q-53 -25 -86 -54q-4 -2 -6 -2q-6 0 -6 7q0 6 4 7
q43 37 107 65q72 32 121 32q55 0 55 -43q0 -3 -0.5 -6t-0.5 -7q-8 -41 -55 -90q-13 -13 -33.5 -31t-49.5 -41q-64 -50 -175 -108q29 -3 94 -25q32 -10 58 -16t47 -6q23 0 44 9q26 12 26 32q0 24 -37 37q-4 3 -4 5q0 8 10 5q50 -15 50 -48q0 -28 -34 -47q-14 -8 -28.5 -11.5
t-30.5 -3.5z" />
    <glyph glyph-name="threequarters" unicode="&#xbe;" horiz-adv-x="914" 
d="M153 370q-59 0 -95 18q-39 20 -39 54q0 18 12 40q14 26 59 46q38 15 65 15q8 0 8 -4q0 -6 -9 -6q-19 0 -49 -18q-32 -21 -40 -42q-1 -6 -2 -11t-1 -10q0 -51 72 -65q71 -12 144 22q84 39 114 112q4 9 4 21q0 23 -27 35q-21 10 -58 10q-35 0 -58 -9q-4 -1 -7 -1.5t-5 -0.5
q-11 0 -11 10q0 7 5.5 12.5t12.5 5.5q51 0 96 17q58 22 65 65q1 3 1 7q0 26 -34 26q-32 0 -74 -16q-19 -7 -35.5 -15t-30.5 -17q-2 -2 -4 -2q-5 0 -5 8q0 17 12 20q13 4 44 32q2 3 6 3q3 -1 3 -4t-3 -8q-1 0 -5 -4q65 27 107 27q59 0 57 -54q-3 -52 -108 -85q91 -10 91 -64
q0 -7 -3 -16q-18 -71 -106 -116q-79 -38 -169 -38zM325 93q-10 0 -10 17q0 23 13 58q20 52 157 237q137 181 151 181q6 0 11 -5q7 -6 -2 -18q-82 -94 -178 -223q-57 -76 -89.5 -126t-42.5 -76q-1 -5 -2.5 -10t-1.5 -9q0 -11 7 -15q3 -1 0 -5q-4 -6 -13 -6zM637 -69
q-5 0 -9 4q-10 23 -8.5 50.5t9.5 55.5t17 51q-22 6 -40.5 9.5t-34.5 3.5q-40 0 -112 -30q-7 -2 -12 4t-5 14q0 16 13 20q13 5 34 9q28 15 60 37.5t63.5 45.5t59.5 41q113 71 135 103l1 2l6 8q3 4 10 4q20 0 20 -11q0 -2 -1 -2l-105 -152q-10 -15 -22.5 -34.5t-22.5 -36.5
t-15 -25q44 -14 70 -14q16 0 31 10q17 15 17 35v6t-1 7q-3 9 4 9q5 0 9 -6q6 -10 8.5 -19.5t2.5 -17.5q0 -41 -73 -41q-31 0 -78 15q-8 -17 -17 -42t-11.5 -51t6.5 -45q0 -1 0.5 -3t0.5 -3q0 -11 -10 -11zM655 111q7 16 22.5 42.5t35.5 58t41 61.5l14 20q-37 -22 -100 -67.5
t-137 -97.5q30 3 42 3q31 0 82 -20z" />
    <glyph glyph-name="questiondown" unicode="&#xbf;" horiz-adv-x="401" 
d="M302 224q-14 0 -27.5 10t-13.5 23q0 12 13 21.5t25 9.5q17 0 29.5 -10.5t12.5 -24.5q0 -29 -39 -29zM157 -206q-165 0 -165 95q0 43 20.5 70t59 50.5t93.5 54.5q70 40 96 89q9 17 15 17q7 0 7 -13q0 -4 -0.5 -6.5t-1.5 -4.5q-25 -52 -88 -93q-42 -26 -76.5 -49.5t-55 -47
t-20.5 -50.5q0 -23 18.5 -39t47.5 -24t58 -8q58 0 103.5 25t52.5 77q2 13 -10.5 24.5t-30.5 11.5q-28 0 -57 -30q-7 -7 -9 0q-3 8 4 15q33 34 71 34q25 0 41.5 -16t14.5 -41q-4 -44 -32.5 -76t-70 -48.5t-85.5 -16.5z" />
    <glyph glyph-name="Agrave" unicode="&#xc0;" horiz-adv-x="1020" 
d="M153 -116q-154 13 -154 158q0 86 54 182q32 58 80.5 113t106 99.5t118 70.5t116.5 26q99 0 99 -73q0 -49 -30 -109t-61 -76q-3 -1 -7 -1q-3 0 -3 2l33 54q34 56 34 98q0 30 -16 57t-57 27q-50 0 -102.5 -28t-101.5 -74t-89 -101.5t-64 -109.5q-51 -115 -51 -186
q0 -107 109 -107q104 0 282 134q41 31 105.5 87t151.5 136l-30 -2.5t-42 -5.5q-10 -2 -19 -3.5t-17 -1.5q-20 2 -17 10q4 37 38 37q31 -4 58.5 -6t52.5 -2q39 36 103.5 100.5t153.5 158.5q115 121 140 121q11 0 11 -20q0 -8 -2 -20t-6 -28q-10 -38 -21 -46
q-31 -22 -51.5 -56.5t-41.5 -76.5q-21 -43 -38.5 -76.5t-31.5 -59.5l97 2q36 0 36 -5q0 -1 -2 -3q-17 -11 -144 -20q-93 -181 -93 -248q0 -46 29 -46q11 0 28 14q16 13 20 13q0 2 1 1t-1 -1q-5 -18 -29.5 -32.5t-51.5 -14.5q-25 0 -33 16t-8 44q0 101 77 257l-120 -3
q-134 -131 -269 -230q-215 -156 -330 -146zM881 289q12 23 48 83.5t97 157.5l-256 -240zM1213.86 705.954q7.2793 -0.120117 5.20801 7.60742q-1.03516 3.86328 -5.67578 5.72559l-113.887 50.2354q-12.9551 5.8457 -18.75 4.29297q-4.83008 -1.29395 -10.1328 -10.4805
q-5.30371 -9.18555 -3.49121 -15.9473q1.55273 -5.7959 7.06445 -8.97754t10.4102 -6.00977q6.12402 -3.53613 21.4941 -8.73535q15.3701 -5.19824 40.4336 -9.87012q29.4463 -5.56836 45.2295 -6.51562t22.0967 -1.3252z" />
    <glyph glyph-name="Aacute" unicode="&#xc1;" horiz-adv-x="1020" 
d="M153 -116q-154 13 -154 158q0 86 54 182q32 58 80.5 113t106 99.5t118 70.5t116.5 26q99 0 99 -73q0 -49 -30 -109t-61 -76q-3 -1 -7 -1q-3 0 -3 2l33 54q34 56 34 98q0 30 -16 57t-57 27q-50 0 -102.5 -28t-101.5 -74t-89 -101.5t-64 -109.5q-51 -115 -51 -186
q0 -107 109 -107q104 0 282 134q41 31 105.5 87t151.5 136l-30 -2.5t-42 -5.5q-10 -2 -19 -3.5t-17 -1.5q-20 2 -17 10q4 37 38 37q31 -4 58.5 -6t52.5 -2q39 36 103.5 100.5t153.5 158.5q115 121 140 121q11 0 11 -20q0 -8 -2 -20t-6 -28q-10 -38 -21 -46
q-31 -22 -51.5 -56.5t-41.5 -76.5q-21 -43 -38.5 -76.5t-31.5 -59.5l97 2q36 0 36 -5q0 -1 -2 -3q-17 -11 -144 -20q-93 -181 -93 -248q0 -46 29 -46q11 0 28 14q16 13 20 13q0 2 1 1t-1 -1q-5 -18 -29.5 -32.5t-51.5 -14.5q-25 0 -33 16t-8 44q0 101 77 257l-120 -3
q-134 -131 -269 -230q-215 -156 -330 -146zM881 289q12 23 48 83.5t97 157.5l-256 -240zM1116.19 710.954q-7.2793 -0.120117 -5.20898 7.60742q1.03516 3.86328 5.67578 5.72559l113.887 50.2354q12.9551 5.84668 18.751 4.29297q4.8291 -1.29395 10.1328 -10.4805
q5.30273 -9.18555 3.49121 -15.9473q-1.55371 -5.7959 -7.06445 -8.97754q-5.51172 -3.18164 -10.4111 -6.00977q-6.12402 -3.53613 -21.4941 -8.73438q-15.3691 -5.19922 -40.4336 -9.87109q-29.4453 -5.56836 -45.2285 -6.51562q-15.7842 -0.946289 -22.0967 -1.3252z" />
    <glyph glyph-name="Acircumflex" unicode="&#xc2;" horiz-adv-x="1020" 
d="M153 -116q-154 13 -154 158q0 86 54 182q32 58 80.5 113t106 99.5t118 70.5t116.5 26q99 0 99 -73q0 -49 -30 -109t-61 -76q-3 -1 -7 -1q-3 0 -3 2l33 54q34 56 34 98q0 30 -16 57t-57 27q-50 0 -102.5 -28t-101.5 -74t-89 -101.5t-64 -109.5q-51 -115 -51 -186
q0 -107 109 -107q104 0 282 134q41 31 105.5 87t151.5 136l-30 -2.5t-42 -5.5q-10 -2 -19 -3.5t-17 -1.5q-20 2 -17 10q4 37 38 37q31 -4 58.5 -6t52.5 -2q39 36 103.5 100.5t153.5 158.5q115 121 140 121q11 0 11 -20q0 -8 -2 -20t-6 -28q-10 -38 -21 -46
q-31 -22 -51.5 -56.5t-41.5 -76.5q-21 -43 -38.5 -76.5t-31.5 -59.5l97 2q36 0 36 -5q0 -1 -2 -3q-17 -11 -144 -20q-93 -181 -93 -248q0 -46 29 -46q11 0 28 14q16 13 20 13q0 2 1 1t-1 -1q-5 -18 -29.5 -32.5t-51.5 -14.5q-25 0 -33 16t-8 44q0 101 77 257l-120 -3
q-134 -131 -269 -230q-215 -156 -330 -146zM881 289q12 23 48 83.5t97 157.5l-256 -240zM1227 712q-13 0 -35 13q-10 5 -26 17t-18 13q-4 -2 -7.5 -5.5t-27.5 -19.5q-34 -23 -42 -23q-7 0 -4 8q2 4 8.5 11.5t30.5 23.5q26 18 36.5 24t16.5 6q13 0 37 -15.5t40 -31.5
q2 -3 2 -8q0 -8 -2 -10.5t-9 -2.5z" />
    <glyph glyph-name="Atilde" unicode="&#xc3;" horiz-adv-x="1020" 
d="M153 -116q-154 13 -154 158q0 86 54 182q32 58 80.5 113t106 99.5t118 70.5t116.5 26q99 0 99 -73q0 -49 -30 -109t-61 -76q-3 -1 -7 -1q-3 0 -3 2l33 54q34 56 34 98q0 30 -16 57t-57 27q-50 0 -102.5 -28t-101.5 -74t-89 -101.5t-64 -109.5q-51 -115 -51 -186
q0 -107 109 -107q104 0 282 134q41 31 105.5 87t151.5 136l-30 -2.5t-42 -5.5q-10 -2 -19 -3.5t-17 -1.5q-20 2 -17 10q4 37 38 37q31 -4 58.5 -6t52.5 -2q39 36 103.5 100.5t153.5 158.5q115 121 140 121q11 0 11 -20q0 -8 -2 -20t-6 -28q-10 -38 -21 -46
q-31 -22 -51.5 -56.5t-41.5 -76.5q-21 -43 -38.5 -76.5t-31.5 -59.5l97 2q36 0 36 -5q0 -1 -2 -3q-17 -11 -144 -20q-93 -181 -93 -248q0 -46 29 -46q11 0 28 14q16 13 20 13q0 2 1 1t-1 -1q-5 -18 -29.5 -32.5t-51.5 -14.5q-25 0 -33 16t-8 44q0 101 77 257l-120 -3
q-134 -131 -269 -230q-215 -156 -330 -146zM881 289q12 23 48 83.5t97 157.5l-256 -240zM1149.53 739.184q-17.8877 0 -48.0146 14.2998q-31.0684 15.3994 -45.1904 15.3994q-16.9463 0 -32.0098 -14.2998t-19.7705 -14.2998q-0.941406 1.10059 -0.941406 2.2002
q0 17.5996 40.4824 45.0986q15.0635 11 33.8936 11q14.1211 0 45.1904 -12.0996q28.2432 -11 44.249 -11q22.5947 0 39.541 23.0996q5.64844 0 5.64844 -4.39941q0 -16.5 -37.6582 -46.1992q-12.2393 -8.7998 -25.4199 -8.7998z" />
    <glyph glyph-name="Adieresis" unicode="&#xc4;" horiz-adv-x="1020" 
d="M1095 737q-7 0 -14 10.5t-7 18.5q0 15 29 36q30 21 46 21q1 0 1.5 -0.5t1.5 -0.5q-1 0 -14 -18l-16 -40q-12 -27 -27 -27zM1216 737q-7 0 -14 10.5t-7 18.5q0 15 29 36q30 21 46 21q1 0 1.5 -0.5t1.5 -0.5q-1 0 -14 -18l-16 -40q-12 -27 -27 -27zM153 -116
q-154 13 -154 158q0 86 54 182q72 128 198 220q124 89 223 89t99 -73q0 -49 -30 -109t-61 -76q-3 -1 -7 -1q-3 0 -3 2l33 54q34 53 34 98q0 30 -16 57t-57 27q-78 0 -182 -83q-113 -91 -175 -230q-51 -115 -51 -186q0 -107 109 -107q104 0 282 134q41 31 105.5 87t151.5 136
l-30 -2.5t-42 -5.5q-10 -2 -19 -3.5t-17 -1.5q-20 2 -17 10q4 37 38 37q31 -4 58.5 -6t52.5 -2q39 36 103.5 100.5t153.5 158.5q115 121 140 121q11 0 11 -20q0 -8 -2 -20t-6 -28q-10 -38 -21 -46q-23 -16 -49 -51q-14 -20 -44 -82q-21 -43 -38.5 -76.5t-31.5 -59.5l97 2
q36 0 36 -5q0 -1 -2 -3q-17 -11 -144 -20q-93 -181 -93 -248q0 -46 29 -46q11 0 28 14q16 13 20 13q3 0 3 -5q-5 -18 -31 -30t-53 -12q-4 0 -8.5 0.5t-8.5 1.5q-24 9 -24 58q0 101 77 257q-10 0 -26.5 -0.5t-39.5 -1.5t-36.5 -1h-17.5q-134 -131 -269 -230
q-215 -156 -330 -146zM881 289q12 23 48 83.5t97 157.5l-256 -240h59q16 -1 29 -1h23z" />
    <glyph glyph-name="Aring" unicode="&#xc5;" horiz-adv-x="1020" 
d="M153 -116q-154 13 -154 158q0 86 54 182q72 128 198 220q124 89 223 89t99 -73q0 -49 -30 -109t-61 -76q-3 -1 -7 -1q-3 0 -3 2l33 54q34 53 34 98q0 30 -16 57t-57 27q-78 0 -182 -83q-113 -91 -175 -230q-51 -115 -51 -186q0 -107 109 -107q104 0 282 134
q41 31 105.5 87t151.5 136l-30 -2.5t-42 -5.5q-10 -2 -19 -3.5t-17 -1.5q-20 2 -17 10q4 37 38 37q31 -4 58.5 -6t52.5 -2q39 36 103.5 100.5t153.5 158.5q87 92 123 114q-16 9 -16 33q0 23 10 44q12 27 29 32q17 32 51 32q19 0 31 -15.5t12 -36.5q0 -36 -28 -65
q-29 -29 -62 -29q1 -3 1 -8q0 -8 -2 -20t-6 -28q-10 -38 -21 -46q-23 -16 -49 -51q-14 -20 -44 -82q-21 -43 -38.5 -76.5t-31.5 -59.5l97 2q36 0 36 -5q0 -1 -2 -3q-17 -11 -144 -20q-93 -181 -93 -248q0 -46 29 -46q11 0 28 14q16 13 20 13q3 0 3 -5q-5 -18 -31 -30
t-53 -12q-4 0 -8.5 0.5t-8.5 1.5q-24 9 -24 58q0 101 77 257q-10 0 -26.5 -0.5t-39.5 -1.5t-36.5 -1h-17.5q-134 -131 -269 -230q-215 -156 -330 -146zM1146 676q24 0 40.5 24t16.5 49q0 36 -22 36q-12 0 -29 -13l11 -6q-1 -4 -6.5 -11.5t-13.5 -20.5q-12 -18 -12 -38
t15 -20zM881 289q12 23 48 83.5t97 157.5l-256 -240h59q16 -1 29 -1h23z" />
    <glyph glyph-name="AE" unicode="&#xc6;" horiz-adv-x="1400" 
d="M153 -116q-154 13 -154 158q0 86 54 182q32 58 80.5 113t106 99.5t118 70.5t116.5 26q99 0 99 -73q0 -49 -30 -109t-61 -76q-3 -1 -7 -1q-3 0 -3 2l33 54q34 56 34 98q0 30 -16 57t-57 27q-50 0 -102.5 -28t-101.5 -74t-89 -101.5t-64 -109.5q-51 -115 -51 -186
q0 -107 109 -107q104 0 282 134q41 31 105.5 87t151.5 136l-30 -2.5t-42 -5.5q-22 -5 -36 -5q-20 0 -17 10q4 37 38 37q31 -4 58.5 -6t52.5 -2q39 36 103.5 100.5t153.5 158.5q115 121 140 121q11 0 11 -21q0 -19 -7 -42l16 8t17 8q47 20 95.5 31t98.5 11q62 0 94.5 -20
t32.5 -56q0 -25 -13.5 -46t-33.5 -33t-41 -12q-31 0 -31 15q0 9 13 9q4 0 10.5 -1.5t9.5 -1.5q21 0 37 22t16 44q0 32 -30 46t-69 14q-95 0 -186 -61q-96 -63 -96 -142q0 -29 20 -54q35 11 65.5 15.5t58.5 4.5q96 0 96 -37q0 -17 -14 -29.5t-35.5 -19t-43.5 -6.5
q-23 0 -51 6t-54 16t-44 23q-29 -8 -56.5 -21.5t-53.5 -26.5l-13 -26q-15 -31 -29.5 -68.5t-23.5 -75t-9 -68.5q0 -64 36.5 -90.5t88.5 -26.5q44 0 93 14.5t92 36.5t70 47q79 70 79 147q0 61 -59 61q-31 0 -69 -15.5t-71.5 -41.5t-55.5 -57t-22 -63t28 -39q10 -4 10 -10
q0 -8 -15 -8q-53 0 -53 59q0 39 23 74t59.5 62t79.5 42.5t83 15.5q41 0 70 -21t29 -66q0 -46 -25 -90.5t-78 -84.5q-28 -21 -70.5 -40t-91 -31t-96.5 -12t-90 15.5t-69 52.5t-30 99q-1 24 5 55t16.5 59.5t20.5 44.5q-5 0 -27 -0.5t-48 -1.5t-45 -1q-134 -131 -269 -230
q-215 -156 -330 -146zM881 289q12 23 48 83.5t97 157.5l-256 -240zM979 349q16 7 33.5 13.5t39.5 13.5q-24 26 -30 58l-6 -12q-10 -20 -19 -38.5t-18 -34.5zM1209 337q54 0 54 31q0 14 -54 14q-24 0 -49.5 -3t-51.5 -8q43 -34 101 -34z" />
    <glyph glyph-name="Ccedilla" unicode="&#xc7;" horiz-adv-x="726" 
d="M263 -65q-111 0 -171.5 59t-60.5 153q0 86 42.5 168t107.5 151q53 56 121.5 97t144 64t147.5 23q57 0 103 -15.5t73 -48.5t27 -86q0 -47 -22.5 -87.5t-60 -70.5t-82.5 -47t-91 -17q-60 0 -101 27.5t-41 69.5q0 54 69 106q12 9 19 9q5 0 5 -4q0 -10 -16 -16
q-56 -45 -56 -91q0 -33 30 -55.5t75 -22.5q40 0 80.5 17t74.5 46t54.5 65.5t20.5 76.5q0 65 -44 95t-112 30q-77 0 -152.5 -29t-141.5 -80t-118 -117q-104 -131 -104 -246q0 -61 28 -103.5t77.5 -64.5t113.5 -22q95 0 184 41.5t152 111.5q17 18 25 18q6 0 6 -9
q0 -12 -11 -23q-34 -36 -81 -67t-100.5 -55t-108.5 -37.5t-105 -13.5zM161.195 -286.148q-9.73633 0 -9.73633 9.25781q0 4.20801 9.73633 6.73242q19.4736 2.52539 38.9463 5.0498q19.4736 2.52441 38.9473 4.20801q37.8643 9.25781 37.8643 48.8135
q0 10.9414 -28.1279 42.9229q-28.1279 31.1396 -28.1279 47.1299q0 28.6152 20.5547 50.918q20.5557 22.3027 55.1748 22.3027q11.9004 0 12.9814 -5.8916q-23.8008 -3.36621 -36.7822 -18.5156q-12.9824 -15.1484 -12.9824 -34.5059q0 -9.25781 31.374 -40.3975
q31.373 -31.9814 31.373 -54.7051q0 -39.5557 -57.3379 -63.9629q-47.6016 -19.3564 -103.857 -19.3564z" />
    <glyph glyph-name="Egrave" unicode="&#xc8;" horiz-adv-x="691" 
d="M256 -80q-67 0 -124.5 17t-93 52t-35.5 88q0 41 26 82q92 146 314 217q-33 38 -33 86q0 39 21 67q41 56 124 93q47 20 95.5 31t98.5 11q62 0 94.5 -20t32.5 -56q0 -25 -13.5 -45.5t-33.5 -33t-41 -12.5q-31 0 -31 15q0 9 13 9q4 0 10.5 -1.5t9.5 -1.5q21 0 37 22t16 44
q0 32 -30.5 46t-68.5 14q-95 0 -186 -61q-96 -63 -96 -142q0 -29 20 -54q35 11 65.5 15.5t58.5 4.5q96 0 96 -37q0 -17 -14 -29.5t-35.5 -19t-43.5 -6.5q-23 0 -51 6t-54 16t-44 23q-94 -27 -166.5 -83.5t-107.5 -126.5q-19 -38 -19 -74q0 -44 25 -72t66.5 -41t91.5 -13
q83 0 165 26.5t140 78.5q79 70 79 147q0 61 -59 61q-31 0 -69 -15.5t-71.5 -41.5t-55.5 -57t-22 -63t28 -39q10 -4 10 -10q0 -8 -15 -8q-53 0 -53 59q0 39 23 74t59.5 62t79.5 42.5t83 15.5q47 0 73 -20.5t26 -66.5q0 -93 -103 -175q-65 -53 -144 -76.5t-168 -23.5zM500 337
q54 0 54 31q0 14 -54 14q-24 0 -49.5 -3t-51.5 -8q43 -34 101 -34zM703.851 706.954q7.2793 -0.120117 5.20898 7.60742q-1.03613 3.86328 -5.67578 5.72559l-113.887 50.2354q-12.9551 5.8457 -18.751 4.29297q-4.83008 -1.29395 -10.1328 -10.4805
q-5.30273 -9.18555 -3.49121 -15.9473q1.55273 -5.7959 7.06445 -8.97754t10.4111 -6.00977q6.12402 -3.53613 21.4932 -8.73535q15.3701 -5.19824 40.4346 -9.87012q29.4453 -5.56836 45.2285 -6.51562t22.0967 -1.3252z" />
    <glyph glyph-name="Eacute" unicode="&#xc9;" horiz-adv-x="691" 
d="M256 -80q-67 0 -124.5 17t-93 52t-35.5 88q0 41 26 82q92 146 314 217q-33 38 -33 86q0 39 21 67q41 56 124 93q47 20 95.5 31t98.5 11q62 0 94.5 -20t32.5 -56q0 -25 -13.5 -45.5t-33.5 -33t-41 -12.5q-31 0 -31 15q0 9 13 9q4 0 10.5 -1.5t9.5 -1.5q21 0 37 22t16 44
q0 32 -30.5 46t-68.5 14q-95 0 -186 -61q-96 -63 -96 -142q0 -29 20 -54q35 11 65.5 15.5t58.5 4.5q96 0 96 -37q0 -17 -14 -29.5t-35.5 -19t-43.5 -6.5q-23 0 -51 6t-54 16t-44 23q-94 -27 -166.5 -83.5t-107.5 -126.5q-19 -38 -19 -74q0 -44 25 -72t66.5 -41t91.5 -13
q83 0 165 26.5t140 78.5q79 70 79 147q0 61 -59 61q-31 0 -69 -15.5t-71.5 -41.5t-55.5 -57t-22 -63t28 -39q10 -4 10 -10q0 -8 -15 -8q-53 0 -53 59q0 39 23 74t59.5 62t79.5 42.5t83 15.5q47 0 73 -20.5t26 -66.5q0 -93 -103 -175q-65 -53 -144 -76.5t-168 -23.5zM500 337
q54 0 54 31q0 14 -54 14q-24 0 -49.5 -3t-51.5 -8q43 -34 101 -34zM606.181 711.954q-7.2793 -0.120117 -5.20801 7.60742q1.03516 3.86328 5.6748 5.72559l113.887 50.2354q12.9551 5.84668 18.751 4.29297q4.83008 -1.29395 10.1328 -10.4805
q5.30371 -9.18555 3.49121 -15.9473q-1.55273 -5.7959 -7.06445 -8.97754t-10.4111 -6.00977q-6.12305 -3.53613 -21.4932 -8.73438q-15.3701 -5.19922 -40.4346 -9.87109q-29.4453 -5.56836 -45.2285 -6.51562q-15.7832 -0.946289 -22.0967 -1.3252z" />
    <glyph glyph-name="Ecircumflex" unicode="&#xca;" horiz-adv-x="691" 
d="M256 -80q-67 0 -124.5 17t-93 52t-35.5 88q0 41 26 82q92 146 314 217q-33 38 -33 86q0 39 21 67q41 56 124 93q47 20 95.5 31t98.5 11q62 0 94.5 -20t32.5 -56q0 -25 -13.5 -45.5t-33.5 -33t-41 -12.5q-31 0 -31 15q0 9 13 9q4 0 10.5 -1.5t9.5 -1.5q21 0 37 22t16 44
q0 32 -30.5 46t-68.5 14q-95 0 -186 -61q-96 -63 -96 -142q0 -29 20 -54q35 11 65.5 15.5t58.5 4.5q96 0 96 -37q0 -17 -14 -29.5t-35.5 -19t-43.5 -6.5q-23 0 -51 6t-54 16t-44 23q-94 -27 -166.5 -83.5t-107.5 -126.5q-19 -38 -19 -74q0 -44 25 -72t66.5 -41t91.5 -13
q83 0 165 26.5t140 78.5q79 70 79 147q0 61 -59 61q-31 0 -69 -15.5t-71.5 -41.5t-55.5 -57t-22 -63t28 -39q10 -4 10 -10q0 -8 -15 -8q-53 0 -53 59q0 39 23 74t59.5 62t79.5 42.5t83 15.5q47 0 73 -20.5t26 -66.5q0 -93 -103 -175q-65 -53 -144 -76.5t-168 -23.5zM500 337
q54 0 54 31q0 14 -54 14q-24 0 -49.5 -3t-51.5 -8q43 -34 101 -34zM717 713q-13 0 -35 13q-10 5 -26 17t-18 13q-4 -2 -7.5 -5.5t-27.5 -19.5q-34 -23 -42 -23q-7 0 -4 8q2 4 8.5 11.5t30.5 23.5q26 18 36.5 24t16.5 6q13 0 37 -15.5t40 -31.5q2 -3 2 -8q0 -8 -2 -10.5
t-9 -2.5z" />
    <glyph glyph-name="Edieresis" unicode="&#xcb;" horiz-adv-x="691" 
d="M641 708q-7 0 -14 10.5t-7 18.5q0 15 29 36q30 21 46 21q1 0 1.5 -0.5t1.5 -0.5q-1 0 -14 -18l-16 -40q-12 -27 -27 -27zM762 708q-7 0 -14 10.5t-7 18.5q0 15 29 36q30 21 46 21q1 0 1.5 -0.5t1.5 -0.5q-1 0 -14 -18l-16 -40q-12 -27 -27 -27zM293 -79q-144 -7 -222 42
q-68 44 -68 114q0 41 26 82q92 146 314 217q-33 38 -33 86q0 39 21 67q41 56 124 93q81 35 166 41q79 5 118 -16.5t37 -63.5q-2 -35 -29 -60q-28 -26 -59 -26t-31 15q0 9 13 9q4 0 10.5 -1.5t9.5 -1.5q21 0 37 22t16 44q0 34 -39 50q-31 12 -78 9q-85 -4 -168 -60
q-96 -63 -96 -142q0 -29 20 -54q37 11 70 16t62 4q88 -1 88 -37q0 -7 -6 -18q-24 -37 -87 -37q-41 0 -86 15q-40 14 -63 30q-94 -27 -166.5 -83.5t-107.5 -126.5q-19 -38 -19 -74q0 -56 44 -89q49 -37 139 -37q25 0 52 3q159 17 253 102q79 70 79 147q0 61 -59 61
q-71 0 -163 -76q-23 -19 -39 -48t-16 -53q0 -32 28 -39q10 -4 10 -10q0 -10 -20 -8q-48 2 -48 59q0 66 63 120q86 74 182 74q72 0 91 -45q8 -21 8 -42q0 -93 -103 -175q-112 -91 -275 -99zM500 337q54 0 54 31q0 14 -54 14q-24 0 -49.5 -3t-51.5 -8q20 -16 41 -23
q30 -11 60 -11z" />
    <glyph glyph-name="Igrave" unicode="&#xcc;" horiz-adv-x="576" 
d="M177 -69q-156 0 -156 184q0 152 81 245q68 80 156 80q49 0 77.5 -26t28.5 -75q0 -78 -60 -158q-62 -83 -126 -83q-37 0 -54.5 22t-17.5 53q0 20 8 44q11 29 23 29q9 0 9 -9q0 -5 -9 -26q-7 -15 -7 -31q0 -21 13.5 -33.5t35.5 -12.5q59 0 111 75q49 70 49 139
q0 36 -17.5 55.5t-47.5 19.5q-71 0 -142 -98q-73 -105 -69 -231q2 -56 30.5 -95t76.5 -39q135 0 345 359q-110 33 -110 130q0 65 35 117.5t96 88.5q83 48 162 48q43 0 83.5 -10.5t67.5 -33t27 -58.5q0 -12 -5.5 -23t-11.5 -11q1 0 -9 6.5t-22 6.5q-85 0 -233 -253q4 -1 8 -1
h8q25 0 48.5 9t39 25t15.5 36q0 8 -3.5 16.5t-3.5 10.5q0 8 8 8q4 0 8 -3q23 -17 23 -42t-19 -44t-48.5 -29.5t-59.5 -10.5q-17 0 -34 3q-69 -127 -168 -234q-132 -140 -240 -140zM532 344q55 90 134 171q95 98 153 98q15 0 26 -7q-1 19 -18 34.5t-40.5 24.5t-44.5 10
q-66 3 -140 -30q-63 -28 -103.5 -84.5t-40.5 -130.5q0 -72 74 -86zM862.854 739.954q7.2793 -0.119141 5.20898 7.6084q-1.03613 3.86328 -5.67578 5.72559l-113.887 50.2354q-12.9551 5.8457 -18.751 4.29297q-4.83008 -1.29395 -10.1328 -10.4805
q-5.30371 -9.18555 -3.49121 -15.9473q1.55273 -5.7959 7.06445 -8.97754t10.4111 -6.01074q6.12402 -3.53516 21.4932 -8.73438q15.3701 -5.19922 40.4346 -9.87012q29.4453 -5.56836 45.2285 -6.51562t22.0967 -1.32617z" />
    <glyph glyph-name="Iacute" unicode="&#xcd;" horiz-adv-x="576" 
d="M177 -69q-156 0 -156 184q0 152 81 245q68 80 156 80q49 0 77.5 -26t28.5 -75q0 -78 -60 -158q-62 -83 -126 -83q-37 0 -54.5 22t-17.5 53q0 20 8 44q11 29 23 29q9 0 9 -9q0 -5 -9 -26q-7 -15 -7 -31q0 -21 13.5 -33.5t35.5 -12.5q59 0 111 75q49 70 49 139
q0 36 -17.5 55.5t-47.5 19.5q-71 0 -142 -98q-73 -105 -69 -231q2 -56 30.5 -95t76.5 -39q135 0 345 359q-110 33 -110 130q0 65 35 117.5t96 88.5q83 48 162 48q43 0 83.5 -10.5t67.5 -33t27 -58.5q0 -12 -5.5 -23t-11.5 -11q1 0 -9 6.5t-22 6.5q-85 0 -233 -253q4 -1 8 -1
h8q25 0 48.5 9t39 25t15.5 36q0 8 -3.5 16.5t-3.5 10.5q0 8 8 8q4 0 8 -3q23 -17 23 -42t-19 -44t-48.5 -29.5t-59.5 -10.5q-17 0 -34 3q-69 -127 -168 -234q-132 -140 -240 -140zM532 344q55 90 134 171q95 98 153 98q15 0 26 -7q-1 19 -18 34.5t-40.5 24.5t-44.5 10
q-66 3 -140 -30q-63 -28 -103.5 -84.5t-40.5 -130.5q0 -72 74 -86zM765.185 744.954q-7.2793 -0.119141 -5.20898 7.6084q1.03613 3.86328 5.67578 5.72559l113.887 50.2354q12.9551 5.8457 18.751 4.29297q4.83008 -1.29395 10.1328 -10.4805
q5.30371 -9.18555 3.49121 -15.9473q-1.55273 -5.7959 -7.06445 -8.97754t-10.4111 -6.01074q-6.12402 -3.53516 -21.4932 -8.73438q-15.3701 -5.19824 -40.4346 -9.87012q-29.4453 -5.56836 -45.2285 -6.51562t-22.0967 -1.32617z" />
    <glyph glyph-name="Icircumflex" unicode="&#xce;" horiz-adv-x="576" 
d="M896 709q-7 0 -59 47q-18 17 -40 30q-11 -7 -32 -20t-53 -34q-24 -16 -32 -17q-13 -4 -20 1t8 18q29 18 46.5 29.5t31 21.5t29.5 22q11 8 21.5 15t23.5 -4q8 -7 18.5 -16.5t23.5 -24.5q23 -25 33 -37.5t10 -20.5q0 -10 -9 -10zM177 -69q-159 0 -156 191q1 146 81 238
q68 80 156 80q13 0 24.5 -2t22.5 -6q59 -23 59 -93q0 -78 -60 -158q-62 -83 -126 -83q-36 0 -53 20q-16 17 -18 45.5t7 53.5q11 29 23 29q9 0 9 -9q0 -5 -9 -26q-9 -19 -9 -35q0 -14 16 -28t35 -14q59 0 111 75q49 70 49 139q0 53 -38 70q-13 5 -27 5q-71 0 -142 -98
q-73 -105 -69 -231q1 -53 27 -91q29 -42 75 -43q135 -7 350 359q-110 33 -110 130q0 65 35 117.5t96 88.5q86 50 167 48q29 -1 55 -5.5t49 -14.5q69 -27 69 -82q0 -12 -5.5 -23t-11.5 -11q1 0 -9 6.5t-22 6.5q-85 0 -233 -253q44 -5 81 16q38 23 38 53q0 8 -3.5 16.5
t-3.5 10.5q0 8 8 8q4 0 8 -3q23 -17 23 -42q0 -31 -35 -57q-37 -27 -92 -27q-17 0 -34 3q-69 -127 -168 -234q-132 -140 -240 -140zM532 344q55 90 134 171q95 98 153 98q15 0 26 -7q-1 28 -39 49q-16 10 -32 14.5t-32 5.5q-66 3 -140 -30q-63 -28 -103.5 -84.5
t-40.5 -130.5q0 -72 74 -86z" />
    <glyph glyph-name="Idieresis" unicode="&#xcf;" horiz-adv-x="576" 
d="M700 739q-7 0 -14 10.5t-7 18.5q0 15 29 36q30 21 46 21q1 0 1.5 -0.5t1.5 -0.5q-1 0 -14 -18l-16 -40q-12 -27 -27 -27zM821 739q-7 0 -14 10.5t-7 18.5q0 15 29 36q30 21 46 21q1 0 1.5 -0.5t1.5 -0.5q-1 0 -14 -18l-16 -40q-12 -27 -27 -27zM177 -69q-159 0 -156 191
q1 146 81 238q68 80 156 80q13 0 24.5 -2t22.5 -6q59 -23 59 -93q0 -78 -60 -158q-62 -83 -126 -83q-36 0 -53 20q-16 17 -18 45.5t7 53.5q11 29 23 29q9 0 9 -9q0 -5 -9 -26q-9 -19 -9 -35q0 -14 16 -28t35 -14q59 0 111 75q49 70 49 139q0 53 -38 70q-13 5 -27 5
q-71 0 -142 -98q-73 -105 -69 -231q1 -53 27 -91q29 -42 75 -43q135 -7 350 359q-110 33 -110 130q0 65 35 117.5t96 88.5q86 50 167 48q29 -1 55 -5.5t49 -14.5q69 -27 69 -82q0 -12 -5.5 -23t-11.5 -11q1 0 -9 6.5t-22 6.5q-85 0 -233 -253q44 -5 81 16q38 23 38 53
q0 8 -3.5 16.5t-3.5 10.5q0 8 8 8q4 0 8 -3q23 -17 23 -42q0 -31 -35 -57q-37 -27 -92 -27q-17 0 -34 3q-69 -127 -168 -234q-132 -140 -240 -140zM532 344q55 90 134 171q95 98 153 98q15 0 26 -7q-1 28 -39 49q-16 10 -32 14.5t-32 5.5q-66 3 -140 -30
q-63 -28 -103.5 -84.5t-40.5 -130.5q0 -72 74 -86z" />
    <glyph glyph-name="Eth" unicode="&#xd0;" horiz-adv-x="921" 
d="M427 -58q-167 -8 -240 83q-88 -68 -129 -68q-22 0 -34 24q-9 20 -9 44q0 48 37 138q44 102 81 102q19 0 29 -60q17 -90 31 -124q23 24 54.5 61.5t70.5 86.5q-12 0 -27 3q-32 6 -32 21q0 11 9 17.5t16 6.5h3.5t6.5 1h26q8 0 17.5 0.5t19.5 -0.5l33 43q162 213 215 233
q18 7 36 7q20 0 32.5 -8.5t12.5 -19.5q0 -17 -29 -20q-35 -19 -108 -92q-37 -37 -66.5 -70.5t-50.5 -62.5l-8 -11q67 0 101 3q8 -17 -78 -32l-50 -7q-44 -58 -89.5 -106t-89.5 -85l-6 -5q56 -83 176 -83q10 0 19.5 0.5t19.5 1.5q278 26 394 241q47 86 47 164q0 90 -61 157
q-49 55 -109 69q-55 12 -115 12q-154 0 -284 -71t-137 -159q-3 -31 15 -52q12 -14 17 -16h-6q-26 5 -46 26q-23 27 -22 57q5 101 127 171q124 71 293 71q38 0 76 -4t75 -12q91 -20 158 -88q77 -80 77 -181q0 -75 -44 -155q-76 -138 -227 -202q-105 -44 -228 -50zM63 -25
q43 19 104 79q-29 48 -38 81q-6 22 -9 67q-69 -99 -69 -173q0 -31 12 -54z" />
    <glyph glyph-name="Ntilde" unicode="&#xd1;" horiz-adv-x="925" 
d="M753 -96q-25 0 -33.5 24t-8.5 48q0 86 92 247q59 101 182 272q-133 -12 -344 -210q-168 -159 -239 -273q-24 -37 -24 -53q0 -7 4.5 -9l4.5 -2q0 -2 -19 -15q-14 -8 -35 -8q-42 0 -36 19q14 44 93 162q103 153 134 209q68 122 68 193q0 50 -24.5 69t-68.5 19
q-119 0 -253 -109q-55 -45 -102 -99.5t-76 -112.5t-29 -114q0 -96 89 -98q124 -3 187 83q24 33 24 62q0 17 -11 23q-1 1 -1 3q0 4 6 4q26 0 26 -34q0 -21 -17 -53q-28 -48 -83 -76t-114 -28q-65 0 -104 39t-39 105q0 156 214 328q36 29 88 52t107.5 36t102.5 13
q59 0 93.5 -22.5t34.5 -77.5q0 -71 -58 -188q-13 -26 -33 -60t-47 -75q31 39 101 99q126 106 233 174.5t195 100.5q9 4 20 4q38 0 48 -43q5 -17 -48 -71q-125 -128 -216 -286q-83 -146 -83 -212q0 -28 19 -28q12 0 60 21q42 19 55 22q5 -2 5 -5q0 -15 -53 -42
q-52 -27 -87 -27zM825.667 688.585q-17.8877 0 -48.0146 14.2998q-31.0684 15.3994 -45.1904 15.3994q-16.9463 0 -32.0107 -14.2998q-15.0625 -14.2998 -19.7705 -14.2998q-0.941406 1.10059 -0.941406 2.2002q0 17.5996 40.4834 45.0986q15.0635 11 33.8926 11
q14.1221 0 45.1904 -12.0996q28.2441 -11 44.249 -11q22.5957 0 39.542 23.0996q5.64844 0 5.64844 -4.39941q0 -16.5 -37.6592 -46.1992q-12.2383 -8.7998 -25.4189 -8.7998z" />
    <glyph glyph-name="Ograve" unicode="&#xd2;" horiz-adv-x="784" 
d="M245 -59h-22t-22 1q-79 4 -128 52t-49 131q0 72 41 163q52 115 196 218q83 59 177 94.5t190 35.5q56 0 102.5 -15t74 -45t27.5 -76q0 -16 -4 -33.5t-13 -34.5l-11 -21q8 -27 8 -55q0 -125 -128 -239q-196 -176 -439 -176zM239 -39q197 0 375 159q128 114 138 217
q-52 -57 -180 -136l-8 -2q-8 0 26 28l56 46q36 30 62 56t43 47q-7 56 -54 96q-40 35 -96 52q-28 7 -92 9q-53 2 -53 5q0 1 2 3q47 15 90 15q20 0 44 -3t52 -10q105 -25 147 -102q10 24 10 49q0 41 -23.5 69t-63 42t-87.5 14q-151 0 -290 -97q-129 -90 -204 -232
q-55 -103 -55 -185q0 -132 133 -139q7 -1 14 -1h14zM697.851 672.953q7.2793 -0.120117 5.20898 7.60742q-1.03613 3.86328 -5.67578 5.72656l-113.887 50.2344q-12.9551 5.84668 -18.751 4.29297q-4.83008 -1.29395 -10.1328 -10.4795q-5.30371 -9.18652 -3.49121 -15.9482
q1.55273 -5.79492 7.06445 -8.97754q5.51172 -3.18164 10.4111 -6.00977q6.12402 -3.53613 21.4932 -8.73438q15.3701 -5.19922 40.4346 -9.87109q29.4453 -5.56836 45.2285 -6.51562q15.7832 -0.946289 22.0967 -1.3252z" />
    <glyph glyph-name="Oacute" unicode="&#xd3;" horiz-adv-x="784" 
d="M245 -59h-22t-22 1q-79 4 -128 52t-49 131q0 72 41 163q52 115 196 218q83 59 177 94.5t190 35.5q56 0 102.5 -15t74 -45t27.5 -76q0 -16 -4 -33.5t-13 -34.5l-11 -21q8 -27 8 -55q0 -125 -128 -239q-196 -176 -439 -176zM239 -39q197 0 375 159q128 114 138 217
q-52 -57 -180 -136l-8 -2q-8 0 26 28l56 46q36 30 62 56t43 47q-7 56 -54 96q-40 35 -96 52q-28 7 -92 9q-53 2 -53 5q0 1 2 3q47 15 90 15q20 0 44 -3t52 -10q105 -25 147 -102q10 24 10 49q0 41 -23.5 69t-63 42t-87.5 14q-151 0 -290 -97q-129 -90 -204 -232
q-55 -103 -55 -185q0 -132 133 -139q7 -1 14 -1h14zM600.181 677.953q-7.2793 -0.120117 -5.20898 7.60742q1.03613 3.86426 5.67578 5.72656l113.887 50.2344q12.9551 5.84668 18.751 4.29297q4.83008 -1.29395 10.1328 -10.4795q5.30371 -9.18652 3.49121 -15.9482
q-1.55273 -5.79492 -7.06445 -8.97754q-5.51172 -3.18164 -10.4111 -6.00977q-6.12402 -3.53516 -21.4932 -8.73438q-15.3701 -5.19922 -40.4346 -9.87109q-29.4453 -5.56836 -45.2285 -6.51562q-15.7832 -0.946289 -22.0967 -1.3252z" />
    <glyph glyph-name="Ocircumflex" unicode="&#xd4;" horiz-adv-x="784" 
d="M245 -59h-22t-22 1q-79 4 -128 52t-49 131q0 72 41 163q52 115 196 218q83 59 177 94.5t190 35.5q56 0 102.5 -15t74 -45t27.5 -76q0 -16 -4 -33.5t-13 -34.5l-11 -21q8 -27 8 -55q0 -125 -128 -239q-196 -176 -439 -176zM239 -39q197 0 375 159q128 114 138 217
q-52 -57 -180 -136l-8 -2q-8 0 26 28l56 46q36 30 62 56t43 47q-7 56 -54 96q-40 35 -96 52q-28 7 -92 9q-53 2 -53 5q0 1 2 3q47 15 90 15q20 0 44 -3t52 -10q105 -25 147 -102q10 24 10 49q0 41 -23.5 69t-63 42t-87.5 14q-151 0 -290 -97q-129 -90 -204 -232
q-55 -103 -55 -185q0 -132 133 -139q7 -1 14 -1h14zM711 679q-13 0 -35 13q-10 5 -26 17t-18 13q-4 -2 -7.5 -5.5t-27.5 -19.5q-34 -23 -42 -23q-7 0 -4 8q2 4 8.5 11.5t30.5 23.5q26 18 36.5 24t16.5 6q13 0 37 -15.5t40 -31.5q2 -3 2 -8q0 -8 -2 -10.5t-9 -2.5z" />
    <glyph glyph-name="Otilde" unicode="&#xd5;" horiz-adv-x="784" 
d="M245 -59h-22t-22 1q-79 4 -128 52t-49 131q0 72 41 163q52 115 196 218q83 59 177 94.5t190 35.5q56 0 102.5 -15t74 -45t27.5 -76q0 -16 -4 -33.5t-13 -34.5l-11 -21q8 -27 8 -55q0 -125 -128 -239q-196 -176 -439 -176zM239 -39q197 0 375 159q128 114 138 217
q-52 -57 -180 -136l-8 -2q-8 0 26 28l56 46q36 30 62 56t43 47q-7 56 -54 96q-40 35 -96 52q-28 7 -92 9q-53 2 -53 5q0 1 2 3q47 15 90 15q20 0 44 -3t52 -10q105 -25 147 -102q10 24 10 49q0 41 -23.5 69t-63 42t-87.5 14q-151 0 -290 -97q-129 -90 -204 -232
q-55 -103 -55 -185q0 -132 133 -139q7 -1 14 -1h14zM663.734 702.885q-17.8877 0 -48.0146 14.2988q-31.0684 15.4004 -45.1904 15.4004q-16.9463 0 -32.0098 -14.2998t-19.7715 -14.2998q-0.941406 1.09961 -0.941406 2.2002q0 17.5996 40.4834 45.0986
q15.0635 11 33.8926 11q14.1221 0 45.1904 -12.0996q28.2441 -11 44.249 -11q22.5957 0 39.542 23.0996q5.64844 0 5.64844 -4.40039q0 -16.499 -37.6582 -46.1982q-12.2393 -8.7998 -25.4199 -8.7998z" />
    <glyph glyph-name="Odieresis" unicode="&#xd6;" horiz-adv-x="784" 
d="M245 -59h-22t-22 1q-79 4 -128 52t-49 131q0 72 41 163q52 115 196 218q83 59 177 94.5t190 35.5q56 0 102.5 -15t74 -45t27.5 -76q0 -16 -4 -33.5t-13 -34.5l-11 -21q8 -27 8 -55q0 -125 -128 -239q-196 -176 -439 -176zM239 -39q197 0 375 159q128 114 138 217
q-52 -57 -180 -136l-8 -2q-8 0 26 28l56 46q36 30 62 56t43 47q-7 56 -54 96q-40 35 -96 52q-28 7 -92 9q-53 2 -53 5q0 1 2 3q47 15 90 15q20 0 44 -3t52 -10q105 -25 147 -102q10 24 10 49q0 41 -23.5 69t-63 42t-87.5 14q-151 0 -290 -97q-129 -90 -204 -232
q-55 -103 -55 -185q0 -132 133 -139q7 -1 14 -1h14zM667 677q-7 0 -14 10.5t-7 18.5q0 15 29 36q14 12 27.5 12.5t7.5 -10.5l-16 -40q-12 -27 -27 -27zM546 677q-7 0 -14 10.5t-7 18.5q0 15 29 36q20 12 30 11t5 -9l-16 -40q-12 -27 -27 -27z" />
    <glyph glyph-name="multiply" unicode="&#xd7;" horiz-adv-x="284" 
d="M27 76q-6 0 -6 5q3 6 18.5 21.5t35 34t35.5 33t21 17.5l-10 56q-7 27 -15 35.5t-14 10t-6 4.5q0 6 39 6q10 0 15 1t8.5 -5t7 -26t9.5 -62q6 6 23.5 21t38 31t35.5 28t16 12q13 0 13 -12q0 -3 -4 -7l-119 -91q15 -91 59 -91q7 0 17 3.5t11 3.5q3 0 3 -2q0 -5 -12.5 -11
t-27.5 -10t-23 -4q-24 0 -36.5 21t-23.5 70q-1 -1 -15 -15.5t-33 -32.5t-36 -31.5t-24 -13.5z" />
    <glyph glyph-name="Oslash" unicode="&#xd8;" horiz-adv-x="784" 
d="M209 -124q-17 0 -17 29q0 8 1 18t3 20q-76 5 -124 52.5t-48 129.5q0 72 41 163q52 115 196 218q159 114 327 128q10 1 20 1.5t20 0.5h17t16 -1q54 63 65 63t19 -8q12 -11 -4 -30l-29 -33q42 -11 69 -31q51 -37 51 -96q0 -32 -17 -68l-11 -21q8 -27 8 -55
q0 -125 -128 -239q-197 -176 -441 -176h-22q-1 -5 -1.5 -10.5t-0.5 -10.5q0 -19 11 -25q5 -1 0 -9q-7 -10 -21 -10zM201 -37q2 9 5.5 19t7.5 20q31 85 261 394q29 38 54 71t47 61q-13 2 -30 3t-37 2q-53 2 -53 5q0 1 2 3q47 15 90 15q11 0 22.5 -1t24.5 -3q14 18 26.5 33.5
t22.5 28.5q-4 1 -8 1h-9q-151 0 -290 -97q-129 -90 -204 -232q-55 -103 -55 -185q0 -126 123 -138zM791 441q10 24 10 49q0 34 -22 65q-28 39 -83 52q-13 -15 -26 -31t-27 -33h1q105 -25 147 -102zM228 -38q204 -5 386 158q128 114 138 217q-52 -57 -180 -136l-8 -2
q-8 0 26 28l56 46q35 31 61.5 56.5t43.5 46.5q-7 56 -54 96q-33 29 -76 45q-42 -52 -85.5 -109t-90.5 -119q-179 -238 -217 -327z" />
    <glyph glyph-name="Ugrave" unicode="&#xd9;" horiz-adv-x="801" 
d="M345 -19q-43 0 -43 29q0 52 145 257q59 83 96 136t52 76q61 94 61 128q0 19 -21.5 25t-47.5 6q-110 0 -281 -117q-45 -31 -90.5 -74.5t-83.5 -92.5t-61.5 -97.5t-23.5 -90.5q0 -34 18 -46.5t54 -12.5q51 0 105 33q27 16 68 53l18 6q-19 -36 -76 -71q-64 -39 -128 -39
q-47 0 -69.5 28t-22.5 69q0 157 296 369q39 28 90 52t104 39t97 15q23 0 45.5 -5.5t37 -18t14.5 -33.5q0 -30 -44 -100q-15 -24 -48.5 -71t-85.5 -118q-44 -59 -88 -134q-14 -24 -28.5 -51t-23.5 -50t-9 -37q0 -17 14 -17q27 0 101 56q176 134 414 435q38 48 61 48q9 0 9 -9
q0 -4 -3 -10q5 -24 -23 -63l-118 -167q-34 -47 -63.5 -93.5t-55.5 -90.5q-63 -106 -59 -122l18 6q18 10 45 30t42 35q13 10 16 10l2 -2q0 -9 -27 -38q-70 -61 -104 -61q-26 0 -26 19t40 92q36 67 82.5 141.5t102.5 157.5q-7 -9 -23 -27t-40 -44q-64 -65 -108 -109.5
t-69 -69.5q-92 -92 -118 -112q-73 -57 -136 -57zM901.855 642.952q7.2793 -0.120117 5.20898 7.60742q-1.03613 3.86426 -5.67578 5.72656l-113.887 50.2344q-12.9551 5.84668 -18.751 4.29395q-4.83008 -1.29492 -10.1328 -10.4805q-5.30371 -9.18652 -3.49121 -15.9473
q1.55273 -5.7959 7.06445 -8.97852q5.51172 -3.18164 10.4111 -6.00977q6.12402 -3.53516 21.4932 -8.73438q15.3701 -5.19922 40.4346 -9.87109q29.4453 -5.56836 45.2285 -6.51465q15.7832 -0.947266 22.0967 -1.32617z" />
    <glyph glyph-name="Uacute" unicode="&#xda;" horiz-adv-x="801" 
d="M345 -19q-43 0 -43 29q0 52 145 257q59 83 96 136t52 76q61 94 61 128q0 19 -21.5 25t-47.5 6q-110 0 -281 -117q-45 -31 -90.5 -74.5t-83.5 -92.5t-61.5 -97.5t-23.5 -90.5q0 -34 18 -46.5t54 -12.5q51 0 105 33q27 16 68 53l18 6q-19 -36 -76 -71q-64 -39 -128 -39
q-47 0 -69.5 28t-22.5 69q0 157 296 369q39 28 90 52t104 39t97 15q23 0 45.5 -5.5t37 -18t14.5 -33.5q0 -30 -44 -100q-15 -24 -48.5 -71t-85.5 -118q-44 -59 -88 -134q-14 -24 -28.5 -51t-23.5 -50t-9 -37q0 -17 14 -17q27 0 101 56q176 134 414 435q38 48 61 48q9 0 9 -9
q0 -4 -3 -10q5 -24 -23 -63l-118 -167q-34 -47 -63.5 -93.5t-55.5 -90.5q-63 -106 -59 -122l18 6q18 10 45 30t42 35q13 10 16 10l2 -2q0 -9 -27 -38q-70 -61 -104 -61q-26 0 -26 19t40 92q36 67 82.5 141.5t102.5 157.5q-7 -9 -23 -27t-40 -44q-64 -65 -108 -109.5
t-69 -69.5q-92 -92 -118 -112q-73 -57 -136 -57zM804.186 647.952q-7.2793 -0.120117 -5.20898 7.60742q1.03613 3.86426 5.67578 5.72656l113.887 50.2354q12.9551 5.8457 18.751 4.29297q4.83008 -1.29492 10.1328 -10.4805q5.30371 -9.18555 3.49121 -15.9473
q-1.55273 -5.7959 -7.06445 -8.97754q-5.51172 -3.18262 -10.4111 -6.01074q-6.12402 -3.53516 -21.4932 -8.73438q-15.3701 -5.19922 -40.4346 -9.87109q-29.4453 -5.56836 -45.2285 -6.51465q-15.7832 -0.947266 -22.0967 -1.32617z" />
    <glyph glyph-name="Ucircumflex" unicode="&#xdb;" horiz-adv-x="801" 
d="M345 -19q-43 0 -43 29q0 52 145 257q59 83 96 136t52 76q61 94 61 128q0 19 -21.5 25t-47.5 6q-110 0 -281 -117q-45 -31 -90.5 -74.5t-83.5 -92.5t-61.5 -97.5t-23.5 -90.5q0 -34 18 -46.5t54 -12.5q51 0 105 33q27 16 68 53l18 6q-19 -36 -76 -71q-64 -39 -128 -39
q-47 0 -69.5 28t-22.5 69q0 157 296 369q39 28 90 52t104 39t97 15q23 0 45.5 -5.5t37 -18t14.5 -33.5q0 -30 -44 -100q-15 -24 -48.5 -71t-85.5 -118q-44 -59 -88 -134q-14 -24 -28.5 -51t-23.5 -50t-9 -37q0 -17 14 -17q27 0 101 56q176 134 414 435q38 48 61 48q9 0 9 -9
q0 -4 -3 -10q5 -24 -23 -63l-118 -167q-34 -47 -63.5 -93.5t-55.5 -90.5q-63 -106 -59 -122l18 6q18 10 45 30t42 35q13 10 16 10l2 -2q0 -9 -27 -38q-70 -61 -104 -61q-26 0 -26 19t40 92q36 67 82.5 141.5t102.5 157.5q-7 -9 -23 -27t-40 -44q-64 -65 -108 -109.5
t-69 -69.5q-92 -92 -118 -112q-73 -57 -136 -57zM749 646q-9 0 -4 8q6 10 19.5 21t28.5 21q26 17 47 29t33 12q7 0 18 -11.5t23 -26t23 -25.5q2 -3 2 -8q0 -20 -22 -20q-7 0 -14.5 5.5t-11.5 9.5q-8 8 -19.5 22t-19.5 22q-9 -6 -18 -12.5t-19 -11.5q-27 -15 -44 -25t-22 -10
z" />
    <glyph glyph-name="Udieresis" unicode="&#xdc;" horiz-adv-x="801" 
d="M345 -19q-43 0 -43 29q0 52 145 257q59 83 96 136t52 76q61 94 61 128q0 19 -21.5 25t-47.5 6q-110 0 -281 -117q-45 -31 -90.5 -74.5t-83.5 -92.5t-61.5 -97.5t-23.5 -90.5q0 -34 18 -46.5t54 -12.5q51 0 105 33q27 16 68 53l18 6q-19 -36 -76 -71q-64 -39 -128 -39
q-47 0 -69.5 28t-22.5 69q0 157 296 369q39 28 90 52t104 39t97 15q23 0 45.5 -5.5t37 -18t14.5 -33.5q0 -30 -44 -100q-15 -24 -48.5 -71t-85.5 -118q-44 -59 -88 -134q-14 -24 -28.5 -51t-23.5 -50t-9 -37q0 -17 14 -17q27 0 101 56q176 134 414 435q38 48 61 48q9 0 9 -9
q0 -4 -3 -10q5 -24 -23 -63l-118 -167q-34 -47 -63.5 -93.5t-55.5 -90.5q-63 -106 -59 -122l18 6q18 10 45 30t42 35q13 10 16 10l2 -2q0 -9 -27 -38q-70 -61 -104 -61q-26 0 -26 19t40 92q36 67 82.5 141.5t102.5 157.5q-7 -9 -23 -27t-40 -44q-64 -65 -108 -109.5
t-69 -69.5q-92 -92 -118 -112q-73 -57 -136 -57zM871 647q-7 0 -14 10.5t-7 18.5q0 15 29 36q14 12 27.5 12.5t7.5 -10.5l-16 -40q-12 -27 -27 -27zM750 647q-7 0 -14 10.5t-7 18.5q0 15 29 36q20 12 30 11t5 -9l-16 -40q-12 -27 -27 -27z" />
    <glyph glyph-name="Yacute" unicode="&#xdd;" horiz-adv-x="882" 
d="M336 -254q-25 0 -50.5 12t-43 32t-17.5 43q0 21 21 21q4 0 7.5 -0.5t7.5 -1.5q12 -43 25 -63.5t53 -20.5q62 0 135.5 85t166.5 251l180 321l-104 -111q-64 -68 -106 -111t-62 -63q-36 -36 -71 -67t-69.5 -50t-70.5 -19q-57 0 -57 67q0 80 68 165l50 60t50 61
q81 102 119 167q14 25 21.5 44t7.5 34q0 22 -19 32.5t-61 10.5q-106 0 -293 -128q-44 -29 -83 -71t-63 -88t-24 -89q0 -44 26.5 -63.5t65.5 -19.5q51 0 113 44q73 49 82 52q-10 -37 -79 -81q-76 -47 -142 -47q-52 0 -79 36t-27 84q0 136 199 278q40 29 96.5 54t115.5 40.5
t106 15.5q44 0 76 -17t32 -55q0 -46 -59 -137q-25 -39 -68.5 -96t-105.5 -131q-25 -29 -46 -76q-21 -46 -21 -74q0 -27 21 -27q22 0 65 31q122 87 251 219q114 116 171 200q41 59 87 59q16 0 16 -10q0 -2 -0.5 -4t-1.5 -4q-53 -93 -138.5 -239t-204.5 -345q-33 -54 -77 -102
t-93 -78t-99 -30zM766.185 650.952q-7.2793 -0.120117 -5.20898 7.60742q1.03613 3.86426 5.67578 5.72656l113.887 50.2354q12.9551 5.8457 18.751 4.29297q4.83008 -1.29492 10.1328 -10.4805q5.30371 -9.18555 3.49121 -15.9473q-1.55273 -5.7959 -7.06445 -8.97754
q-5.51172 -3.18262 -10.4111 -6.01074q-6.12402 -3.53516 -21.4932 -8.73438q-15.3701 -5.19922 -40.4346 -9.87109q-29.4453 -5.56836 -45.2285 -6.51465q-15.7832 -0.947266 -22.0967 -1.32617z" />
    <glyph glyph-name="Thorn" unicode="&#xde;" horiz-adv-x="165" 
d="M-13 -220q-35 0 -39 27t16.5 72t55.5 99l346 527q19 31 30.5 52.5t14.5 34.5q6 21 -12 21q-7 0 -19.5 -3.5t-17.5 -3.5q-6 0 -5 6q5 15 49 15q26 0 45.5 -12.5t11.5 -38.5q-2 -10 -13 -28.5t-37 -59.5q-6 -9 -17.5 -27.5t-25 -41t-26 -42.5t-20.5 -31q10 9 42 18
q15 5 26.5 7t18.5 3q41 2 68.5 -19.5t27.5 -56.5q0 -40 -22.5 -86.5t-71.5 -84.5q-44 -34 -84.5 -44.5t-74.5 -10.5q-45 0 -62 5q-20 6 -39 25q-37 -54 -72.5 -110t-62.5 -103t-37 -74q-8 -24 11 -24q7 0 18.5 5.5t15.5 5.5q3 0 1 -2q-2 -7 -17.5 -13.5t-22.5 -6.5zM241 100
q28 0 61.5 7.5t70.5 35.5q43 34 63 78.5t20 86.5q0 38 -47 38q-43 0 -80 -19q-6 -3 -17 -12t-27 -25q-28 -40 -59 -83.5t-61 -87.5q9 -8 26 -12q22 -7 50 -7z" />
    <glyph glyph-name="germandbls" unicode="&#xdf;" horiz-adv-x="581" 
d="M-328 -320q-51 0 -84.5 24t-28.5 67q2 13 6 27.5t14 30.5l15 14q3 6 12 6q1 0 1 -0.5v-0.5q-15 -19 -19.5 -31t-6.5 -26q-5 -43 23 -64.5t68 -21.5q24 0 48 7.5t45 23.5q73 55 130.5 132t105 167t90.5 184t85.5 183t90.5 164q28 44 62 71t80 27q39 0 69.5 -9t48 -35
t17.5 -79q0 -56 -36 -85.5t-97 -49.5q-19 -7 -41 -17t-37.5 -25.5t-15.5 -41.5q0 -39 70 -59q51 -10 78 -17.5t39.5 -12.5t20.5 -11q20 -15 28.5 -32t7.5 -34q-3 -42 -32.5 -74.5t-73 -55.5t-90 -34.5t-82.5 -11.5q-10 0 -24 3t-23 4q5 -3 21 -10t33.5 -13.5t26.5 -9.5
q2 0 2 -2q0 -4 -10 -4q-6 0 -24 7t-37 16.5t-29 17.5q-43 6 -61 23q-14 11 -24 29q-11 22 -11 40t12 34.5t32 16.5q17 0 20 -29q4 -27 8 -42t5 -20q4 -12 8.5 -23.5t13.5 -19.5q22 -5 44 -5q54 0 102 21q17 7 40.5 19.5t46 30t37 38t14.5 43.5q0 16 -12.5 29.5t-38.5 20.5
l-108 27q-32 9 -52 30t-20 47q0 32 18 56t46 41t59 27q43 14 71.5 47.5t28.5 67.5q0 51 -22.5 77t-60.5 26q-32 0 -63.5 -32.5t-64 -88.5t-66.5 -128t-71 -152t-77 -159.5t-84 -151.5t-93.5 -128t-105 -88.5t-118.5 -32.5zM204 3q-15 15 -24 42.5t-13 48.5l-3 19.5t-5 6.5
t-11 -6t-7 -25q0 -38 27 -65q14 -13 36 -21z" />
    <glyph glyph-name="agrave" unicode="&#xe0;" horiz-adv-x="412" 
d="M67 -5q-24 0 -48 17t-27 40q-10 77 97 183q106 106 191 106q23 0 36 -11q7 -7 10.5 -19t5.5 -12q4 0 7 1.5t7 1.5q12 0 21 -9t10 -16q1 -2 -64 -99q-65 -95 -59 -129q5 -23 22 -23q52 0 190 172q3 4 6 4q5 0 5 -7q0 -8 -9 -20q-127 -171 -195 -171q-9 0 -17 3
q-44 17 -44 66q0 17 4 34l-62 -60q-28 -28 -50.5 -40t-36.5 -12zM58 17q58 0 158 127l106 146q-8 14 -26 14q-61 0 -165 -98q-108 -100 -97 -165q5 -24 24 -24zM378 376q7 -2 7 6q0 4 -4 7l-97 78q-11 9 -17 9q-5 0 -12.5 -7.5t-7.5 -14.5q0 -6 4.5 -10.5l8.5 -8.5
q5 -5 18.5 -14t36.5 -20q27 -13 42 -18z" />
    <glyph glyph-name="aacute" unicode="&#xe1;" horiz-adv-x="412" 
d="M67 -5q-24 0 -48 17t-27 40q-10 77 97 183q106 106 191 106q23 0 36 -11q7 -7 10.5 -19t5.5 -12q4 0 7 1.5t7 1.5q12 0 21 -9t10 -16q1 -2 -64 -99q-65 -95 -59 -129q5 -23 22 -23q52 0 190 172q3 4 6 4q5 0 5 -7q0 -8 -9 -20q-127 -171 -195 -171q-9 0 -17 3
q-44 17 -44 66q0 17 4 34l-62 -60q-28 -28 -50.5 -40t-36.5 -12zM58 17q58 0 158 127l106 146q-8 14 -26 14q-61 0 -165 -98q-108 -100 -97 -165q5 -24 24 -24zM300 381q-7 -2 -7 6q0 4 4 7l97 78q11 9 17 9q5 0 12.5 -7.5t7.5 -14.5q0 -6 -4.5 -10.5l-8.5 -8.5
q-5 -5 -18.5 -14t-36.5 -20q-27 -13 -42 -18z" />
    <glyph glyph-name="acircumflex" unicode="&#xe2;" horiz-adv-x="412" 
d="M67 -5q-24 0 -48 17t-27 40q-10 77 97 183q106 106 191 106q23 0 36 -11q7 -7 10.5 -19t5.5 -12q4 0 7 1.5t7 1.5q12 0 21 -9t10 -16q1 -2 -64 -99q-65 -95 -59 -129q5 -23 22 -23q52 0 190 172q3 4 6 4q5 0 5 -7q0 -8 -9 -20q-127 -171 -195 -171q-9 0 -17 3
q-44 17 -44 66q0 17 4 34l-62 -60q-28 -28 -50.5 -40t-36.5 -12zM58 17q58 0 158 127l106 146q-8 14 -26 14q-61 0 -165 -98q-108 -100 -97 -165q5 -24 24 -24zM235 377q-9 0 -4 8q6 10 19.5 21t28.5 21q26 17 47 29t33 12q7 0 18 -11.5t23 -26t23 -25.5q2 -3 2 -8
q0 -20 -22 -20q-7 0 -14.5 5.5t-11.5 9.5q-8 8 -19.5 22t-19.5 22q-9 -6 -18 -12.5t-19 -11.5q-27 -15 -44 -25t-22 -10z" />
    <glyph glyph-name="atilde" unicode="&#xe3;" horiz-adv-x="412" 
d="M67 -5q-24 0 -48 17t-27 40q-10 77 97 183q106 106 191 106q23 0 36 -11q7 -7 10.5 -19t5.5 -12q4 0 7 1.5t7 1.5q12 0 21 -9t10 -16q1 -2 -64 -99q-65 -95 -59 -129q5 -23 22 -23q52 0 190 172q3 4 6 4q5 0 5 -7q0 -8 -9 -20q-127 -171 -195 -171q-9 0 -17 3
q-44 17 -44 66q0 17 4 34l-62 -60q-28 -28 -50.5 -40t-36.5 -12zM58 17q58 0 158 127l106 146q-8 14 -26 14q-61 0 -165 -98q-108 -100 -97 -165q5 -24 24 -24zM371.88 373.992q-17.8877 0 -48.0146 14.2988q-31.0693 15.4004 -45.1914 15.4004
q-16.9463 0 -32.0098 -14.2998t-19.7705 -14.2998q-0.941406 1.09961 -0.941406 2.2002q0 17.5996 40.4834 45.0986q15.0635 11 33.8926 11q14.1221 0 45.1904 -12.0996q28.2441 -11 44.249 -11q22.5947 0 39.541 23.0996q5.64941 0 5.64941 -4.40039
q0 -16.499 -37.6592 -46.1992q-12.2383 -8.79883 -25.4189 -8.79883z" />
    <glyph glyph-name="adieresis" unicode="&#xe4;" horiz-adv-x="412" 
d="M67 -5q-24 0 -48 17t-27 40q-10 77 97 183q106 106 191 106q23 0 36 -11q7 -7 10.5 -19t5.5 -12q4 0 7 1.5t7 1.5q12 0 21 -9t10 -16q1 -2 -64 -99q-65 -95 -59 -129q5 -23 22 -23q52 0 190 172q3 4 6 4q5 0 5 -7q0 -8 -9 -20q-127 -171 -195 -171q-9 0 -17 3
q-44 17 -44 66q0 17 4 34l-62 -60q-28 -28 -50.5 -40t-36.5 -12zM58 17q58 0 158 127l106 146q-8 14 -26 14q-61 0 -165 -98q-108 -100 -97 -165q5 -24 24 -24zM357 378q-7 0 -14 10.5t-7 18.5q0 15 29 36q14 12 27.5 12.5t7.5 -10.5l-16 -40q-12 -27 -27 -27zM236 378
q-7 0 -14 10.5t-7 18.5q0 15 29 36q20 12 30 11t5 -9l-16 -40q-12 -27 -27 -27z" />
    <glyph glyph-name="aring" unicode="&#xe5;" horiz-adv-x="412" 
d="M67 -5q-24 0 -48 17t-27 40q-10 77 97 183q106 106 191 106q23 0 36 -11q7 -7 10.5 -19t5.5 -12q4 0 7 1.5t7 1.5q12 0 21 -9t10 -16q1 -2 -64 -99q-65 -95 -59 -129q5 -23 22 -23q52 0 190 172q3 4 6 4q5 0 5 -7q0 -8 -9 -20q-127 -171 -195 -171q-9 0 -17 3
q-44 17 -44 66q0 17 4 34l-62 -60q-28 -28 -50.5 -40t-36.5 -12zM58 17q58 0 158 127l106 146q-8 14 -26 14q-61 0 -165 -98q-108 -100 -97 -165q5 -24 24 -24zM317 377q-41 0 -41 38q0 23 10 44q12 27 29 32q17 32 51 32q19 0 31 -15.5t12 -36.5q0 -36 -28 -65
q-29 -29 -64 -29zM328 396q24 0 40.5 24t16.5 49q0 36 -22 36q-12 0 -29 -13l11 -6q-1 -4 -6.5 -11.5t-13.5 -20.5q-12 -18 -12 -38t15 -20z" />
    <glyph glyph-name="ae" unicode="&#xe6;" horiz-adv-x="282" 
d="M39 -4q-26 0 -26 28q0 42 41 104q42 61 82 76q15 5 28 5q28 0 42 -20q26 23 53 23q21 0 21 -24q0 -26 -39 -62q-35 -33 -64 -44q-6 -19 -6 -35q0 -33 30 -33q58 0 120 71q8 8 12 8q3 0 3 -3t-1 -5q-19 -31 -62 -60q-46 -29 -81 -29q-23 0 -34 11q-7 14 -17 29
q-6 30 -3 59q-55 -99 -99 -99zM182 99q24 11 46 33q27 26 27 47q0 9 -10 9q-13 0 -37 -38q-20 -33 -26 -51zM54 21q27 0 67 67q30 48 48 93q-2 1 -8 1q-34 0 -78 -54q-42 -52 -42 -90q0 -17 13 -17z" />
    <glyph glyph-name="ccedilla" unicode="&#xe7;" horiz-adv-x="283" 
d="M-69 -280q-9 0 -9 11q0 5 9 8l36 6t36 5q35 11 35 58q0 13 -26 51q-26 37 -26 56q0 28 12.5 51.5t34.5 32.5q-41 20 -41 63q0 71 87 162q89 92 159 92q24 0 38 -12.5t14 -30.5q0 -25 -12 -46q-14 -26 -40 -26t-26 16q0 11 13 33q14 23 14 24q0 2 -3 2q-28 -3 -78 -41
q-22 -17 -38.5 -32t-26.5 -29l-39 -57q-10 -16 -18 -55q-4 -23 10 -39t37 -16q50 0 132 65q66 52 106 105q5 6 12 6q13 0 2 -14q-55 -73 -129 -126q-79 -56 -130 -56q-11 0 -20 3q-1 0 -1.5 0.5t-1.5 0.5q-15 -7 -23.5 -23t-8.5 -36q0 -11 29 -48q30 -37 30 -65
q0 -47 -53 -76q-44 -23 -96 -23z" />
    <glyph glyph-name="egrave" unicode="&#xe8;" horiz-adv-x="257" 
d="M51 -13q-32 0 -58 20.5t-26 54.5q0 71 87 162q89 92 159 92q23 0 37.5 -12.5t14.5 -30.5q0 -56 -89 -110q-79 -48 -133 -48q-8 0 -14 2q-15 -27 -15 -57q0 -52 49 -52q50 0 129 67q61 49 104 104q9 12 16 12q6 0 6 -6t-8 -17q-28 -37 -60 -68t-69 -57q-77 -56 -130 -56z
M57 137q38 0 99 38q20 14 39.5 31.5t32 35.5t12.5 32q0 13 -21 13q-30 0 -84 -45q-26 -22 -50 -48t-41 -55q6 -2 13 -2zM273 355q7 -2 7 6q0 4 -4 7l-97 78q-11 9 -17 9q-5 0 -12.5 -7.5t-7.5 -14.5q0 -6 4.5 -10.5l8.5 -8.5q5 -5 18.5 -14t36.5 -20q27 -13 42 -18z" />
    <glyph glyph-name="eacute" unicode="&#xe9;" horiz-adv-x="257" 
d="M51 -13q-32 0 -58 20.5t-26 54.5q0 71 87 162q89 92 159 92q23 0 37.5 -12.5t14.5 -30.5q0 -56 -89 -110q-79 -48 -133 -48q-8 0 -14 2q-15 -27 -15 -57q0 -52 49 -52q50 0 129 67q61 49 104 104q9 12 16 12q6 0 6 -6t-8 -17q-28 -37 -60 -68t-69 -57q-77 -56 -130 -56z
M57 137q38 0 99 38q20 14 39.5 31.5t32 35.5t12.5 32q0 13 -21 13q-30 0 -84 -45q-26 -22 -50 -48t-41 -55q6 -2 13 -2zM195 360q-7 -2 -7 6q0 4 4 7l97 78q11 9 17 9q5 0 12.5 -7.5t7.5 -14.5q0 -6 -4.5 -10.5l-8.5 -8.5q-5 -5 -18.5 -14t-36.5 -20q-27 -13 -42 -18z" />
    <glyph glyph-name="ecircumflex" unicode="&#xea;" horiz-adv-x="257" 
d="M51 -13q-32 0 -58 20.5t-26 54.5q0 71 87 162q89 92 159 92q23 0 37.5 -12.5t14.5 -30.5q0 -56 -89 -110q-79 -48 -133 -48q-8 0 -14 2q-15 -27 -15 -57q0 -52 49 -52q50 0 129 67q61 49 104 104q9 12 16 12q6 0 6 -6t-8 -17q-28 -37 -60 -68t-69 -57q-77 -56 -130 -56z
M57 137q38 0 99 38q20 14 39.5 31.5t32 35.5t12.5 32q0 13 -21 13q-30 0 -84 -45q-26 -22 -50 -48t-41 -55q6 -2 13 -2zM130 356q-9 0 -4 8q6 10 19.5 21t28.5 21q26 17 47 29t33 12q7 0 18 -11.5t23 -26t23 -25.5q2 -3 2 -8q0 -20 -22 -20q-7 0 -14.5 5.5t-11.5 9.5
q-8 8 -19.5 22t-19.5 22q-9 -6 -18 -12.5t-19 -11.5q-27 -15 -44 -25t-22 -10z" />
    <glyph glyph-name="edieresis" unicode="&#xeb;" horiz-adv-x="257" 
d="M51 -13q-32 0 -58 20.5t-26 54.5q0 71 87 162q89 92 159 92q23 0 37.5 -12.5t14.5 -30.5q0 -56 -89 -110q-79 -48 -133 -48q-8 0 -14 2q-15 -27 -15 -57q0 -52 49 -52q50 0 129 67q61 49 104 104q9 12 16 12q6 0 6 -6t-8 -17q-28 -37 -60 -68t-69 -57q-77 -56 -130 -56z
M57 137q38 0 99 38q20 14 39.5 31.5t32 35.5t12.5 32q0 13 -21 13q-30 0 -84 -45q-26 -22 -50 -48t-41 -55q6 -2 13 -2zM252 357q-7 0 -14 10.5t-7 18.5q0 15 29 36q14 12 27.5 12.5t7.5 -10.5l-16 -40q-12 -27 -27 -27zM131 357q-7 0 -14 10.5t-7 18.5q0 15 29 36
q20 12 30 11t5 -9l-16 -40q-12 -27 -27 -27z" />
    <glyph glyph-name="igrave" unicode="&#xec;" horiz-adv-x="226" 
d="M36 -11q-22 0 -36.5 14.5t-14.5 51.5q0 21 9.5 48.5t24 55.5t28.5 50q56 91 92 92q9 0 22 -7.5t13 -16.5l-76 -98q-75 -97 -75 -138q0 -32 25 -32q16 0 41.5 13.5t53.5 34.5t53.5 45t41.5 44q10 13 17.5 18t9.5 5q4 0 4 -6q0 -5 -11.5 -20t-31.5 -35q-24 -24 -53 -52
t-63 -47.5t-74 -19.5zM235 359q7 -2 7 6q0 4 -4 7l-97 78q-11 9 -17 9q-5 0 -12.5 -7.5t-7.5 -14.5q0 -6 4.5 -10.5l8.5 -8.5q5 -5 18.5 -14t36.5 -20q27 -13 42 -18z" />
    <glyph glyph-name="iacute" unicode="&#xed;" horiz-adv-x="226" 
d="M36 -11q-22 0 -36.5 14.5t-14.5 51.5q0 21 9.5 48.5t24 55.5t28.5 50q56 91 92 92q9 0 22 -7.5t13 -16.5l-76 -98q-75 -97 -75 -138q0 -32 25 -32q16 0 41.5 13.5t53.5 34.5t53.5 45t41.5 44q10 13 17.5 18t9.5 5q4 0 4 -6q0 -5 -11.5 -20t-31.5 -35q-24 -24 -53 -52
t-63 -47.5t-74 -19.5zM157 364q-7 -2 -7 6q0 4 4 7l97 78q11 9 17 9q5 0 12.5 -7.5t7.5 -14.5q0 -6 -4.5 -10.5l-8.5 -8.5q-5 -5 -18.5 -14t-36.5 -20q-27 -13 -42 -18z" />
    <glyph glyph-name="icircumflex" unicode="&#xee;" horiz-adv-x="226" 
d="M36 -11q-22 0 -36.5 14.5t-14.5 51.5q0 21 9.5 48.5t24 55.5t28.5 50q56 91 92 92q9 0 22 -7.5t13 -16.5l-76 -98q-75 -97 -75 -138q0 -32 25 -32q16 0 41.5 13.5t53.5 34.5t53.5 45t41.5 44q10 13 17.5 18t9.5 5q4 0 4 -6q0 -5 -11.5 -20t-31.5 -35q-24 -24 -53 -52
t-63 -47.5t-74 -19.5zM92 360q-9 0 -4 8q6 10 19.5 21t28.5 21q26 17 47 29t33 12q7 0 18 -11.5t23 -26t23 -25.5q2 -3 2 -8q0 -20 -22 -20q-7 0 -14.5 5.5t-11.5 9.5q-8 8 -19.5 22t-19.5 22q-9 -6 -18 -12.5t-19 -11.5q-27 -15 -44 -25t-22 -10z" />
    <glyph glyph-name="idieresis" unicode="&#xef;" horiz-adv-x="226" 
d="M36 -11q-22 0 -36.5 14.5t-14.5 51.5q0 21 9.5 48.5t24 55.5t28.5 50q56 91 92 92q9 0 22 -7.5t13 -16.5l-76 -98q-75 -97 -75 -138q0 -32 25 -32q16 0 41.5 13.5t53.5 34.5t53.5 45t41.5 44q10 13 17.5 18t9.5 5q4 0 4 -6q0 -5 -11.5 -20t-31.5 -35q-24 -24 -53 -52
t-63 -47.5t-74 -19.5zM214 361q-7 0 -14 10.5t-7 18.5q0 15 29 36q14 12 27.5 12.5t7.5 -10.5l-16 -40q-12 -27 -27 -27zM93 361q-7 0 -14 10.5t-7 18.5q0 15 29 36q20 12 30 11t5 -9l-16 -40q-12 -27 -27 -27z" />
    <glyph glyph-name="eth" unicode="&#xf0;" horiz-adv-x="379" 
d="M60 10q-28 9 -41.5 35t-6.5 71q2 11 5 23.5t7 25.5q9 22 27.5 55.5t45 68.5t57.5 64t66 42.5t70 2.5q13 -3 25 -12q4 23 -9 73.5t-33 104.5q-18 -3 -40.5 -6.5t-42.5 -5t-30 1.5q-12 5 -9 15q0 11 19 16q15 5 39 8t53 5q-12 29 -27 55t-25.5 44.5t-9.5 24.5
q2 11 11.5 18.5t22.5 2.5q15 -4 30 -29.5t28 -56.5t21 -54q47 4 83 5.5t40 0.5t4 -3q-1 -7 -35.5 -17t-82.5 -18q22 -69 28 -147.5t-6 -152.5q-10 -57 -39 -109.5t-69 -91t-86 -56t-90 -4.5zM88 30q21 -7 53 7t66 45.5t61 78t38 104.5l2 20q5 20 2 37t-23 24l-9 2q-3 4 -8 4
q-17 5 -39.5 -10t-46.5 -42.5t-46 -59t-38.5 -59t-22.5 -43.5q-4 -13 -7.5 -24t-5.5 -20q-9 -55 24 -64z" />
    <glyph glyph-name="ntilde" unicode="&#xf1;" horiz-adv-x="403" 
d="M255 -2q-27 0 -38 15.5t-11 38.5q0 58 40 124l64 104q-68 -50 -135 -125q-18 -20 -40.5 -47t-49.5 -62q-36 -47 -43 -47q-14 0 -23 12.5t-9 22.5q0 8 5 29.5t12 37.5q7 17 14.5 33.5t14.5 32.5l-60 -63l-12 -12t-16 -10q-5 0 -5 7q0 2 1.5 5.5t6.5 8.5q15 15 31 32t33 39
q9 11 27 33.5t39.5 48.5t40.5 48q5 7 11 9.5t8 2.5q27 0 27 -21q0 -6 -3 -12q-90 -124 -108 -189q116 116 186.5 174.5t100.5 58.5q16 0 24.5 -5t8.5 -19q0 -5 -1 -8q-3 -7 -41 -56q-23 -28 -40.5 -51t-28.5 -40q-18 -28 -27 -52.5t-9 -41.5q0 -7 2 -17t12 -10q23 0 72 40
q23 20 43 40.5t38 40.5q4 4 13 15.5t11 11.5q4 0 4 -8q0 -4 -4.5 -13.5t-9.5 -14.5q-11 -13 -32.5 -36t-48 -47t-51.5 -41t-44 -17zM333.279 355.292q-17.8877 0 -48.0146 14.2998q-31.0684 15.3994 -45.1904 15.3994q-16.9463 0 -32.0098 -14.2998
q-15.0635 -14.2988 -19.7715 -14.2988q-0.941406 1.09961 -0.941406 2.19922q0 17.5996 40.4834 45.0996q15.0635 10.999 33.8926 10.999q14.1221 0 45.1904 -12.0996q28.2441 -10.999 44.249 -10.999q22.5957 0 39.542 23.0986q5.64844 0 5.64844 -4.39941
q0 -16.5 -37.6582 -46.1992q-12.2393 -8.7998 -25.4199 -8.7998z" />
    <glyph glyph-name="ograve" unicode="&#xf2;" horiz-adv-x="281" 
d="M43 -2q-25 0 -39 23.5t-14 45.5q0 60 87 168q88 109 142 109q51 0 51 -54q0 -8 -1.5 -17t-3.5 -19q2 -3 10 -3q27 0 64 19q-1 -17 -79 -49q11 -33 -66 -126q-79 -97 -135 -97h-16zM61 28q43 0 110 79q65 77 65 111q-16 9 -40 46q-34 0 -98 -82q-63 -80 -61 -123
q1 -31 24 -31zM282 374q7 -2 7 6q0 4 -4 7l-97 78q-11 9 -17 9q-5 0 -12.5 -7.5t-7.5 -14.5q0 -6 4.5 -10.5l8.5 -8.5q5 -5 18.5 -14t36.5 -20q27 -13 42 -18z" />
    <glyph glyph-name="oacute" unicode="&#xf3;" horiz-adv-x="281" 
d="M43 -2q-25 0 -39 23.5t-14 45.5q0 60 87 168q88 109 142 109q51 0 51 -54q0 -8 -1.5 -17t-3.5 -19q2 -3 10 -3q27 0 64 19q-1 -17 -79 -49q11 -33 -66 -126q-79 -97 -135 -97h-16zM61 28q43 0 110 79q65 77 65 111q-16 9 -40 46q-34 0 -98 -82q-63 -80 -61 -123
q1 -31 24 -31zM204 379q-7 -2 -7 6q0 4 4 7l97 78q11 9 17 9q5 0 12.5 -7.5t7.5 -14.5q0 -6 -4.5 -10.5l-8.5 -8.5q-5 -5 -18.5 -14t-36.5 -20q-27 -13 -42 -18z" />
    <glyph glyph-name="ocircumflex" unicode="&#xf4;" horiz-adv-x="281" 
d="M43 -2q-25 0 -39 23.5t-14 45.5q0 60 87 168q88 109 142 109q51 0 51 -54q0 -8 -1.5 -17t-3.5 -19q2 -3 10 -3q27 0 64 19q-1 -17 -79 -49q11 -33 -66 -126q-79 -97 -135 -97h-16zM61 28q43 0 110 79q65 77 65 111q-16 9 -40 46q-34 0 -98 -82q-63 -80 -61 -123
q1 -31 24 -31zM139 375q-9 0 -4 8q6 10 19.5 21t28.5 21q26 17 47 29t33 12q7 0 18 -11.5t23 -26t23 -25.5q2 -3 2 -8q0 -20 -22 -20q-7 0 -14.5 5.5t-11.5 9.5q-8 8 -19.5 22t-19.5 22q-9 -6 -18 -12.5t-19 -11.5q-27 -15 -44 -25t-22 -10z" />
    <glyph glyph-name="otilde" unicode="&#xf5;" horiz-adv-x="281" 
d="M43 -2q-25 0 -39 23.5t-14 45.5q0 60 87 168q88 109 142 109q51 0 51 -54q0 -8 -1.5 -17t-3.5 -19q2 -3 10 -3q27 0 64 19q-1 -17 -79 -49q11 -33 -66 -126q-79 -97 -135 -97h-16zM61 28q43 0 110 79q65 77 65 111q-16 9 -40 46q-34 0 -98 -82q-63 -80 -61 -123
q1 -31 24 -31zM281.499 371.792q-17.8877 0 -48.0146 14.2998q-31.0693 15.3994 -45.1914 15.3994q-16.9463 0 -32.0098 -14.2998t-19.7705 -14.2998q-0.941406 1.10059 -0.941406 2.2002q0 17.5996 40.4834 45.0986q15.0635 11 33.8926 11q14.1221 0 45.1904 -12.0996
q28.2441 -11 44.249 -11q22.5947 0 39.541 23.0996q5.64941 0 5.64941 -4.39941q0 -16.5 -37.6592 -46.1992q-12.2383 -8.7998 -25.4189 -8.7998z" />
    <glyph glyph-name="odieresis" unicode="&#xf6;" horiz-adv-x="281" 
d="M43 -2q-25 0 -39 23.5t-14 45.5q0 60 87 168q88 109 142 109q51 0 51 -54q0 -8 -1.5 -17t-3.5 -19q2 -3 10 -3q27 0 64 19q-1 -17 -79 -49q11 -33 -66 -126q-79 -97 -135 -97h-16zM61 28q43 0 110 79q65 77 65 111q-16 9 -40 46q-34 0 -98 -82q-63 -80 -61 -123
q1 -31 24 -31zM261 376q-7 0 -14 10.5t-7 18.5q0 15 29 36q14 12 27.5 12.5t7.5 -10.5l-16 -40q-12 -27 -27 -27zM140 376q-7 0 -14 10.5t-7 18.5q0 15 29 36q20 12 30 11t5 -9l-16 -40q-12 -27 -27 -27z" />
    <glyph glyph-name="divide" unicode="&#xf7;" horiz-adv-x="406" 
d="M230 305q-17 0 -29.5 10t-12.5 25q0 29 38 29q14 0 28 -10t14 -24q0 -12 -13 -21t-25 -9zM207 213q-21 -5 -100 1q-88 6 -88 21q0 11 9 17.5t16 6.5q-1 0 9 0t30 1h80q51 1 85 0q51 -1 88 -0.5t60 2.5q8 -17 -77 -32l-56 -8t-56 -9zM184 105q-17 0 -29.5 10t-12.5 25
q0 29 38 29q14 0 28 -10t14 -24q0 -12 -13 -21t-25 -9z" />
    <glyph glyph-name="oslash" unicode="&#xf8;" horiz-adv-x="281" 
d="M-27 -162q-13 0 -13 22q0 14 4 32.5t13 42.5q5 12 14.5 30.5t24.5 41.5q-9 9 -14 18q-12 20 -12 42q0 60 87 168q88 109 142 109q20 0 32 -9q103 133 118 133q9 0 15 -6q9 -9 -4 -23q-54 -63 -111 -135q0 -4 0.5 -7t0.5 -7q0 -8 -1.5 -17t-3.5 -19q2 -3 10 -3q27 0 64 19
q-1 -17 -79 -49q11 -33 -66 -126q-79 -97 -135 -97h-17q-22 -34 -36 -59.5t-21 -42.5q-5 -15 -5 -24q0 -14 9 -19q4 -2 0 -7q-5 -8 -16 -8zM39 44q25 38 59.5 86t78.5 107l19 26v1q-34 0 -98 -82q-63 -80 -61 -123q0 -4 0.5 -8t1.5 -7zM62 28q42 1 109 79q65 77 65 111
q-10 5 -20 18l-62 -82q-27 -36 -50 -67.5t-42 -58.5z" />
    <glyph glyph-name="ugrave" unicode="&#xf9;" horiz-adv-x="425" 
d="M47 -11q-45 0 -45 57q0 22 13.5 52.5t38.5 64.5l-18 -17t-41 -43q-4 -4 -10 -4q-4 0 -4 5t9 17l138 162q26 30 57 30q23 0 23 -18q0 -7 -6 -13q-19 -18 -46.5 -51t-53.5 -71t-43.5 -72.5t-17.5 -55.5q0 -18 12 -18q7 0 22 5.5t40 23t60 54.5q6 6 32 36t70 86
q78 97 102 97q33 0 36 -27q2 -9 -42 -59q-57 -69 -78 -99q-39 -57 -39 -89q0 -22 15 -22t38.5 14.5t49.5 37t50.5 47t42.5 45.5q6 7 12 7t6 -6q0 -2 -1 -6t-6 -9q-16 -18 -41 -44.5t-54 -52.5t-56 -43t-46 -17q-23 0 -40 12.5t-17 34.5t7 44.5t11 38.5q-47 -55 -82.5 -84
t-59.5 -39.5t-38 -10.5zM352 359q7 -2 7 6q0 4 -4 7l-97 78q-11 9 -17 9q-5 0 -12.5 -7.5t-7.5 -14.5q0 -6 4.5 -10.5l8.5 -8.5q5 -5 18.5 -14t36.5 -20q27 -13 42 -18z" />
    <glyph glyph-name="uacute" unicode="&#xfa;" horiz-adv-x="425" 
d="M47 -11q-45 0 -45 57q0 22 13.5 52.5t38.5 64.5l-18 -17t-41 -43q-4 -4 -10 -4q-4 0 -4 5t9 17l138 162q26 30 57 30q23 0 23 -18q0 -7 -6 -13q-19 -18 -46.5 -51t-53.5 -71t-43.5 -72.5t-17.5 -55.5q0 -18 12 -18q7 0 22 5.5t40 23t60 54.5q6 6 32 36t70 86
q78 97 102 97q33 0 36 -27q2 -9 -42 -59q-57 -69 -78 -99q-39 -57 -39 -89q0 -22 15 -22t38.5 14.5t49.5 37t50.5 47t42.5 45.5q6 7 12 7t6 -6q0 -2 -1 -6t-6 -9q-16 -18 -41 -44.5t-54 -52.5t-56 -43t-46 -17q-23 0 -40 12.5t-17 34.5t7 44.5t11 38.5q-47 -55 -82.5 -84
t-59.5 -39.5t-38 -10.5zM274 364q-7 -2 -7 6q0 4 4 7l97 78q11 9 17 9q5 0 12.5 -7.5t7.5 -14.5q0 -6 -4.5 -10.5l-8.5 -8.5q-5 -5 -18.5 -14t-36.5 -20q-27 -13 -42 -18z" />
    <glyph glyph-name="ucircumflex" unicode="&#xfb;" horiz-adv-x="425" 
d="M47 -11q-45 0 -45 57q0 22 13.5 52.5t38.5 64.5l-18 -17t-41 -43q-4 -4 -10 -4q-4 0 -4 5t9 17l138 162q26 30 57 30q23 0 23 -18q0 -7 -6 -13q-19 -18 -46.5 -51t-53.5 -71t-43.5 -72.5t-17.5 -55.5q0 -18 12 -18q7 0 22 5.5t40 23t60 54.5q6 6 32 36t70 86
q78 97 102 97q33 0 36 -27q2 -9 -42 -59q-57 -69 -78 -99q-39 -57 -39 -89q0 -22 15 -22t38.5 14.5t49.5 37t50.5 47t42.5 45.5q6 7 12 7t6 -6q0 -2 -1 -6t-6 -9q-16 -18 -41 -44.5t-54 -52.5t-56 -43t-46 -17q-23 0 -40 12.5t-17 34.5t7 44.5t11 38.5q-47 -55 -82.5 -84
t-59.5 -39.5t-38 -10.5zM209 360q-9 0 -4 8q6 10 19.5 21t28.5 21q26 17 47 29t33 12q7 0 18 -11.5t23 -26t23 -25.5q2 -3 2 -8q0 -20 -22 -20q-7 0 -14.5 5.5t-11.5 9.5q-8 8 -19.5 22t-19.5 22q-9 -6 -18 -12.5t-19 -11.5q-27 -15 -44 -25t-22 -10z" />
    <glyph glyph-name="udieresis" unicode="&#xfc;" horiz-adv-x="425" 
d="M47 -11q-45 0 -45 57q0 22 13.5 52.5t38.5 64.5l-18 -17t-41 -43q-4 -4 -10 -4q-4 0 -4 5t9 17l138 162q26 30 57 30q23 0 23 -18q0 -7 -6 -13q-19 -18 -46.5 -51t-53.5 -71t-43.5 -72.5t-17.5 -55.5q0 -18 12 -18q7 0 22 5.5t40 23t60 54.5q6 6 32 36t70 86
q78 97 102 97q33 0 36 -27q2 -9 -42 -59q-57 -69 -78 -99q-39 -57 -39 -89q0 -22 15 -22t38.5 14.5t49.5 37t50.5 47t42.5 45.5q6 7 12 7t6 -6q0 -2 -1 -6t-6 -9q-16 -18 -41 -44.5t-54 -52.5t-56 -43t-46 -17q-23 0 -40 12.5t-17 34.5t7 44.5t11 38.5q-47 -55 -82.5 -84
t-59.5 -39.5t-38 -10.5zM331 361q-7 0 -14 10.5t-7 18.5q0 15 29 36q14 12 27.5 12.5t7.5 -10.5l-16 -40q-12 -27 -27 -27zM210 361q-7 0 -14 10.5t-7 18.5q0 15 29 36q20 12 30 11t5 -9l-16 -40q-12 -27 -27 -27z" />
    <glyph glyph-name="yacute" unicode="&#xfd;" horiz-adv-x="370" 
d="M23 -205q-32 0 -56 27q-24 28 -23 62q12 -15 32 -35q26 -25 51 -25q57 0 123 91q23 32 47.5 74.5t46.5 94.5l38 92l-147 -115q-68 -53 -109 -53q-22 0 -35 16t-13 33q0 43 74 141q74 99 111 99q31 0 31 -23q0 -9 -89 -104q-88 -94 -88 -127q0 -13 17 -13q32 0 139 83
q44 35 78 64t57 52q8 10 16 19.5t15 19.5q19 22 38 22q27 0 27 -22q0 -4 -42 -66q-22 -34 -35 -52.5t-15 -23.5q-31 -60 -95 -175q-97 -156 -194 -156zM269 364q-7 -2 -7 6q0 4 4 7l97 78q11 9 17 9q5 0 12.5 -7.5t7.5 -14.5q0 -6 -4.5 -10.5l-8.5 -8.5q-5 -5 -18.5 -14
t-36.5 -20q-27 -13 -42 -18z" />
    <glyph glyph-name="thorn" unicode="&#xfe;" horiz-adv-x="271" 
d="M-44 -267q-19 0 -28.5 18t-4.5 37q8 32 21.5 63t44.5 80l297 441q19 31 30.5 52.5t14.5 34.5q6 21 -12 21q-7 0 -19.5 -3.5t-17.5 -3.5q-6 0 -5 6q5 15 49 15q26 0 45.5 -12.5t11.5 -38.5q-2 -10 -13 -28.5t-37 -59.5q-23 -36 -55 -81q10 9 42 18q15 5 26.5 7t18.5 3
q41 2 68.5 -19.5t27.5 -56.5q0 -81 -97 -157q-88 -69 -156 -69q-45 0 -62 5q-20 6 -39 25q-36 -53 -68.5 -103t-55.5 -91t-33 -68q-8 -24 11 -24q7 0 18.5 5.5t15.5 5.5q3 0 1 -2q-2 -7 -17.5 -13.5t-22.5 -6.5zM195 28q56 0 129 57q86 68 86 151q0 38 -47 38q-43 0 -80 -19
q-6 -3 -17 -12t-27 -25q-28 -40 -59 -83.5t-61 -87.5q9 -8 26 -12q22 -7 50 -7z" />
    <glyph glyph-name="ydieresis" unicode="&#xff;" horiz-adv-x="370" 
d="M229 343q-7 0 -14 10.5t-7 18.5q0 15 29 36q30 21 46 21q1 0 1.5 -0.5t1.5 -0.5q-1 0 -14 -18l-16 -40q-12 -27 -27 -27zM350 343q-7 0 -14 10.5t-7 18.5q0 15 29 36q30 21 46 21q1 0 1.5 -0.5t1.5 -0.5q-1 0 -14 -18l-16 -40q-12 -27 -27 -27zM23 -205q-32 0 -56 27
q-24 28 -23 62q12 -15 32 -35q26 -25 51 -25q57 0 123 91q48 67 94 169l38 92l-147 -115q-68 -53 -109 -53q-22 0 -36 17q-12 14 -12 32q0 43 74 141q74 99 111 99q31 0 31 -23q0 -9 -89 -104q-88 -94 -88 -127q0 -13 17 -13q32 0 139 83q44 35 78 64t57 52q8 10 16 19.5
t15 19.5q19 22 38 22q27 0 27 -22q0 -4 -42 -66q-22 -34 -35 -52.5t-15 -23.5q-31 -60 -95 -175q-97 -156 -194 -156z" />
    <glyph glyph-name="hbar" unicode="&#x127;" horiz-adv-x="376" 
d="M-27 -5q-29 0 -29 17q0 10 12 32q46 82 82.5 145.5t64.5 107.5l37 58q-10 -1 -18.5 -1h-15.5q-5 0 -12.5 9t-8.5 15l2 1q15 5 74 7q74 106 110 118q16 4 22 -20q-3 -19 -64 -99q43 -3 61 -11q3 -1 3 -3q0 -5 -6 -5q-13 0 -32 -1.5t-44 -3.5l-22 -29q-53 -67 -82.5 -110.5
t-36.5 -63.5q28 20 55.5 40t55.5 39q110 77 144 81q37 4 37 -25q0 -4 -1 -6q0 -1 -72 -99q-66 -88 -66 -132q0 -23 17 -23q18 1 41.5 16t47.5 37t43.5 43.5t29.5 33.5q9 9 14 9q4 0 4 -4q0 -8 -8 -19q-12 -15 -35.5 -39t-51 -48.5t-52 -41t-36.5 -16.5q-59 0 -59 69
q0 39 36 102q14 24 29 48l30 48q-128 -64 -232 -189q-7 -11 -15 -22.5t-16 -22.5q-30 -42 -37 -42z" />
    <glyph glyph-name="IJ" unicode="&#x132;" horiz-adv-x="1374" 
d="M717 -130q-93 0 -141 50q-42 44 -42 109q0 50 22 91q53 102 153 159q79 46 145 43q64 -3 100.5 -34.5t36.5 -81.5q0 -12 -3 -26q-8 -40 -37 -72q-25 -28 -40 -28q-4 0 -4 4q0 3 3 9q36 53 36 102q0 42 -25.5 70.5t-67.5 31.5q-55 4 -121 -40q-75 -49 -123 -147
q-25 -49 -25 -95q0 -59 39 -92q43 -36 120 -32q248 14 516 446q166 266 170 326l-59 3q-48 1 -118 -23q-80 -29 -102 -67q-9 -15 -9 -29q0 -22 19 -44t19 -26q0 -5 -12 -7q-25 -4 -48 18q-22 22 -22 54q0 27 18 51q38 52 127 74q32 8 66.5 12.5t69.5 3.5q9 0 49 -3
q-2 13 10.5 24.5t28.5 11.5q30 0 29 -43q108 -19 114 -58q5 -35 -10 -35q-12 0 -8 24q-25 37 -99 52q-18 -81 -188 -352q-113 -178 -263 -298q-172 -136 -324 -136zM177 -69q-159 0 -156 191q1 146 81 238q68 80 156 80q13 0 24.5 -2t22.5 -6q59 -23 59 -93q0 -78 -60 -158
q-62 -83 -126 -83q-36 0 -53 20q-16 17 -18 45.5t7 53.5q11 29 23 29q9 0 9 -9q0 -5 -9 -26q-9 -19 -9 -35q0 -14 16 -28t35 -14q59 0 111 75q49 70 49 139q0 53 -38 70q-13 5 -27 5q-71 0 -142 -98q-73 -105 -69 -231q1 -53 27 -91q29 -42 75 -43q135 -7 350 359
q-110 33 -110 130q0 65 35 117.5t96 88.5q86 50 167 48q29 -1 55 -5.5t49 -14.5q69 -27 69 -82q0 -12 -5.5 -23t-11.5 -11q1 0 -9 6.5t-22 6.5q-85 0 -233 -253q44 -5 81 16q38 23 38 53q0 8 -3.5 16.5t-3.5 10.5q0 8 8 8q4 0 8 -3q23 -17 23 -42q0 -31 -35 -57
q-37 -27 -92 -27q-17 0 -34 3q-69 -127 -168 -234q-132 -140 -240 -140zM532 344q55 90 134 171q95 98 153 98q15 0 26 -7q-1 28 -39 49q-16 10 -32 14.5t-32 5.5q-66 3 -140 -30q-63 -28 -103.5 -84.5t-40.5 -130.5q0 -72 74 -86z" />
    <glyph glyph-name="ij" unicode="&#x133;" horiz-adv-x="427" 
d="M434 346q-17 0 -29.5 10.5t-12.5 24.5q0 29 38 29q14 0 28 -10t14 -24q0 -12 -13 -21t-25 -9zM221 344q-17 0 -29.5 11t-12.5 25q0 28 38 28q14 0 28 -9.5t14 -23.5q0 -12 -13 -21.5t-25 -9.5zM42 -205q-30 0 -55 19q-26 20 -26 40q0 19 9 19q1 0 20 -25q20 -26 46 -26
q80 0 182 181q31 56 52.5 101.5t33.5 81.5q-15 -16 -39 -41t-53 -52t-60 -51t-59 -39t-49 -15q-59 0 -59 67q0 5 0.5 9.5t1.5 8.5q9 54 60 136q56 91 92 92q9 0 22 -7.5t13 -16.5l-76 -98q-75 -97 -75 -138q0 -31 27 -31q24 0 57 21t67 51.5t62 61.5t42 51q29 41 33 45
l33 35q20 19 40 19q27 0 27 -22q0 -4 -35 -66l-44 -76q-77 -147 -119 -205q-91 -130 -171 -130z" />
    <glyph glyph-name="uni0136" unicode="&#x136;" horiz-adv-x="936" 
d="M1033 -129q-39 0 -69 14q-43 21 -85 58.5t-80 84.5t-68 99t-50 101q-55 -32 -91 -35q-28 -36 -71 -82t-95.5 -89t-112 -70.5t-120.5 -27.5q-78 0 -123.5 39.5t-45.5 124.5q0 47 23 93t62 83t85 56q57 25 119 25q35 0 56 -18.5t21 -47.5q0 -13 -4 -17q-1 -1 -3 -1
q-3 0 -8 8q-16 31 -32 41t-45 10q-44 0 -85.5 -21.5t-75 -57.5t-53.5 -80.5t-20 -89.5q0 -108 122 -122q46 -4 121 39q112 64 239 220q-23 21 -23 60q0 43 29 78q32 38 85 38q15 0 28 -3q27 46 52 93t48 95q44 91 44 106q0 2 -1 2q-3 2 -24 -7.5t-49 -23t-52 -26.5t-33 -19
q-34 -22 -68 -56q-44 -44 -44 -68q0 -11 10 -18q21 -15 62 -15q5 -2 5 -4q0 -5 -32 -10t-50 -3q-25 6 -25 29q0 35 43 84t94 77q149 80 189 80q10 0 17 -4q4 -3 4 -11q0 -61 -168 -349q3 -12 8.5 -27.5t13.5 -35.5l298 227q75 57 137 103t118.5 78t114 49t124.5 17
q37 0 68 -12q19 -7 19 -28q0 -17 -10 -17q-5 0 -10 6q-9 10 -38 10q-16 0 -42 -4t-63 -12q-57 -13 -120.5 -41t-133.5 -71q-88 -55 -240 -171q-77 -59 -130.5 -97.5t-82.5 -57.5q22 -46 53.5 -95t68.5 -94.5t78 -81t81 -53.5q39 -18 71 -18q48 0 48 37v5t-1 5q0 2 -0.5 3.5
t-0.5 2.5q0 10 5 17.5t11 7.5q13 0 17 -31q1 -2 1 -5v-5q0 -24 -17 -40.5t-43 -24.5t-55 -8zM576 249l7 10q8 12 21.5 31t30.5 45q-12 5 -21 5q-21 0 -35 -18t-14 -40q0 -19 11 -33zM620 232q10 0 13 1q13 2 40 16q-4 12 -7.5 22t-5.5 18q-7 -11 -17 -25.5t-23 -31.5z
M513.001 -204.869q-3.8252 1 -3.47461 3q0.174805 1 27.7246 27t28.0488 46q0.924805 11 -10.5879 19.5t-9.9375 17.5q5.25 30 34.25 30q14 0 26.3379 -9.5q12.3369 -9.5 9.71191 -24.5q-7.34863 -42 -48.999 -80q-37.7744 -33 -53.0742 -29z" />
    <glyph glyph-name="uni0137" unicode="&#x137;" horiz-adv-x="394" 
d="M205 -12q-33 0 -58.5 19t-44 48t-31.5 58q-7 -9 -14.5 -23t-17.5 -33l-31 -62q-36 14 -36 38q0 43 131 239q127 190 175 224q5 3 16 3q31 0 31 -16q0 -3 -14 -21.5t-35 -44.5t-42.5 -52.5t-37.5 -46t-18 -24.5q91 47 145 47q21 0 38.5 -12t27.5 -29t8 -33q-8 -57 -80 -94
q-58 -31 -106 -31q-52 0 -72 13q-6 1 -9.5 -2.5t-1.5 -10.5q28 -124 93 -124q32 0 85.5 37t113.5 108q7 7 13 7q5 0 5 -6q0 -5 -7 -15q-29 -35 -67.5 -72.5t-79.5 -63t-79 -25.5zM147 168q45 0 118 37q84 42 84 89q0 8 -9 16t-19 8q-54 0 -126 -42q-79 -48 -96 -105
q11 0 28.5 -1.5t19.5 -1.5zM138.001 -204.869q-3.8252 1 -3.47461 3q0.174805 1 27.7246 27t28.0488 46q0.924805 11 -10.5879 19.5t-9.9375 17.5q5.25 30 34.25 30q14 0 26.3379 -9.5q12.3369 -9.5 9.71191 -24.5q-7.34863 -42 -48.999 -80q-37.7744 -33 -53.0742 -29z" />
    <glyph glyph-name="Lslash" unicode="&#x141;" horiz-adv-x="658" 
d="M545 -109q-56 0 -115 16.5t-111.5 48.5t-90.5 76q-80 -80 -152 -80q-22 0 -38 8q-35 20 -35 69q0 63 48 148q45 80 72 84q18 0 41 -41l63 -122l46 62q-2 0 -4 0.5t-4 0.5q-60 5 -60 14q0 8 6.5 12t10.5 4q-1 0 6 0t20 1h48q11 14 21 29t21 30q-82 37 -82 107q0 23 10 46
q11 28 37 47.5t52 19.5q33 0 48 -31q2 -3 0.5 -6t-3.5 -2q-7 8 -19.5 14t-23.5 6q-21 1 -39 -15.5t-27.5 -39t-7.5 -39.5q0 -51 72 -89q17 25 37 54.5t43 63.5q199 292 331 292q93 0 93 -87q0 -79 -77 -186q-60 -84 -164 -137q-95 -49 -179 -49q-14 0 -27.5 1.5t-24.5 5.5
l-27 -35h1q35 -1 60 -0.5t41 1.5q5 -11 -53 -21l-75 -12l-82 -102q18 -25 51.5 -50t75.5 -44.5t83 -31.5t74 -12q24 0 51 3.5t47 14.5q23 12 33.5 29.5t10.5 36.5v8t-1 8q-1 8 1 11.5t4 3.5q10 0 16 -15.5t6 -24.5q0 -35 -37 -66q-47 -38 -122 -38zM432 246q70 0 156 46
q94 50 146 123q91 127 91 193q0 40 -35 51q-9 3 -20 3q-50 0 -124 -84q-23 -27 -60.5 -77.5t-88.5 -124.5q-20 -29 -44 -61t-50 -66q14 -3 29 -3zM78 -21q26 0 64 28q35 26 60 58q-14 20 -30 48t-35 65q-23 48 -35 43q-18 -3 -39 -64t-21 -114q0 -64 36 -64z" />
    <glyph glyph-name="lslash" unicode="&#x142;" horiz-adv-x="259" 
d="M76 -2q-29 0 -54 14.5t-25 48.5q0 19 5 39t12 37q3 8 7.5 17.5t9.5 19.5q-62 4 -62 15q0 8 6.5 12.5t10.5 4.5h7t21 1h34q11 22 26 47t33 54q117 190 166 190q10 0 20.5 -7.5t11.5 -16.5l-70 -94q-38 -51 -69 -94t-54 -78q5 0 10.5 -0.5t9.5 -0.5q36 -1 62.5 -0.5
t42.5 1.5q7 -11 -55 -22l-80 -12q-6 -2 -13 -2q-17 -27 -33.5 -58.5t-16.5 -62.5q0 -12 7 -21.5t25 -9.5q32 0 84 34.5t103 95.5q5 6 11 11t10 5q5 0 5 -6q0 -3 -6.5 -11.5t-10.5 -13.5l-24 -27q-20 -22 -47.5 -48t-58 -44t-61.5 -18z" />
    <glyph glyph-name="OE" unicode="&#x152;" horiz-adv-x="1324" 
d="M926 -79q-144 -7 -222 42q-68 44 -68 114q-180 -136 -393 -136h-20.5t-21.5 1q-79 4 -128 52t-49 131q0 72 41 163q52 115 196 218q159 114 327 128q10 1 20 1.5t20 0.5q100 0 153 -40q51 -37 51 -96q0 -32 -17 -68l-11 -21q8 -27 8 -55q0 -15 -2 -29.5t-5 -28.5
q72 47 171 78q-33 38 -33 86q0 39 21 67q41 56 124 93q81 35 166 41q79 5 118 -16.5t37 -63.5q-2 -35 -29 -60q-28 -26 -59 -26t-31 15q0 9 13 9q4 0 10.5 -1.5t9.5 -1.5q21 0 37 22t16 44q0 34 -39 50q-31 12 -78 9q-85 -4 -168 -60q-96 -63 -96 -142q0 -29 20 -54
q37 11 70 16t62 4q88 -1 88 -37q0 -7 -6 -18q-24 -37 -87 -37q-41 0 -86 15q-40 14 -63 30q-64 -19 -118 -51t-95 -74q-23 -43 -60 -83q-1 -1 -1 -1.5v-0.5q-19 -38 -19 -74q0 -56 44 -89q49 -37 139 -37q25 0 52 3q159 17 253 102q79 70 79 147q0 61 -59 61q-71 0 -163 -76
q-23 -19 -39 -48t-16 -53q0 -32 28 -39q10 -4 10 -10q0 -10 -20 -8q-48 2 -48 59q0 66 63 120q86 74 182 74q72 0 91 -45q8 -21 8 -42q0 -93 -103 -175q-112 -91 -275 -99zM211 -38q212 -12 403 158q128 114 138 217q-52 -57 -180 -136l-8 -2q-8 0 26 28l56 46
q35 31 61.5 56.5t43.5 46.5q-7 56 -54 96q-40 35 -96 52q-28 7 -92 9q-53 2 -53 5q0 1 2 3q47 15 90 15q20 0 44 -3t52 -10q105 -25 147 -102q10 24 10 49q0 34 -22 65q-43 60 -152 60q-151 0 -290 -97q-129 -90 -204 -232q-55 -103 -55 -185q0 -132 133 -139zM1133 337
q54 0 54 31q0 14 -54 14q-24 0 -49.5 -3t-51.5 -8q20 -16 41 -23q30 -11 60 -11z" />
    <glyph glyph-name="oe" unicode="&#x153;" horiz-adv-x="464" 
d="M258 -13q-11 0 -20 3q-64 18 -64 72v10q-65 -74 -115 -74h-16q-26 0 -41 27q-12 20 -12 42q0 60 87 168q88 109 142 109q51 0 51 -54q0 -8 2.5 -16.5t0.5 -27.5q0 -3 -0.5 -6t-0.5 -5q83 81 148 81q23 0 37.5 -12.5t14.5 -30.5q0 -56 -89 -110q-79 -48 -133 -48
q-8 0 -14 2q-15 -27 -15 -57q0 -52 49 -52q50 0 129 67q31 25 56.5 51t47.5 54q9 12 16 12q6 0 6 -6t-8 -17q-55 -73 -129 -126q-77 -56 -130 -56zM264 137q38 0 99 38q66 43 82 91q8 21 -19 21q-30 0 -84 -45q-21 -17 -37.5 -34t-29.5 -34q-6 -8 -12 -16.5t-12 -18.5
q6 -2 13 -2zM61 28q43 0 110 79l24 30q6 11 13.5 22t15.5 23q12 21 12 36q2 24 -6 38t-34 8q-34 0 -98 -82q-63 -80 -61 -123q1 -31 24 -31z" />
    <glyph glyph-name="Racute" unicode="&#x154;" horiz-adv-x="752" 
d="M638 -112q-40 0 -68.5 32t-49.5 82t-37 103q-37 121 -31 144q-59 -79 -102 -131.5t-70 -78.5q-118 -114 -239 -114q-36 0 -59.5 15t-23.5 50q0 22 10 47.5t25 48.5t30 38q33 33 55 33q4 0 4 -2q0 -5 -15 -17q-35 -28 -58 -64.5t-23 -66.5q0 -56 79 -53q129 5 358 312
q13 17 22 24l-16 6q-13 -5 -21 -5q-21 0 -21 17q0 23 31 30q19 5 49 -17q39 44 75.5 84t66.5 65.5t48 25.5q24 0 24 -22q0 -9 -4.5 -18.5t-10.5 -9.5q-6 -1 -6 6q0 5 6 12v4q0 6 -4 9q-26 17 -160 -169q11 -1 23.5 -1.5t26.5 -0.5q232 0 290 120q12 26 12 48q0 44 -41 77
q-37 30 -97.5 40.5t-120.5 10.5q-133 0 -283 -73q-182 -89 -182 -209q0 -39 51 -39q47 0 106 38q51 34 70 69q7 13 13 13q7 0 4 -8q-19 -56 -85 -96q-64 -39 -132 -39q-81 0 -75 52q15 131 161 223q145 91 350 91q78 0 151.5 -14t119.5 -52q48 -40 48 -94q0 -23 -11 -50
q-17 -39 -52 -66.5t-81 -44.5t-97 -25t-99 -8q-26 0 -49.5 2t-43.5 6q6 -19 21 -69t38 -130q7 -22 19.5 -48t28.5 -49t34.5 -38t37.5 -15q42 0 70 85q5 20 11 20q5 0 9 -19q1 -3 1 -8q0 -26 -28 -64q-37 -55 -83 -55zM680 662q-7 -2 -7 6q0 4 4 7l97 78q11 9 17 9
q5 0 12.5 -7.5t7.5 -14.5q0 -6 -4.5 -10.5l-8.5 -8.5q-5 -5 -18.5 -14t-36.5 -20q-27 -13 -42 -18z" />
    <glyph glyph-name="racute" unicode="&#x155;" horiz-adv-x="394" 
d="M204 -5q-43 0 -59 22.5t-16 60.5q0 42 26 100q10 23 21 41.5t23 34.5q-4 -1 -7 -1h-6q-24 0 -40 34l-74 -96q-59 -77 -72 -77q-5 0 -5 4q0 5 5 13q3 6 12 16q38 44 70 87t53 84q23 87 58 87q23 0 23 -21q0 -19 -25 -50q-24 -31 -24 -32q0 -21 31 -21q18 0 40 13l26 16
q2 1 6 1q12 0 21 -10t6 -18l-69 -87q-64 -82 -64 -132q0 -45 44 -45q30 0 64.5 18t67 44.5t54.5 51.5l24 28l5 5t5 3q7 0 7 -7q0 -2 -2 -7t-7 -11l-32 -36q-23 -26 -56.5 -52.5t-69 -43.5t-64.5 -17zM254 391q-7 -2 -7 6q0 4 4 7l97 78q11 9 17 9q5 0 12.5 -7.5t7.5 -14.5
q0 -6 -4.5 -10.5l-8.5 -8.5q-5 -5 -18.5 -14t-36.5 -20q-27 -13 -42 -18z" />
    <glyph glyph-name="uni0156" unicode="&#x156;" horiz-adv-x="752" 
d="M638 -112q-40 0 -68.5 32t-49.5 82t-37 103q-37 121 -31 144q-59 -79 -102 -131.5t-70 -78.5q-118 -114 -239 -114q-36 0 -59.5 15t-23.5 50q0 22 10 47.5t25 48.5t30 38q33 33 55 33q4 0 4 -2q0 -5 -15 -17q-35 -28 -58 -64.5t-23 -66.5q0 -56 79 -53q129 5 358 312
q13 17 22 24l-16 6q-13 -5 -21 -5q-21 0 -21 17q0 23 31 30q19 5 49 -17q39 44 75.5 84t66.5 65.5t48 25.5q24 0 24 -22q0 -9 -4.5 -18.5t-10.5 -9.5q-6 -1 -6 6q0 5 6 12v4q0 6 -4 9q-26 17 -160 -169q11 -1 23.5 -1.5t26.5 -0.5q232 0 290 120q12 26 12 48q0 44 -41 77
q-37 30 -97.5 40.5t-120.5 10.5q-133 0 -283 -73q-182 -89 -182 -209q0 -39 51 -39q47 0 106 38q51 34 70 69q7 13 13 13q7 0 4 -8q-19 -56 -85 -96q-64 -39 -132 -39q-81 0 -75 52q15 131 161 223q145 91 350 91q78 0 151.5 -14t119.5 -52q48 -40 48 -94q0 -23 -11 -50
q-17 -39 -52 -66.5t-81 -44.5t-97 -25t-99 -8q-26 0 -49.5 2t-43.5 6q6 -19 21 -69t38 -130q7 -22 19.5 -48t28.5 -49t34.5 -38t37.5 -15q42 0 70 85q5 20 11 20q5 0 9 -19q1 -3 1 -8q0 -26 -28 -64q-37 -55 -83 -55zM289.001 -204.869q-3.8252 1 -3.47461 3
q0.174805 1 27.7246 27t28.0488 46q0.924805 11 -10.5879 19.5t-9.9375 17.5q5.25 30 34.25 30q14 0 26.3379 -9.5q12.3369 -9.5 9.71191 -24.5q-7.34863 -42 -48.999 -80q-37.7744 -33 -53.0742 -29z" />
    <glyph glyph-name="uni0157" unicode="&#x157;" horiz-adv-x="394" 
d="M204 -5q-43 0 -59 22.5t-16 60.5q0 42 26 100q10 23 21 41.5t23 34.5q-4 -1 -7 -1h-6q-24 0 -40 34l-74 -96q-59 -77 -72 -77q-5 0 -5 4q0 5 5 13q3 6 12 16q38 44 70 87t53 84q23 87 58 87q23 0 23 -21q0 -19 -25 -50q-24 -31 -24 -32q0 -21 31 -21q18 0 40 13l26 16
q2 1 6 1q12 0 21 -10t6 -18l-69 -87q-64 -82 -64 -132q0 -45 44 -45q30 0 64.5 18t67 44.5t54.5 51.5l24 28l5 5t5 3q7 0 7 -7q0 -2 -2 -7t-7 -11l-32 -36q-23 -26 -56.5 -52.5t-69 -43.5t-64.5 -17zM32.001 -190.656q-3.8252 1 -3.47461 3q0.174805 1 27.7246 27
t28.0488 46q0.924805 11 -10.5879 19.5t-9.9375 17.5q5.25 30 34.25 30q14 0 26.3379 -9.5q12.3369 -9.5 9.71191 -24.5q-7.34863 -42 -48.999 -80q-37.7744 -33 -53.0742 -29z" />
    <glyph glyph-name="Scaron" unicode="&#x160;" horiz-adv-x="748" 
d="M279 -95q-41 0 -102 49q-43 7 -73.5 18.5t-50.5 27.5q-28 24 -49 64t-21 77q0 28 13 50q30 53 76 53q35 0 41 -59q7 -55 11.5 -87.5t7.5 -42.5q15 -49 51 -83q42 -9 91 -9q108 0 207 41q42 18 82 47t66 64t26 68q0 47 -83 73l-176 40q-54 12 -86.5 42.5t-32.5 69.5
q0 60 75 120q38 31 89 52.5t107.5 33t108.5 11.5q74 0 126.5 -23t65.5 -67q3 -10 3 -22q0 -61 -61 -85q-37 -15 -63 -15q-16 0 -25 6q-2 2 -2 5q0 7 28 8q17 1 28 3t16 4q38 20 38 59q0 20 -11 42q-31 57 -155 57q-45 0 -93 -9.5t-91 -28t-73 -46.5q-52 -48 -52 -86
q0 -29 28.5 -51.5t86.5 -33.5l118 -22q68 -13 110 -38.5t42 -77.5q0 -46 -23 -86t-61.5 -71.5t-87.5 -52.5q-111 -49 -262 -49q-19 0 -38 1t-37 3q14 -8 35.5 -16t49.5 -15q3 -1 3 -4q0 -9 -21 -9zM147 -18q-27 30 -42 62q-22 50 -33 123q-8 53 -17 53q-8 0 -21.5 -12
t-13.5 -51q0 -76 54 -132q27 -28 73 -43zM621 760q5 0 11.5 -10t17.5 -25q5 -5 7 -11.5t5 -12.5q17 8 43 22.5t42 21.5q8 4 21.5 9.5t20.5 5.5q10 0 10 -6q0 -4 -6.5 -11t-12.5 -11q-22 -10 -50 -25t-51 -26.5t-30 -11.5q-12 0 -20.5 12t-16.5 29q-2 7 -4 13.5t-2 13.5
q0 23 15 23z" />
    <glyph glyph-name="scaron" unicode="&#x161;" horiz-adv-x="359" 
d="M115 -2q-47 0 -69.5 31t-36.5 86q-18 -18 -25 -18q-5 0 -5 8q0 6 5 11l25.5 31t86.5 87l126 118q26 25 41.5 38t22.5 13q32 0 32 -24q0 -12 -13 -28q-10 -12 -14.5 -18.5t-5.5 -7.5q-18 -31 -33 -111q-11 -59 -19 -97t-13 -55q42 1 83 26t88 82l6 6t8 4q6 0 6 -5t-3 -10
t-6 -9q-31 -37 -58 -60.5t-57 -37t-71 -22.5l-32 -21q-13 -9 -31 -13t-38 -4zM127 49q23 0 38 11q11 6 21.5 33.5t20.5 68.5q8 35 12.5 68.5t8.5 64.5l4 34q-23 -17 -58 -49t-69 -67t-44 -51.5t-11 -24.5q-4 -40 19.5 -64t57.5 -24zM252 528q5 0 11.5 -10t17.5 -25
q5 -5 7 -11.5t5 -12.5q17 8 43 22.5t42 21.5q8 4 21.5 9.5t20.5 5.5q10 0 10 -6q0 -4 -6.5 -11t-12.5 -11q-22 -10 -50 -25t-51 -26.5t-30 -11.5q-12 0 -20.5 12t-16.5 29q-2 7 -4 13.5t-2 13.5q0 23 15 23z" />
    <glyph glyph-name="Ydieresis" unicode="&#x178;" horiz-adv-x="882" 
d="M336 -254q-25 0 -50.5 12t-43 32t-17.5 43q0 21 21 21q4 0 7.5 -0.5t7.5 -1.5q12 -43 25 -63.5t53 -20.5q62 0 135.5 85t166.5 251l180 321l-104 -111q-64 -68 -106 -111t-62 -63q-36 -36 -71 -67t-69.5 -50t-70.5 -19q-57 0 -57 67q0 80 68 165l50 60t50 61
q81 102 119 167q14 25 21.5 44t7.5 34q0 22 -19 32.5t-61 10.5q-106 0 -293 -128q-44 -29 -83 -71t-63 -88t-24 -89q0 -44 26.5 -63.5t65.5 -19.5q51 0 113 44q73 49 82 52q-10 -37 -79 -81q-76 -47 -142 -47q-52 0 -79 36t-27 84q0 136 199 278q40 29 96.5 54t115.5 40.5
t106 15.5q44 0 76 -17t32 -55q0 -46 -59 -137q-25 -39 -68.5 -96t-105.5 -131q-25 -29 -46 -76q-21 -46 -21 -74q0 -27 21 -27q22 0 65 31q122 87 251 219q114 116 171 200q41 59 87 59q16 0 16 -10q0 -2 -0.5 -4t-1.5 -4q-53 -93 -138.5 -239t-204.5 -345q-33 -54 -77 -102
t-93 -78t-99 -30zM833 650q-7 0 -14 10.5t-7 18.5q0 15 29 36q14 12 27.5 12.5t7.5 -10.5l-16 -40q-12 -27 -27 -27zM712 650q-7 0 -14 10.5t-7 18.5q0 15 29 36q20 12 30 11t5 -9l-16 -40q-12 -27 -27 -27z" />
    <glyph glyph-name="Zcaron" unicode="&#x17d;" horiz-adv-x="739" 
d="M611 -118q-5 0 -5 5q0 12 13 24q10 9 10 18q0 15 -19.5 27.5t-51.5 23t-69 18t-72.5 12t-62.5 4.5q-35 1 -83 -3t-109 -13t-108.5 -13.5t-81.5 -3.5q-16 -14 -20 -14q-2 0 -2 3q0 4 6 14q-36 2 -37 18q-1 17 15 33q17 17 29 17q2 0 4 -2q5 -8 43 -14q253 264 725 523
l-30 6q-37 8 -79 12t-90 4q-126 0 -209 -30q-17 -4 -38.5 -14t-39.5 -23t-27 -27q-10 -18 -6 -39q4 -17 -1 -19.5t-10 -2.5q-11 0 -19.5 14t-8.5 34q0 12 5 29q19 64 123 94q53 15 156 15q72 0 139 -5.5t129 -16.5q15 -1 50 -9l55 30q8 4 25 4q37 0 37 -10q0 -4 -9 -7
q-5 -4 -18 -11t-33 -18l39 -3q23 -1 33.5 4t7.5 21q-2 5 2 5q5 0 14 -13t9 -25q0 -25 -33 -25q-1 0 -27.5 4l-79.5 12q-80 -46 -170 -102.5t-190 -124.5q-121 -83 -216 -157t-165 -139q59 7 137 15t174 16q47 3 102.5 0t105.5 -13t81.5 -28t31.5 -46q0 -24 -29 -53
q-38 -35 -52 -35zM598 758q5 0 11.5 -10t17.5 -25q5 -5 7 -11.5t5 -12.5q17 8 43 22.5t42 21.5q8 4 21.5 9.5t20.5 5.5q10 0 10 -6q0 -4 -6.5 -11t-12.5 -11q-22 -10 -50 -25t-51 -26.5t-30 -11.5q-12 0 -20.5 12t-16.5 29q-2 7 -4 13.5t-2 13.5q0 23 15 23z" />
    <glyph glyph-name="zcaron" unicode="&#x17e;" horiz-adv-x="386" 
d="M231 -22q-29 0 -57.5 6t-51.5 19q-7 4 -20.5 13t-34.5 25q-16 -11 -30 -19.5t-27 -8.5q-23 0 -23 25q0 8 5.5 21.5t12.5 13.5q5 0 5 -7q0 -5 -1 -8q0 -1 -0.5 -2.5t-0.5 -2.5q0 -10 10 -10q13 0 29 12l-38 29q-2 2 -2 5q0 7 10 16.5t18 9.5q3 0 46 -34q40 45 83 89
q32 34 56.5 58t42.5 37q-79 24 -117 24q-24 0 -39 -10.5t-15 -26.5q0 -13 14 -24q8 -6 8 -10q0 -6 -5 -6q-10 0 -27 20q-16 20 -16 41t15.5 32t38.5 15t45 4q32 0 70 -12t75 -24q14 8 30 8q42 0 42 -25q0 -10 -12.5 -18.5t-30.5 -8.5q-19 0 -34 7q-94 -58 -204 -186l36 -28
q23 -17 50.5 -22.5t54.5 -5.5q44 0 75 16t31 48q0 13 -4 22q-2 6 -2 7q0 7 10 7q5 0 7 -5q8 -18 8 -34q0 -40 -37.5 -66t-98.5 -26zM225 455q5 0 11.5 -10t17.5 -25q5 -5 7 -11.5t5 -12.5q17 8 43 22.5t42 21.5q8 4 21.5 9.5t20.5 5.5q10 0 10 -6q0 -4 -6.5 -11t-12.5 -11
q-22 -10 -50 -25t-51 -26.5t-30 -11.5q-12 0 -20.5 12t-16.5 29q-2 7 -4 13.5t-2 13.5q0 23 15 23z" />
    <glyph glyph-name="florin" unicode="&#x192;" horiz-adv-x="340" 
d="M-28 -290q-106 0 -106 114q0 76 94 233q42 71 90 137.5t103 129.5q110 129 161 140q13 3 21.5 -5t8.5 -20t-10 -19q-28 -14 -60.5 -40.5t-69.5 -66.5q-62 -67 -95 -119q66 0 100 -43q30 -37 30 -96q0 -82 -89 -210q-94 -135 -178 -135zM-30 -265q65 0 149 120
q79 113 79 184q0 48 -19 79q-25 42 -79 42q-45 0 -122 -158q-71 -148 -71 -198q0 -69 63 -69z" />
    <glyph glyph-name="circumflex" unicode="&#x2c6;" horiz-adv-x="370" 
d="M94 515q-9 0 -4 8q6 10 19.5 21t28.5 21q26 17 47 29t33 12q7 0 18 -11.5t23 -26t23 -25.5q2 -3 2 -8q0 -20 -22 -20q-7 0 -14.5 5.5t-11.5 9.5q-8 8 -19.5 22t-19.5 22q-9 -6 -18 -12.5t-19 -11.5q-27 -15 -44 -25t-22 -10z" />
    <glyph glyph-name="caron" unicode="&#x2c7;" horiz-adv-x="370" 
d="M158 455q5 0 11.5 -10t17.5 -25q5 -5 7 -11.5t5 -12.5q17 8 43 22.5t42 21.5q8 4 21.5 9.5t20.5 5.5q10 0 10 -6q0 -4 -6.5 -11t-12.5 -11q-22 -10 -50 -25t-51 -26.5t-30 -11.5q-12 0 -20.5 12t-16.5 29q-2 7 -4 13.5t-2 13.5q0 23 15 23z" />
    <glyph glyph-name="breve" unicode="&#x2d8;" horiz-adv-x="184" 
d="M90 371q-28 0 -43 16t-15 43q0 12 3.5 24.5t13.5 12.5q8 0 9.5 -6.5t2.5 -12.5q6 -38 45 -38q23 0 50 12.5t58 44.5q8 8 18 13.5t10 -0.5q0 -4 -8 -15q-35 -46 -72.5 -70t-71.5 -24z" />
    <glyph glyph-name="dotaccent" unicode="&#x2d9;" horiz-adv-x="173" 
d="M76 485q-7 0 -14 10.5t-7 18.5q0 15 30 36t46 21q2 0 3 -1q-1 0 -14 -18l-17 -40q-10 -27 -27 -27z" />
    <glyph glyph-name="ring" unicode="&#x2da;" horiz-adv-x="229" 
d="M84 433q-41 0 -41 38q0 23 10 44q12 27 29 32q17 32 51 32q19 0 31 -15.5t12 -36.5q0 -36 -28 -65q-29 -29 -64 -29zM95 452q24 0 40.5 24t16.5 49q0 36 -22 36q-12 0 -29 -13l11 -6q-1 -4 -6.5 -11.5t-13.5 -20.5q-12 -18 -12 -38t15 -20z" />
    <glyph glyph-name="ogonek" unicode="&#x2db;" horiz-adv-x="234" 
d="M93 -152q-55 0 -55 42q0 27 19 69q22 48 44 49l3 -3q-34 -47 -34 -88t45 -41q17 0 45 12l30 11q11 0 11 -9q0 -12 -48 -29q-39 -13 -60 -13z" />
    <glyph glyph-name="tilde" unicode="&#x2dc;" horiz-adv-x="272" 
d="M184 437q-19 0 -51 13q-33 14 -48 14q-18 0 -34 -13t-21 -13q-1 1 -1 2q0 16 43 41q16 10 36 10q15 0 48 -11q30 -10 47 -10q24 0 42 21q6 0 6 -4q0 -15 -40 -42q-13 -8 -27 -8z" />
    <glyph glyph-name="hungarumlaut" unicode="&#x2dd;" horiz-adv-x="442" 
d="M250 472q-4 0 -7 6q-2 3 -2 7l27 81q2 9 6 9q6 0 13 -13q6 -11 4 -19q-1 -4 -6.5 -14t-13.5 -26q-16 -31 -21 -31zM169 472q-4 0 -7 6q-3 4 -1 7l26 81q2 9 6 9q6 0 13 -13q6 -11 4 -19q-1 -4 -6.5 -14t-13.5 -26q-16 -31 -21 -31z" />
    <glyph glyph-name="pi" unicode="&#x3c0;" horiz-adv-x="338" 
d="M40 -10q-6 0 -6 2q19 39 30.5 68t19 56t12.5 59l14 79h-2q-52 0 -92 -40h-4q-2 0 -2 4q2 4 3.5 8t6.5 8q26 24 52 38t52 14q14 0 40 -6t53.5 -12t44.5 -6q13 0 31 9t37 23q2 0 2 -4q0 -14 -18.5 -26.5t-42 -20t-37.5 -7.5l-32 -82q-11 -29 -18.5 -55t-6.5 -48
q0 -27 17 -27q3 1 8 1q8 0 8 -4q0 1 -3 -4.5t-11 -5.5q-1 0 -1 0.5t-1 0.5q-3 0 -6.5 -1t-7.5 -1q-26 0 -26 35q0 51 17 104.5t33 90.5l-68 14q-4 -34 -15 -72q-2 -7 -8 -29t-15 -49.5t-19 -53.5t-20 -43t-19 -17z" />
    <glyph glyph-name="endash" unicode="&#x2013;" horiz-adv-x="406" 
d="M207 213q-21 -5 -100 1q-88 6 -88 21q0 11 9 17.5t16 6.5q-1 0 9 0t30 1h80q51 1 85 0q51 -1 88 -0.5t60 2.5q8 -17 -77 -32l-56 -8t-56 -9z" />
    <glyph glyph-name="emdash" unicode="&#x2014;" horiz-adv-x="605" 
d="M134 206q-115 0 -115 15q0 12 10 25t15 13l61 1h118q73 1 107 0q105 -2 174.5 -1.5t103.5 3.5q7 -16 -142 -32q-44 -4 -88.5 -8t-88.5 -9q-13 -4 -52 -5.5t-103 -1.5z" />
    <glyph glyph-name="quoteleft" unicode="&#x2018;" horiz-adv-x="126" 
d="M55 306q-14 0 -26 9q-15 11 -15 24q0 44 36 81q32 33 47 29q4 -1 4 -3t-23 -28q-22 -24 -20 -46q1 -11 14 -19t13 -17q0 -30 -30 -30z" />
    <glyph glyph-name="quoteright" unicode="&#x2019;" horiz-adv-x="139" 
d="M57 293q-4 1 -4 3l23 26q24 26 21 47q-1 11 -14 19.5t-13 17.5q0 30 29 30q14 0 28 -9.5t14 -23.5q0 -43 -36 -81q-32 -33 -48 -29z" />
    <glyph glyph-name="quotesinglbase" unicode="&#x201a;" horiz-adv-x="86" 
d="M62 -46q-3 0 -3 8q0 34 -1.5 61.5t-3.5 47.5q21 3 30 3q2 0 3 -1v-2q0 -7 -2 -21.5t-6 -37.5t-6.5 -36.5t-4.5 -17.5q-1 -4 -6 -4z" />
    <glyph glyph-name="quotedblleft" unicode="&#x201c;" horiz-adv-x="206" 
d="M55 306q-14 0 -26 9q-15 11 -15 24q0 44 36 81q32 33 47 29q4 -1 4 -3t-23 -28q-22 -24 -20 -46q1 -11 14 -19t13 -17q0 -30 -30 -30zM157 306q-14 0 -28 9.5t-14 23.5q0 44 36 81q32 33 48 29q4 -1 4 -3q0 -1 -24 -27q-23 -26 -20 -47q1 -11 14 -19t13 -17
q0 -30 -29 -30z" />
    <glyph glyph-name="quotedblright" unicode="&#x201d;" horiz-adv-x="206" 
d="M-1 293q-4 1 -4 3l23 26q24 26 21 47q-1 11 -14 19.5t-13 17.5q0 30 29 30q14 0 28 -9.5t14 -23.5q0 -43 -36 -81q-32 -33 -48 -29zM101 293q-4 1 -4 3t22 27q23 26 21 46q-1 11 -14 19.5t-13 17.5q0 30 30 30q14 0 27.5 -9.5t13.5 -23.5q0 -43 -35 -81q-32 -33 -48 -29z
" />
    <glyph glyph-name="quotedblbase" unicode="&#x201e;" horiz-adv-x="156" 
d="M131 -46q-3 0 -3 8q0 34 -1.5 61.5t-3.5 47.5q21 3 30 3q2 0 3 -1v-2q0 -7 -2 -21.5t-6 -37.5t-6.5 -36.5t-4.5 -17.5q-1 -4 -6 -4zM62 -46q-3 0 -3 8q0 34 -1.5 61.5t-3.5 47.5q21 3 30 3q2 0 3 -1v-2q0 -7 -2 -21.5t-6 -37.5t-6.5 -36.5t-4.5 -17.5q-1 -4 -6 -4z" />
    <glyph glyph-name="dagger" unicode="&#x2020;" horiz-adv-x="387" 
d="M158 11q-4 0 -4 6l3 38l7 92q7 82 12 146t8 110l-80 -4l-43 -3q-7 0 -19 8.5t-14 14.5q2 2 3 2q25 3 63.5 4.5t90.5 2.5q2 39 3 84t1 96q0 5 13 12.5t19 8.5l2 -1v-19q0 -28 -2.5 -73.5t-7.5 -107.5q111 -1 162 -12q5 -2 5 -3q0 -5 -11 -5q-33 0 -72.5 -1t-85.5 -3
q-7 -88 -15.5 -163t-17.5 -139q-1 -16 -5 -38t-11 -50q-1 -3 -4 -3z" />
    <glyph glyph-name="daggerdbl" unicode="&#x2021;" horiz-adv-x="446" 
d="M34 -268q-32 -2 -32 64q0 144 135 406q-5 -1 -15.5 -4.5t-27.5 -8.5q-26 -10 -41 -10q-21 0 -21 17q0 13 53 24q17 2 33.5 5t32.5 6l40 71q-8 -1 -52 -15q-41 -11 -47 -11q-21 0 -21 17q0 13 60 26l76 12q25 43 42 70.5t26 40.5q42 66 79 103q19 19 45 19q15 0 15 -6
q0 -2 -3 -5q-9 -11 -22.5 -27t-30.5 -38q-26 -34 -52.5 -71.5t-54.5 -78.5q33 5 56.5 8t36.5 3q15 0 18 -6q-9 -12 -130 -34q-24 -36 -45 -72q86 15 118 15q15 0 18 -6q-9 -12 -71 -24l-81 -14q-142 -248 -142 -413q0 -10 3 -31t3 -31z" />
    <glyph glyph-name="bullet" unicode="&#x2022;" horiz-adv-x="537" 
d="M271 20q-89 0 -154 63q-63 65 -63 154t63 152q64 64 154 64q89 0 152 -64q64 -63 64 -152q0 -90 -64 -154q-63 -63 -152 -63z" />
    <glyph glyph-name="ellipsis" unicode="&#x2026;" horiz-adv-x="556" 
d="M481 -1q-17 0 -29 10.5t-12 24.5q0 29 38 29q14 0 28 -9.5t14 -24.5q0 -12 -13.5 -21t-25.5 -9zM155 -1q-17 0 -29 10.5t-12 24.5q0 29 38 29q14 0 28 -9.5t14 -24.5q0 -12 -13.5 -21t-25.5 -9zM320 -1q-17 0 -29 10.5t-12 24.5q0 29 38 29q14 0 28 -9.5t14 -24.5
q0 -12 -13.5 -21t-25.5 -9z" />
    <glyph glyph-name="perthousand" unicode="&#x2030;" horiz-adv-x="865" 
d="M133 -115q-17 0 -17 29q0 37 22 97q25 69 203 315q82 113 148.5 197.5t116.5 141.5q-49 -24 -120 -45q-38 -11 -68.5 -16.5t-52.5 -6.5q11 -33 -66 -126q-79 -97 -135 -97h-16q-26 0 -41 27q-12 20 -12 42q0 60 87 168q88 109 142 109q51 0 51 -54q0 -8 -1.5 -17
t-3.5 -19q2 -4 41 1q101 12 234 74q4 2 5 2q11 0 19 -8q12 -11 -4 -30q-68 -79 -142 -171.5t-154 -199.5q-188 -253 -220 -337q-6 -18 -6 -32q0 -19 11 -25q5 -1 0 -9q-7 -10 -21 -10zM166 404q43 0 110 79q65 77 65 111q-16 9 -40 46q-34 0 -98 -82q-63 -80 -61 -123
q1 -31 24 -31zM348 -82q-26 0 -41 27q-12 20 -12 42q0 60 87 168q88 109 142 109q51 0 51 -54q0 -8 -1.5 -17t-3.5 -19q1 -2 9.5 -3t8.5 -8q0 -13 -23 -22q11 -33 -66 -126q-79 -97 -135 -97h-16zM601 -82q-26 0 -41 27q-12 20 -12 42q0 60 87 168q88 109 142 109
q51 0 51 -54q0 -8 -1.5 -17t-3.5 -19q1 -2 9.5 -3t8.5 -8q0 -13 -23 -22q11 -33 -66 -126q-79 -97 -135 -97h-16zM366 -52q43 0 110 79q65 77 65 111q-16 9 -40 46q-34 0 -98 -82q-63 -80 -61 -123q1 -31 24 -31zM619 -52q43 0 110 79q65 77 65 111q-16 9 -40 46
q-34 0 -98 -82q-63 -80 -61 -123q1 -31 24 -31z" />
    <glyph glyph-name="guilsinglleft" unicode="&#x2039;" horiz-adv-x="340" 
d="M217 130l-8 4q-22 30 -55.5 57.5t-65.5 52.5q-3 2 -3 6q0 10 53 86q23 32 39.5 54.5t26.5 34.5q9 11 19 11q6 0 6 -6q0 -15 -99 -153q98 -125 98 -134q0 -15 -11 -13z" />
    <glyph glyph-name="guilsinglright" unicode="&#x203a;" horiz-adv-x="300" 
d="M91 129q-6 0 -6 6q0 15 99 153q-98 125 -98 134q0 15 11 13l8 -4q22 -30 55.5 -57.5t65.5 -52.5q3 -1 3 -6q0 -10 -53 -86q-22 -32 -38.5 -54.5t-27.5 -34.5q-9 -11 -19 -11z" />
    <glyph glyph-name="fraction" unicode="&#x2044;" horiz-adv-x="225" 
d="M40 93q-10 0 -10 17q0 23 13 58q20 52 157 237q137 181 151 181q6 0 11 -5q7 -6 -2 -18q-82 -94 -178 -223q-57 -76 -89.5 -126t-42.5 -76q-1 -5 -2.5 -10t-1.5 -9q0 -11 7 -15q3 -1 0 -5q-4 -6 -13 -6z" />
    <glyph glyph-name="trademark" unicode="&#x2122;" horiz-adv-x="656" 
d="M71 322q-18 0 -18 13q0 12 38 105q12 29 24 57.5t25 56.5q12 35 12 42q0 9 -28 9q-12 0 -36 -2.5t-36 -2.5q-21 0 -25 13q7 13 135 22q49 4 87 6t66 2q22 0 22 -8q0 -12 -69 -20q-73 -7 -81 -21q-8 -16 -17.5 -40t-20.5 -56q-7 -25 -15 -50l-16 -50q-7 -25 -26 -67
q-6 -9 -21 -9zM265 328q-11 0 -11 7q0 3 38 99q20 50 31.5 79t13.5 36q1 13 2.5 25t2.5 24q5 35 24 35q7 0 13 -22q5 -29 10 -58.5t9 -58.5q20 -86 53 -86q30 0 99 108q71 108 72 108q12 0 12 -27q0 -5 -1.5 -13.5t-3.5 -20.5q-4 -14 -5.5 -23t-2.5 -14q-1 -40 -5 -82
t-9 -87q-11 -17 -35 -17q-11 0 -11 9v3t1 5q5 28 13 69t19 96q-105 -135 -153 -135q-51 0 -89 135q-11 -24 -29 -92q-8 -31 -15.5 -52.5t-15.5 -33.5q-10 -16 -27 -16z" />
    <glyph glyph-name="uni03A9" unicode="&#x2126;" horiz-adv-x="678" 
d="M216 -1q-32 0 -76.5 0.5t-82.5 0.5q-15 0 -24.5 2t-9.5 7q0 8 5 16.5t15 9.5q23 2 52.5 2h59t49.5 1q-31 32 -47.5 81.5t-16.5 105.5q0 72 26 140t71 122t105 86t127 32q57 0 91.5 -23t50 -63t15.5 -90q0 -81 -28 -157t-74.5 -137t-102.5 -99q13 0 39.5 0.5t57.5 0.5
t58.5 0.5t42.5 0.5q18 0 17 -9t-9 -18.5t-12 -9.5q-28 -1 -65.5 -1.5t-75.5 0t-68 0.5q-14 0 -26.5 1.5t-12.5 6.5q1 5 2.5 14.5t16.5 16.5q34 16 65.5 53t58 87t44 105t24 107.5t-1.5 95.5t-33.5 68.5t-72.5 25.5q-48 0 -94 -26.5t-84 -71.5t-64.5 -101.5t-37.5 -116.5
t-2.5 -117t41.5 -102q9 -7 12 -11t3 -7q0 -15 -5.5 -22t-22.5 -7z" />
    <glyph glyph-name="partialdiff" unicode="&#x2202;" horiz-adv-x="411" 
d="M60 10q-28 9 -41.5 35t-6.5 71q2 11 5 23.5t7 25.5q9 22 27.5 55.5t45 68.5t57.5 64t66 42.5t70 2.5q13 -3 25 -12q3 23 -2 52.5t-14 60t-19 57t-18 42.5q-13 29 -28 54.5t-25 44.5t-9 25q2 11 11.5 18.5t22.5 2.5q14 -4 30 -29.5t27 -55.5q30 -78 45 -139.5t17 -120
t-9 -127.5q-10 -57 -39 -109.5t-69 -91t-86 -56t-90 -4.5zM88 30q21 -7 53 7t66 45.5t61 78t38 104.5l2 20q5 20 2 37t-23 24l-9 2q-3 4 -8 4q-17 5 -39.5 -10t-46.5 -42.5t-46 -59t-38.5 -59t-22.5 -43.5q-4 -13 -7.5 -24t-5.5 -20q-9 -55 24 -64z" />
    <glyph glyph-name="uni0394" unicode="&#x2206;" horiz-adv-x="452" 
d="M25 -2q18 33 41.5 73.5t49 83t49.5 81.5l137 223q2 4 8.5 16t15 26t16 24t11.5 10t4 -7q3 -53 10 -122t16.5 -143t21 -143t23.5 -122l-28.5 0.5t-77 1t-108.5 0.5h-93t-96 -2zM230 30q57 0 102 1.5t52 1.5q-1 13 -5 50t-10 87t-12 103.5t-12 99t-10 74t-6 28.5
q-3 0 -5 -5q-29 -47 -63 -102.5t-68.5 -112.5t-65.5 -110.5t-54 -98.5q-1 -2 -2 -4.5t-1 -4.5q0 -3 18.5 -4.5t45.5 -2t53.5 -0.5h42.5z" />
    <glyph glyph-name="product" unicode="&#x220f;" horiz-adv-x="468" 
d="M52 -26l-8 2q26 53 41.5 92t26 75t18.5 79.5t18 103.5h-4q-16 0 -32 -4t-31 -10q-10 -4 -25 -14l-27 -18t-15 -8q-4 0 -4 6q3 14 16 20q39 38 75.5 54t72.5 16q19 0 51.5 -7.5t65.5 -15.5t53 -8t45.5 9.5t60.5 33.5q3 0 3 -3q0 -2 -1 -3q0 -15 -14.5 -28t-36.5 -22
t-44.5 -14.5t-38.5 -5.5l-44 -112q-16 -41 -25.5 -76.5t-8.5 -59.5q0 -36 24 -36q3 1 11 1q11 0 11 -5q0 -7 -15 -10t-21 -6q-40 0 -40 49q0 6 0.5 12t1.5 13q11 68 26 125.5t38 106.5q-13 4 -38 9l-54 11q-10 -64 -31 -130t-45 -123t-46 -95l-5 -3q-1 -1 -5 -1z" />
    <glyph glyph-name="summation" unicode="&#x2211;" horiz-adv-x="396" 
d="M20 0l212 214l-180 218h318l-18 -22h-222l150 -184l-202 -196h266l26 -30h-350z" />
    <glyph glyph-name="minus" unicode="&#x2212;" horiz-adv-x="406" 
d="M207 213q-21 -5 -100 1q-88 6 -88 21q0 11 9 17.5t16 6.5q-1 0 9 0t30 1h80q51 1 85 0q51 -1 88 -0.5t60 2.5q8 -17 -77 -32l-56 -8t-56 -9z" />
    <glyph glyph-name="radical" unicode="&#x221a;" horiz-adv-x="461" 
d="M216 -7q-9 0 -21.5 10.5t-13.5 17.5q-6 41 -14 72t-22 68q-5 13 -14.5 36t-21.5 41.5t-25 18.5q-4 0 -24 -26.5t-35 -86.5q-1 -4 -3 -4t-4.5 7t-2.5 13q0 3 1 4q23 71 45.5 100t29.5 32q6 2 10 2q18 0 34.5 -22t31.5 -58t26 -77t18 -79q3 28 12.5 76.5t25 109t35.5 125.5
t43 125t49 107.5t52 73.5q5 5 13 5q9 0 16.5 -6.5t7.5 -14.5l-1 -4q-20 -29 -55.5 -88t-74 -143.5t-69 -192.5t-41.5 -234q-2 -8 -8 -8z" />
    <glyph glyph-name="infinity" unicode="&#x221e;" horiz-adv-x="728" 
d="M131 154q-110 0 -110 86q0 87 91 160q85 70 175 70q45 0 79 -21q45 -29 46 -106q139 139 216 139q34 0 56 -31q20 -28 20 -62q0 -73 -86 -147q-82 -70 -157 -70q-88 0 -88 99q-8 -7 -16.5 -13.5t-16.5 -11.5q-81 -54 -98 -62q-55 -30 -111 -30zM490 204q43 0 98 35
q52 34 74 73q14 23 14 61q0 78 -73 78q-33 0 -101 -59l-90 -87q2 -101 78 -101zM112 171q62 0 142 44q66 38 120 90q1 10 1 18v14q0 63 -36 87q-30 18 -68 18q-53 0 -110 -36q-54 -35 -83 -82q-36 -58 -36 -96q0 -57 70 -57z" />
    <glyph glyph-name="integral" unicode="&#x222b;" horiz-adv-x="276" 
d="M-394 -425q-51 0 -79 20.5t-28 76.5q0 13 4.5 28t15.5 30t17.5 17.5t9.5 2.5q1 0 9 -4t-2 -9q-13 -6 -21.5 -18.5t-10.5 -26.5q-5 -43 23 -64.5t68 -21.5q24 0 48 7.5t45 23.5q61 46 115 114.5t103 152t94 173.5t87.5 178.5t82.5 168.5t80 142q28 44 62 71t80 27
q26 0 44 -12t18 -50q0 -16 -7 -37t-23 -21q-8 0 -5 9t11 20.5t8 27.5q0 26 -11.5 33t-28.5 7q-32 0 -66 -36t-70.5 -98t-75.5 -142t-81 -168.5t-87.5 -177t-94.5 -168.5t-102.5 -142t-111 -98t-120.5 -36z" />
    <glyph glyph-name="approxequal" unicode="&#x2248;" horiz-adv-x="400" 
d="M61 228q-4 0 -4 10t5 17q12 20 30 32.5t56 12.5q25 0 59 -5.5t64 -11t41 -7.5q5 -1 10 -1.5t9 -0.5q13 0 22.5 7.5t16.5 15t10 7.5q2 0 2 -3v-3t-2 -5q-7 -16 -26 -33t-53 -17q-28 0 -62 6t-66.5 12t-56.5 6q-13 0 -26 -10t-21.5 -19.5t-7.5 -9.5zM27 128q-4 0 -4 10
t5 17q12 20 30 32.5t56 12.5q25 0 59 -5.5t64 -11t41 -7.5q5 -1 10 -1.5t9 -0.5q13 0 22.5 7.5t16.5 15t10 7.5q2 0 2 -3v-3t-2 -5q-7 -16 -26 -33t-53 -17q-28 0 -62 6t-66.5 12t-56.5 6q-13 0 -26 -9.5t-21.5 -19.5t-7.5 -10z" />
    <glyph glyph-name="notequal" unicode="&#x2260;" horiz-adv-x="348" 
d="M63 4q-7 0 -7 5q2 4 12 17.5t29 38.5q-10 -1 -15.5 -1h-6.5q-5 0 -12.5 9.5t-7.5 14.5l1 1q3 1 19 2.5t45 2.5l64 81q-6 0 -19.5 -1.5t-34.5 -3.5q-34 -3 -55 -3q-5 0 -12.5 9t-7.5 15l1 1q24 7 95 7q15 0 27.5 -0.5t22.5 -1.5q7 10 14.5 19.5t14.5 19.5q21 26 35 26
q5 0 5 -4t-45 -63l43 -3q34 -4 34 -10q0 -4 -6 -4h-47t-38 -1l-64 -81h19q107 2 133 -12q3 -1 3 -5q0 -3 -6 -3q-45 0 -87.5 -2t-82.5 -6l-28 -38q-23 -26 -35 -26z" />
    <glyph glyph-name="lessequal" unicode="&#x2264;" horiz-adv-x="318" 
d="M217 136l-8 4q-23 31 -57 59l-64 51q-3 2 -3 6q0 12 52 86q23 32 39.5 54.5t26.5 34.5q9 11 19 11q7 0 7 -6q0 -15 -99 -153q97 -122 97 -134q0 -14 -10 -13zM79 61q-5 0 -12.5 9t-8.5 15l2 1q20 7 97 7q82 0 106 -12q3 -1 3 -3q0 -5 -6 -5q-31 0 -91 -6t-90 -6z" />
    <glyph glyph-name="greaterequal" unicode="&#x2265;" horiz-adv-x="318" 
d="M91 129q-6 0 -6 6q0 15 99 153q-98 125 -98 134q0 15 11 13l8 -4q22 -30 55.5 -57.5t65.5 -52.5q3 -1 3 -6q0 -10 -53 -86q-22 -32 -38.5 -54.5t-27.5 -34.5q-9 -11 -19 -11zM62 61q-5 0 -12.5 9t-8.5 15l2 1q20 7 97 7q82 0 106 -12q3 -1 3 -3q0 -5 -6 -5q-31 0 -91 -6
t-90 -6z" />
    <glyph glyph-name="lozenge" unicode="&#x25ca;" horiz-adv-x="398" 
d="M172 6q-7 0 -8.5 6t-3.5 18l-13 45q-4 14 -10 38.5t-16 61.5l-25 99q-3 5 -3 8q1 16 23.5 53.5t64.5 101.5q5 8 17 27t26 39.5t25.5 35.5t16.5 15q3 0 10.5 -19.5t16.5 -51t18.5 -68t18 -70.5t14.5 -59v-12q-1 -7 -9 -21l-21 -39q-14 -27 -38 -63t-56 -85q-1 -1 -9.5 -16
t-19.5 -29.5t-19 -14.5zM180 52q23 33 55 85.5t75 120.5q-5 20 -11 46t-12 57l-29 145l-53 -86q-16 -26 -35.5 -55.5t-39.5 -64.5l22 -102q7 -31 14 -67t14 -79z" />
    <glyph glyph-name="uniF8FF" unicode="&#xf8ff;" horiz-adv-x="421" 
d="M220 424q-11 32 19 75q13 20 35 32t32 8q3 -4 3 -14q0 -33 -22 -64q-27 -38 -67 -37zM139 72q-26 0 -65 46q-56 68 -56 164q0 49 20 86q35 63 95 63q5 0 9 -0.5t7 -1.5q13 -5 25 -9t23 -8q19 -5 40 1q16 5 28.5 8.5t20.5 7.5q6 3 20 3q56 0 86 -49q-27 -12 -40.5 -39.5
t-12 -59t17.5 -56.5t47 -33q-12 -37 -44 -77q-39 -46 -64 -46q-22 0 -42 12q-13 9 -37 9q-22 0 -36 -9q-19 -12 -42 -12z" />
    <glyph glyph-name="Abreve" unicode="&#x102;" horiz-adv-x="1020" 
d="M153 -116q-154 13 -154 158q0 86 54 182q32 58 80.5 113t106 99.5t118 70.5t116.5 26q99 0 99 -73q0 -49 -30 -109t-61 -76q-3 -1 -7 -1q-3 0 -3 2l33 54q34 56 34 98q0 30 -16 57t-57 27q-50 0 -102.5 -28t-101.5 -74t-89 -101.5t-64 -109.5q-51 -115 -51 -186
q0 -107 109 -107q104 0 282 134q41 31 105.5 87t151.5 136l-30 -2.5t-42 -5.5q-10 -2 -19 -3.5t-17 -1.5q-20 2 -17 10q4 37 38 37q31 -4 58.5 -6t52.5 -2q39 36 103.5 100.5t153.5 158.5q115 121 140 121q11 0 11 -20q0 -8 -2 -20t-6 -28q-10 -38 -21 -46
q-31 -22 -51.5 -56.5t-41.5 -76.5q-21 -43 -38.5 -76.5t-31.5 -59.5l97 2q36 0 36 -5q0 -1 -2 -3q-17 -11 -144 -20q-93 -181 -93 -248q0 -46 29 -46q11 0 28 14q16 13 20 13q0 2 1 1t-1 -1q-5 -18 -29.5 -32.5t-51.5 -14.5q-25 0 -33 16t-8 44q0 101 77 257l-120 -3
q-134 -131 -269 -230q-215 -156 -330 -146zM881 289q12 23 48 83.5t97 157.5l-256 -240zM1145 716q-19 0 -33 10.5t-14 36.5q0 1 0.5 9t4 15.5t10.5 7.5q5 0 7 -5.5t4 -13.5q3 -12 9 -16.5t24 -4.5q17 0 32 5t37 23q5 5 16.5 13t11.5 0q0 -11 -11 -26q-16 -22 -43.5 -38
t-54.5 -16z" />
    <glyph glyph-name="uni1EAE" unicode="&#x1eae;" horiz-adv-x="1020" 
d="M153 -116q-154 13 -154 158q0 86 54 182q32 58 80.5 113t106 99.5t118 70.5t116.5 26q99 0 99 -73q0 -49 -30 -109t-61 -76q-3 -1 -7 -1q-3 0 -3 2l33 54q34 56 34 98q0 30 -16 57t-57 27q-50 0 -102.5 -28t-101.5 -74t-89 -101.5t-64 -109.5q-51 -115 -51 -186
q0 -107 109 -107q104 0 282 134q41 31 105.5 87t151.5 136l-30 -2.5t-42 -5.5q-10 -2 -19 -3.5t-17 -1.5q-20 2 -17 10q4 37 38 37q31 -4 58.5 -6t52.5 -2q39 36 103.5 100.5t153.5 158.5q115 121 140 121q11 0 11 -20q0 -8 -2 -20t-6 -28q-10 -38 -21 -46
q-31 -22 -51.5 -56.5t-41.5 -76.5q-21 -43 -38.5 -76.5t-31.5 -59.5l97 2q36 0 36 -5q0 -1 -2 -3q-17 -11 -144 -20q-93 -181 -93 -248q0 -46 29 -46q11 0 28 14q16 13 20 13q0 2 1 1t-1 -1q-5 -18 -29.5 -32.5t-51.5 -14.5q-25 0 -33 16t-8 44q0 101 77 257l-120 -3
q-134 -131 -269 -230q-215 -156 -330 -146zM881 289q12 23 48 83.5t97 157.5l-256 -240zM1145 716q-19 0 -33 10.5t-14 36.5q0 1 0.5 9t4 15.5t10.5 7.5q5 0 7 -5.5t4 -13.5q3 -12 9 -16.5t24 -4.5q17 0 32 5t37 23q5 5 16.5 13t11.5 0q0 -11 -11 -26q-16 -22 -43.5 -38
t-54.5 -16zM1150.19 810.956q-7.2793 -0.120117 -5.20801 7.60742q1.03516 3.86426 5.67578 5.72656l113.887 50.2354q12.9551 5.8457 18.751 4.29297q4.8291 -1.29492 10.1328 -10.4805q5.30273 -9.18555 3.49121 -15.9473q-1.55371 -5.7959 -7.06543 -8.97754
q-5.51074 -3.18262 -10.4102 -6.01074q-6.12402 -3.53516 -21.4941 -8.73438t-40.4336 -9.87109q-29.4453 -5.56836 -45.2295 -6.51465q-15.7832 -0.947266 -22.0967 -1.32617z" />
    <glyph glyph-name="uni1EB6" unicode="&#x1eb6;" horiz-adv-x="1020" 
d="M153 -116q-154 13 -154 158q0 86 54 182q32 58 80.5 113t106 99.5t118 70.5t116.5 26q99 0 99 -73q0 -49 -30 -109t-61 -76q-3 -1 -7 -1q-3 0 -3 2l33 54q34 56 34 98q0 30 -16 57t-57 27q-50 0 -102.5 -28t-101.5 -74t-89 -101.5t-64 -109.5q-51 -115 -51 -186
q0 -107 109 -107q104 0 282 134q41 31 105.5 87t151.5 136l-30 -2.5t-42 -5.5q-10 -2 -19 -3.5t-17 -1.5q-20 2 -17 10q4 37 38 37q31 -4 58.5 -6t52.5 -2q39 36 103.5 100.5t153.5 158.5q115 121 140 121q11 0 11 -20q0 -8 -2 -20t-6 -28q-10 -38 -21 -46
q-31 -22 -51.5 -56.5t-41.5 -76.5q-21 -43 -38.5 -76.5t-31.5 -59.5l97 2q36 0 36 -5q0 -1 -2 -3q-17 -11 -144 -20q-93 -181 -93 -248q0 -46 29 -46q11 0 28 14q16 13 20 13q0 2 1 1t-1 -1q-5 -18 -29.5 -32.5t-51.5 -14.5q-25 0 -33 16t-8 44q0 101 77 257l-120 -3
q-134 -131 -269 -230q-215 -156 -330 -146zM881 289q12 23 48 83.5t97 157.5l-256 -240zM564.188 -46.9268q-7.20703 0 -14.4131 8.95898q-7.20703 8.95898 -7.20703 15.7842q0 12.7979 30.8857 30.7158q30.8867 17.917 47.3594 17.917q2.05859 0 3.08887 -0.852539
q-1.03027 0 -14.4141 -15.3584l-17.502 -34.1279q-10.2959 -23.0371 -27.7979 -23.0371zM1145 716q-19 0 -33 10.5t-14 36.5q0 1 0.5 9t4 15.5t10.5 7.5q5 0 7 -5.5t4 -13.5q3 -12 9 -16.5t24 -4.5q17 0 32 5t37 23q5 5 16.5 13t11.5 0q0 -11 -11 -26q-16 -22 -43.5 -38
t-54.5 -16z" />
    <glyph glyph-name="uni1EB0" unicode="&#x1eb0;" horiz-adv-x="1020" 
d="M153 -116q-154 13 -154 158q0 86 54 182q32 58 80.5 113t106 99.5t118 70.5t116.5 26q99 0 99 -73q0 -49 -30 -109t-61 -76q-3 -1 -7 -1q-3 0 -3 2l33 54q34 56 34 98q0 30 -16 57t-57 27q-50 0 -102.5 -28t-101.5 -74t-89 -101.5t-64 -109.5q-51 -115 -51 -186
q0 -107 109 -107q104 0 282 134q41 31 105.5 87t151.5 136l-30 -2.5t-42 -5.5q-10 -2 -19 -3.5t-17 -1.5q-20 2 -17 10q4 37 38 37q31 -4 58.5 -6t52.5 -2q39 36 103.5 100.5t153.5 158.5q115 121 140 121q11 0 11 -20q0 -8 -2 -20t-6 -28q-10 -38 -21 -46
q-31 -22 -51.5 -56.5t-41.5 -76.5q-21 -43 -38.5 -76.5t-31.5 -59.5l97 2q36 0 36 -5q0 -1 -2 -3q-17 -11 -144 -20q-93 -181 -93 -248q0 -46 29 -46q11 0 28 14q16 13 20 13q0 2 1 1t-1 -1q-5 -18 -29.5 -32.5t-51.5 -14.5q-25 0 -33 16t-8 44q0 101 77 257l-120 -3
q-134 -131 -269 -230q-215 -156 -330 -146zM881 289q12 23 48 83.5t97 157.5l-256 -240zM1145 716q-19 0 -33 10.5t-14 36.5q0 1 0.5 9t4 15.5t10.5 7.5q5 0 7 -5.5t4 -13.5q3 -12 9 -16.5t24 -4.5q17 0 32 5t37 23q5 5 16.5 13t11.5 0q0 -11 -11 -26q-16 -22 -43.5 -38
t-54.5 -16zM1247.86 805.956q7.2793 -0.120117 5.20801 7.60742q-1.03516 3.86426 -5.67578 5.72656l-113.887 50.2344q-12.9551 5.84668 -18.751 4.29395q-4.8291 -1.29492 -10.1328 -10.4805q-5.30273 -9.18652 -3.49121 -15.9473q1.55371 -5.7959 7.06543 -8.97852
q5.51074 -3.18164 10.4102 -6.00977q6.12402 -3.53516 21.4941 -8.73438t40.4336 -9.87109q29.4453 -5.56836 45.2295 -6.51465q15.7832 -0.947266 22.0967 -1.32617z" />
    <glyph glyph-name="uni1EB2" unicode="&#x1eb2;" horiz-adv-x="1020" 
d="M153 -116q-154 13 -154 158q0 86 54 182q32 58 80.5 113t106 99.5t118 70.5t116.5 26q99 0 99 -73q0 -49 -30 -109t-61 -76q-3 -1 -7 -1q-3 0 -3 2l33 54q34 56 34 98q0 30 -16 57t-57 27q-50 0 -102.5 -28t-101.5 -74t-89 -101.5t-64 -109.5q-51 -115 -51 -186
q0 -107 109 -107q104 0 282 134q41 31 105.5 87t151.5 136l-30 -2.5t-42 -5.5q-10 -2 -19 -3.5t-17 -1.5q-20 2 -17 10q4 37 38 37q31 -4 58.5 -6t52.5 -2q39 36 103.5 100.5t153.5 158.5q115 121 140 121q11 0 11 -20q0 -8 -2 -20t-6 -28q-10 -38 -21 -46
q-31 -22 -51.5 -56.5t-41.5 -76.5q-21 -43 -38.5 -76.5t-31.5 -59.5l97 2q36 0 36 -5q0 -1 -2 -3q-17 -11 -144 -20q-93 -181 -93 -248q0 -46 29 -46q11 0 28 14q16 13 20 13q0 2 1 1t-1 -1q-5 -18 -29.5 -32.5t-51.5 -14.5q-25 0 -33 16t-8 44q0 101 77 257l-120 -3
q-134 -131 -269 -230q-215 -156 -330 -146zM881 289q12 23 48 83.5t97 157.5l-256 -240zM1145 716q-19 0 -33 10.5t-14 36.5q0 1 0.5 9t4 15.5t10.5 7.5q5 0 7 -5.5t4 -13.5q3 -12 9 -16.5t24 -4.5q17 0 32 5t37 23q5 5 16.5 13t11.5 0q0 -11 -11 -26q-16 -22 -43.5 -38
t-54.5 -16zM1170 784q-4 0 -5 3t1 4q20 14 36 25.5t16 27.5q0 15 -17 15q-10 0 -24.5 -6t-25.5 -17l-0.5 -0.5t-1.5 -0.5t-2 2t0 4q8 23 28.5 35t46.5 10q13 -1 20 -10.5t7 -20.5q0 -15 -7.5 -26t-20.5 -19q-19 -12 -31 -19t-17 -7h-3z" />
    <glyph glyph-name="uni1EB4" unicode="&#x1eb4;" horiz-adv-x="1020" 
d="M153 -116q-154 13 -154 158q0 86 54 182q32 58 80.5 113t106 99.5t118 70.5t116.5 26q99 0 99 -73q0 -49 -30 -109t-61 -76q-3 -1 -7 -1q-3 0 -3 2l33 54q34 56 34 98q0 30 -16 57t-57 27q-50 0 -102.5 -28t-101.5 -74t-89 -101.5t-64 -109.5q-51 -115 -51 -186
q0 -107 109 -107q104 0 282 134q41 31 105.5 87t151.5 136l-30 -2.5t-42 -5.5q-10 -2 -19 -3.5t-17 -1.5q-20 2 -17 10q4 37 38 37q31 -4 58.5 -6t52.5 -2q39 36 103.5 100.5t153.5 158.5q115 121 140 121q11 0 11 -20q0 -8 -2 -20t-6 -28q-10 -38 -21 -46
q-31 -22 -51.5 -56.5t-41.5 -76.5q-21 -43 -38.5 -76.5t-31.5 -59.5l97 2q36 0 36 -5q0 -1 -2 -3q-17 -11 -144 -20q-93 -181 -93 -248q0 -46 29 -46q11 0 28 14q16 13 20 13q0 2 1 1t-1 -1q-5 -18 -29.5 -32.5t-51.5 -14.5q-25 0 -33 16t-8 44q0 101 77 257l-120 -3
q-134 -131 -269 -230q-215 -156 -330 -146zM881 289q12 23 48 83.5t97 157.5l-256 -240zM1145 716q-19 0 -33 10.5t-14 36.5q0 1 0.5 9t4 15.5t10.5 7.5q5 0 7 -5.5t4 -13.5q3 -12 9 -16.5t24 -4.5q17 0 32 5t37 23q5 5 16.5 13t11.5 0q0 -11 -11 -26q-16 -22 -43.5 -38
t-54.5 -16zM1174.01 840.381q-17.8877 0 -48.0146 14.2998q-31.0684 15.4004 -45.1904 15.4004q-16.9463 0 -32.0098 -14.2998t-19.7715 -14.2998q-0.941406 1.09961 -0.941406 2.2002q0 17.5996 40.4834 45.0986q15.0635 11 33.8926 11q14.1221 0 45.1904 -12.0996
q28.2441 -11 44.249 -11q22.5957 0 39.542 23.0996q5.64844 0 5.64844 -4.40039q0 -16.499 -37.6582 -46.1982q-12.2393 -8.80078 -25.4199 -8.80078z" />
    <glyph glyph-name="uni1EA4" unicode="&#x1ea4;" horiz-adv-x="1020" 
d="M153 -116q-154 13 -154 158q0 86 54 182q32 58 80.5 113t106 99.5t118 70.5t116.5 26q99 0 99 -73q0 -49 -30 -109t-61 -76q-3 -1 -7 -1q-3 0 -3 2l33 54q34 56 34 98q0 30 -16 57t-57 27q-50 0 -102.5 -28t-101.5 -74t-89 -101.5t-64 -109.5q-51 -115 -51 -186
q0 -107 109 -107q104 0 282 134q41 31 105.5 87t151.5 136l-30 -2.5t-42 -5.5q-10 -2 -19 -3.5t-17 -1.5q-20 2 -17 10q4 37 38 37q31 -4 58.5 -6t52.5 -2q39 36 103.5 100.5t153.5 158.5q115 121 140 121q11 0 11 -20q0 -8 -2 -20t-6 -28q-10 -38 -21 -46
q-31 -22 -51.5 -56.5t-41.5 -76.5q-21 -43 -38.5 -76.5t-31.5 -59.5l97 2q36 0 36 -5q0 -1 -2 -3q-17 -11 -144 -20q-93 -181 -93 -248q0 -46 29 -46q11 0 28 14q16 13 20 13q0 2 1 1t-1 -1q-5 -18 -29.5 -32.5t-51.5 -14.5q-25 0 -33 16t-8 44q0 101 77 257l-120 -3
q-134 -131 -269 -230q-215 -156 -330 -146zM881 289q12 23 48 83.5t97 157.5l-256 -240zM1227 712q-13 0 -35 13q-10 5 -26 17t-18 13q-4 -2 -7.5 -5.5t-27.5 -19.5q-34 -23 -42 -23q-7 0 -4 8q2 4 8.5 11.5t30.5 23.5q26 18 36.5 24t16.5 6q13 0 37 -15.5t40 -31.5
q2 -3 2 -8q0 -8 -2 -10.5t-9 -2.5zM1101.19 793.956q-7.2793 -0.120117 -5.20801 7.60742q1.03516 3.86328 5.67578 5.72559l113.887 50.2354q12.9551 5.84668 18.75 4.29297q4.83008 -1.29395 10.1328 -10.4795q5.30371 -9.18652 3.49121 -15.9482
q-1.55273 -5.7959 -7.06445 -8.97754t-10.4102 -6.00977q-6.12402 -3.53613 -21.4941 -8.73438q-15.3701 -5.19922 -40.4336 -9.87109q-29.4463 -5.56836 -45.2295 -6.51562q-15.7832 -0.946289 -22.0967 -1.3252z" />
    <glyph glyph-name="uni1EAC" unicode="&#x1eac;" horiz-adv-x="1020" 
d="M153 -116q-154 13 -154 158q0 86 54 182q32 58 80.5 113t106 99.5t118 70.5t116.5 26q99 0 99 -73q0 -49 -30 -109t-61 -76q-3 -1 -7 -1q-3 0 -3 2l33 54q34 56 34 98q0 30 -16 57t-57 27q-50 0 -102.5 -28t-101.5 -74t-89 -101.5t-64 -109.5q-51 -115 -51 -186
q0 -107 109 -107q104 0 282 134q41 31 105.5 87t151.5 136l-30 -2.5t-42 -5.5q-10 -2 -19 -3.5t-17 -1.5q-20 2 -17 10q4 37 38 37q31 -4 58.5 -6t52.5 -2q39 36 103.5 100.5t153.5 158.5q115 121 140 121q11 0 11 -20q0 -8 -2 -20t-6 -28q-10 -38 -21 -46
q-31 -22 -51.5 -56.5t-41.5 -76.5q-21 -43 -38.5 -76.5t-31.5 -59.5l97 2q36 0 36 -5q0 -1 -2 -3q-17 -11 -144 -20q-93 -181 -93 -248q0 -46 29 -46q11 0 28 14q16 13 20 13q0 2 1 1t-1 -1q-5 -18 -29.5 -32.5t-51.5 -14.5q-25 0 -33 16t-8 44q0 101 77 257l-120 -3
q-134 -131 -269 -230q-215 -156 -330 -146zM881 289q12 23 48 83.5t97 157.5l-256 -240zM564.188 -46.9268q-7.20703 0 -14.4131 8.95898q-7.20703 8.95898 -7.20703 15.7842q0 12.7979 30.8857 30.7158q30.8867 17.917 47.3594 17.917q2.05859 0 3.08887 -0.852539
q-1.03027 0 -14.4141 -15.3584l-17.502 -34.1279q-10.2959 -23.0371 -27.7979 -23.0371zM1227 712q-13 0 -35 13q-10 5 -26 17t-18 13q-4 -2 -7.5 -5.5t-27.5 -19.5q-34 -23 -42 -23q-7 0 -4 8q2 4 8.5 11.5t30.5 23.5q26 18 36.5 24t16.5 6q13 0 37 -15.5t40 -31.5
q2 -3 2 -8q0 -8 -2 -10.5t-9 -2.5z" />
    <glyph glyph-name="uni1EA6" unicode="&#x1ea6;" horiz-adv-x="1020" 
d="M153 -116q-154 13 -154 158q0 86 54 182q32 58 80.5 113t106 99.5t118 70.5t116.5 26q99 0 99 -73q0 -49 -30 -109t-61 -76q-3 -1 -7 -1q-3 0 -3 2l33 54q34 56 34 98q0 30 -16 57t-57 27q-50 0 -102.5 -28t-101.5 -74t-89 -101.5t-64 -109.5q-51 -115 -51 -186
q0 -107 109 -107q104 0 282 134q41 31 105.5 87t151.5 136l-30 -2.5t-42 -5.5q-10 -2 -19 -3.5t-17 -1.5q-20 2 -17 10q4 37 38 37q31 -4 58.5 -6t52.5 -2q39 36 103.5 100.5t153.5 158.5q115 121 140 121q11 0 11 -20q0 -8 -2 -20t-6 -28q-10 -38 -21 -46
q-31 -22 -51.5 -56.5t-41.5 -76.5q-21 -43 -38.5 -76.5t-31.5 -59.5l97 2q36 0 36 -5q0 -1 -2 -3q-17 -11 -144 -20q-93 -181 -93 -248q0 -46 29 -46q11 0 28 14q16 13 20 13q0 2 1 1t-1 -1q-5 -18 -29.5 -32.5t-51.5 -14.5q-25 0 -33 16t-8 44q0 101 77 257l-120 -3
q-134 -131 -269 -230q-215 -156 -330 -146zM881 289q12 23 48 83.5t97 157.5l-256 -240zM1227 712q-13 0 -35 13q-10 5 -26 17t-18 13q-4 -2 -7.5 -5.5t-27.5 -19.5q-34 -23 -42 -23q-7 0 -4 8q2 4 8.5 11.5t30.5 23.5q26 18 36.5 24t16.5 6q13 0 37 -15.5t40 -31.5
q2 -3 2 -8q0 -8 -2 -10.5t-9 -2.5zM1240.86 789.956q7.2793 -0.120117 5.20898 7.60742q-1.03516 3.86328 -5.67578 5.72559l-113.887 50.2354q-12.9551 5.84668 -18.751 4.29297q-4.8291 -1.29395 -10.1328 -10.4805q-5.30273 -9.18555 -3.49121 -15.9473
q1.55371 -5.7959 7.06445 -8.97754q5.51172 -3.18164 10.4111 -6.00977q6.12402 -3.53613 21.4941 -8.73535q15.3691 -5.19824 40.4336 -9.87012q29.4453 -5.56836 45.2285 -6.51562q15.7842 -0.947266 22.0967 -1.3252z" />
    <glyph glyph-name="uni1EA8" unicode="&#x1ea8;" horiz-adv-x="1020" 
d="M153 -116q-154 13 -154 158q0 86 54 182q32 58 80.5 113t106 99.5t118 70.5t116.5 26q99 0 99 -73q0 -49 -30 -109t-61 -76q-3 -1 -7 -1q-3 0 -3 2l33 54q34 56 34 98q0 30 -16 57t-57 27q-50 0 -102.5 -28t-101.5 -74t-89 -101.5t-64 -109.5q-51 -115 -51 -186
q0 -107 109 -107q104 0 282 134q41 31 105.5 87t151.5 136l-30 -2.5t-42 -5.5q-10 -2 -19 -3.5t-17 -1.5q-20 2 -17 10q4 37 38 37q31 -4 58.5 -6t52.5 -2q39 36 103.5 100.5t153.5 158.5q115 121 140 121q11 0 11 -20q0 -8 -2 -20t-6 -28q-10 -38 -21 -46
q-31 -22 -51.5 -56.5t-41.5 -76.5q-21 -43 -38.5 -76.5t-31.5 -59.5l97 2q36 0 36 -5q0 -1 -2 -3q-17 -11 -144 -20q-93 -181 -93 -248q0 -46 29 -46q11 0 28 14q16 13 20 13q0 2 1 1t-1 -1q-5 -18 -29.5 -32.5t-51.5 -14.5q-25 0 -33 16t-8 44q0 101 77 257l-120 -3
q-134 -131 -269 -230q-215 -156 -330 -146zM881 289q12 23 48 83.5t97 157.5l-256 -240zM1227 712q-13 0 -35 13q-10 5 -26 17t-18 13q-4 -2 -7.5 -5.5t-27.5 -19.5q-34 -23 -42 -23q-7 0 -4 8q2 4 8.5 11.5t30.5 23.5q26 18 36.5 24t16.5 6q13 0 37 -15.5t40 -31.5
q2 -3 2 -8q0 -8 -2 -10.5t-9 -2.5zM1226 770q-4 0 -5 3t1 4q20 14 36 25.5t16 27.5q0 15 -17 15q-10 0 -24.5 -6t-25.5 -17l-0.5 -0.5t-1.5 -0.5t-2 2t0 4q8 23 28.5 35t46.5 10q13 -1 20 -10.5t7 -20.5q0 -15 -7.5 -26t-20.5 -19q-19 -12 -31 -19t-17 -7h-3z" />
    <glyph glyph-name="uni1EAA" unicode="&#x1eaa;" horiz-adv-x="1020" 
d="M153 -116q-154 13 -154 158q0 86 54 182q32 58 80.5 113t106 99.5t118 70.5t116.5 26q99 0 99 -73q0 -49 -30 -109t-61 -76q-3 -1 -7 -1q-3 0 -3 2l33 54q34 56 34 98q0 30 -16 57t-57 27q-50 0 -102.5 -28t-101.5 -74t-89 -101.5t-64 -109.5q-51 -115 -51 -186
q0 -107 109 -107q104 0 282 134q41 31 105.5 87t151.5 136l-30 -2.5t-42 -5.5q-10 -2 -19 -3.5t-17 -1.5q-20 2 -17 10q4 37 38 37q31 -4 58.5 -6t52.5 -2q39 36 103.5 100.5t153.5 158.5q115 121 140 121q11 0 11 -20q0 -8 -2 -20t-6 -28q-10 -38 -21 -46
q-31 -22 -51.5 -56.5t-41.5 -76.5q-21 -43 -38.5 -76.5t-31.5 -59.5l97 2q36 0 36 -5q0 -1 -2 -3q-17 -11 -144 -20q-93 -181 -93 -248q0 -46 29 -46q11 0 28 14q16 13 20 13q0 2 1 1t-1 -1q-5 -18 -29.5 -32.5t-51.5 -14.5q-25 0 -33 16t-8 44q0 101 77 257l-120 -3
q-134 -131 -269 -230q-215 -156 -330 -146zM881 289q12 23 48 83.5t97 157.5l-256 -240zM1227 712q-13 0 -35 13q-10 5 -26 17t-18 13q-4 -2 -7.5 -5.5t-27.5 -19.5q-34 -23 -42 -23q-7 0 -4 8q2 4 8.5 11.5t30.5 23.5q26 18 36.5 24t16.5 6q13 0 37 -15.5t40 -31.5
q2 -3 2 -8q0 -8 -2 -10.5t-9 -2.5zM1160.83 819.481q-17.8877 0 -48.0146 14.2998q-31.0684 15.4004 -45.1904 15.4004q-16.9463 0 -32.0098 -14.2998t-19.7715 -14.2998q-0.941406 1.09961 -0.941406 2.19922q0 17.5996 40.4834 45.0996q15.0635 11 33.8926 11
q14.1221 0 45.1904 -12.0996q28.2441 -11 44.249 -11q22.5957 0 39.542 23.0996q5.64844 0 5.64844 -4.40039q0 -16.5 -37.6582 -46.1992q-12.2393 -8.7998 -25.4199 -8.7998z" />
    <glyph glyph-name="uni1EA0" unicode="&#x1ea0;" horiz-adv-x="1020" 
d="M153 -116q-154 13 -154 158q0 86 54 182q32 58 80.5 113t106 99.5t118 70.5t116.5 26q99 0 99 -73q0 -49 -30 -109t-61 -76q-3 -1 -7 -1q-3 0 -3 2l33 54q34 56 34 98q0 30 -16 57t-57 27q-50 0 -102.5 -28t-101.5 -74t-89 -101.5t-64 -109.5q-51 -115 -51 -186
q0 -107 109 -107q104 0 282 134q41 31 105.5 87t151.5 136l-30 -2.5t-42 -5.5q-10 -2 -19 -3.5t-17 -1.5q-20 2 -17 10q4 37 38 37q31 -4 58.5 -6t52.5 -2q39 36 103.5 100.5t153.5 158.5q115 121 140 121q11 0 11 -20q0 -8 -2 -20t-6 -28q-10 -38 -21 -46
q-31 -22 -51.5 -56.5t-41.5 -76.5q-21 -43 -38.5 -76.5t-31.5 -59.5l97 2q36 0 36 -5q0 -1 -2 -3q-17 -11 -144 -20q-93 -181 -93 -248q0 -46 29 -46q11 0 28 14q16 13 20 13q0 2 1 1t-1 -1q-5 -18 -29.5 -32.5t-51.5 -14.5q-25 0 -33 16t-8 44q0 101 77 257l-120 -3
q-134 -131 -269 -230q-215 -156 -330 -146zM881 289q12 23 48 83.5t97 157.5l-256 -240zM564.188 -46.9268q-7.20703 0 -14.4131 8.95898q-7.20703 8.95898 -7.20703 15.7842q0 12.7979 30.8857 30.7158q30.8867 17.917 47.3594 17.917q2.05859 0 3.08887 -0.852539
q-1.03027 0 -14.4141 -15.3584l-17.502 -34.1279q-10.2959 -23.0371 -27.7979 -23.0371z" />
    <glyph glyph-name="uni1EA2" unicode="&#x1ea2;" horiz-adv-x="1020" 
d="M153 -116q-154 13 -154 158q0 86 54 182q32 58 80.5 113t106 99.5t118 70.5t116.5 26q99 0 99 -73q0 -49 -30 -109t-61 -76q-3 -1 -7 -1q-3 0 -3 2l33 54q34 56 34 98q0 30 -16 57t-57 27q-50 0 -102.5 -28t-101.5 -74t-89 -101.5t-64 -109.5q-51 -115 -51 -186
q0 -107 109 -107q104 0 282 134q41 31 105.5 87t151.5 136l-30 -2.5t-42 -5.5q-10 -2 -19 -3.5t-17 -1.5q-20 2 -17 10q4 37 38 37q31 -4 58.5 -6t52.5 -2q39 36 103.5 100.5t153.5 158.5q115 121 140 121q11 0 11 -20q0 -8 -2 -20t-6 -28q-10 -38 -21 -46
q-31 -22 -51.5 -56.5t-41.5 -76.5q-21 -43 -38.5 -76.5t-31.5 -59.5l97 2q36 0 36 -5q0 -1 -2 -3q-17 -11 -144 -20q-93 -181 -93 -248q0 -46 29 -46q11 0 28 14q16 13 20 13q0 2 1 1t-1 -1q-5 -18 -29.5 -32.5t-51.5 -14.5q-25 0 -33 16t-8 44q0 101 77 257l-120 -3
q-134 -131 -269 -230q-215 -156 -330 -146zM881 289q12 23 48 83.5t97 157.5l-256 -240zM1136 711q-4 0 -5 3t1 4q20 14 36 25.5t16 27.5q0 15 -17 15q-10 0 -24.5 -6t-25.5 -17l-0.5 -0.5t-1.5 -0.5t-2 2t0 4q8 23 28.5 35t46.5 10q13 -1 20 -10.5t7 -20.5q0 -15 -7.5 -26
t-20.5 -19q-19 -12 -31 -19t-17 -7h-3z" />
    <glyph glyph-name="Amacron" unicode="&#x100;" horiz-adv-x="1020" 
d="M153 -116q-154 13 -154 158q0 86 54 182q32 58 80.5 113t106 99.5t118 70.5t116.5 26q99 0 99 -73q0 -49 -30 -109t-61 -76q-3 -1 -7 -1q-3 0 -3 2l33 54q34 56 34 98q0 30 -16 57t-57 27q-50 0 -102.5 -28t-101.5 -74t-89 -101.5t-64 -109.5q-51 -115 -51 -186
q0 -107 109 -107q104 0 282 134q41 31 105.5 87t151.5 136l-30 -2.5t-42 -5.5q-10 -2 -19 -3.5t-17 -1.5q-20 2 -17 10q4 37 38 37q31 -4 58.5 -6t52.5 -2q39 36 103.5 100.5t153.5 158.5q115 121 140 121q11 0 11 -20q0 -8 -2 -20t-6 -28q-10 -38 -21 -46
q-31 -22 -51.5 -56.5t-41.5 -76.5q-21 -43 -38.5 -76.5t-31.5 -59.5l97 2q36 0 36 -5q0 -1 -2 -3q-17 -11 -144 -20q-93 -181 -93 -248q0 -46 29 -46q11 0 28 14q16 13 20 13q0 2 1 1t-1 -1q-5 -18 -29.5 -32.5t-51.5 -14.5q-25 0 -33 16t-8 44q0 101 77 257l-120 -3
q-134 -131 -269 -230q-215 -156 -330 -146zM881 289q12 23 48 83.5t97 157.5l-256 -240zM1070 718q-5 0 -12.5 11.5t-8.5 17.5l2 1q10 5 34.5 6t62.5 1q82 0 106 -12q3 -1 3 -3t-1.5 -6t-4.5 -4q-31 0 -91 -6t-90 -6z" />
    <glyph glyph-name="Aogonek" unicode="&#x104;" horiz-adv-x="1020" 
d="M153 -116q-154 13 -154 158q0 86 54 182q32 58 80.5 113t106 99.5t118 70.5t116.5 26q99 0 99 -73q0 -49 -30 -109t-61 -76q-3 -1 -7 -1q-3 0 -3 2l33 54q34 56 34 98q0 30 -16 57t-57 27q-50 0 -102.5 -28t-101.5 -74t-89 -101.5t-64 -109.5q-51 -115 -51 -186
q0 -107 109 -107q104 0 282 134q41 31 105.5 87t151.5 136l-30 -2.5t-42 -5.5q-10 -2 -19 -3.5t-17 -1.5q-20 2 -17 10q4 37 38 37q31 -4 58.5 -6t52.5 -2q39 36 103.5 100.5t153.5 158.5q115 121 140 121q11 0 11 -20q0 -8 -2 -20t-6 -28q-10 -38 -21 -46
q-31 -22 -51.5 -56.5t-41.5 -76.5q-21 -43 -38.5 -76.5t-31.5 -59.5l97 2q36 0 36 -5q0 -1 -2 -3q-17 -11 -144 -20q-93 -181 -93 -248q0 -46 29 -46q11 0 28 14q16 13 20 13q0 2 1 1t-1 -1q-5 -18 -29.5 -32.5t-51.5 -14.5q-25 0 -33 16t-8 44q0 101 77 257l-120 -3
q-134 -131 -269 -230q-215 -156 -330 -146zM881 289q12 23 48 83.5t97 157.5l-256 -240zM629 -150q-55 0 -55 42q0 27 19 69q22 48 44 49l3 -3q-34 -47 -34 -88t45 -41q17 0 45 12l30 11q11 0 11 -9q0 -12 -48 -29q-39 -13 -60 -13z" />
    <glyph glyph-name="Cacute" unicode="&#x106;" horiz-adv-x="726" 
d="M263 -65q-111 0 -171.5 59t-60.5 153q0 86 42.5 168t107.5 151q53 56 121.5 97t144 64t147.5 23q57 0 103 -15.5t73 -48.5t27 -86q0 -47 -22.5 -87.5t-60 -70.5t-82.5 -47t-91 -17q-60 0 -101 27.5t-41 69.5q0 54 69 106q12 9 19 9q5 0 5 -4q0 -10 -16 -16
q-56 -45 -56 -91q0 -33 30 -55.5t75 -22.5q40 0 80.5 17t74.5 46t54.5 65.5t20.5 76.5q0 65 -44 95t-112 30q-77 0 -152.5 -29t-141.5 -80t-118 -117q-104 -131 -104 -246q0 -61 28 -103.5t77.5 -64.5t113.5 -22q95 0 184 41.5t152 111.5q17 18 25 18q6 0 6 -9
q0 -12 -11 -23q-34 -36 -81 -67t-100.5 -55t-108.5 -37.5t-105 -13.5zM586 694q-7 -2 -7 6q0 4 4 7l97 78q11 9 17 9q5 0 12.5 -7.5t7.5 -14.5q0 -6 -4.5 -10.5l-8.5 -8.5q-5 -5 -18.5 -14t-36.5 -20q-27 -13 -42 -18z" />
    <glyph glyph-name="Ccaron" unicode="&#x10c;" horiz-adv-x="726" 
d="M263 -65q-111 0 -171.5 59t-60.5 153q0 86 42.5 168t107.5 151q53 56 121.5 97t144 64t147.5 23q57 0 103 -15.5t73 -48.5t27 -86q0 -47 -22.5 -87.5t-60 -70.5t-82.5 -47t-91 -17q-60 0 -101 27.5t-41 69.5q0 54 69 106q12 9 19 9q5 0 5 -4q0 -10 -16 -16
q-56 -45 -56 -91q0 -33 30 -55.5t75 -22.5q40 0 80.5 17t74.5 46t54.5 65.5t20.5 76.5q0 65 -44 95t-112 30q-77 0 -152.5 -29t-141.5 -80t-118 -117q-104 -131 -104 -246q0 -61 28 -103.5t77.5 -64.5t113.5 -22q95 0 184 41.5t152 111.5q17 18 25 18q6 0 6 -9
q0 -12 -11 -23q-34 -36 -81 -67t-100.5 -55t-108.5 -37.5t-105 -13.5zM558 785q5 0 11.5 -10t17.5 -25q5 -5 7 -11.5t5 -12.5q17 8 43 22.5t42 21.5q8 4 21.5 9.5t20.5 5.5q10 0 10 -6q0 -4 -6.5 -11t-12.5 -11q-22 -10 -50 -25t-51 -26.5t-30 -11.5q-12 0 -20.5 12
t-16.5 29q-2 7 -4 13.5t-2 13.5q0 23 15 23z" />
    <glyph glyph-name="Cdotaccent" unicode="&#x10a;" horiz-adv-x="726" 
d="M263 -65q-111 0 -171.5 59t-60.5 153q0 86 42.5 168t107.5 151q53 56 121.5 97t144 64t147.5 23q57 0 103 -15.5t73 -48.5t27 -86q0 -47 -22.5 -87.5t-60 -70.5t-82.5 -47t-91 -17q-60 0 -101 27.5t-41 69.5q0 54 69 106q12 9 19 9q5 0 5 -4q0 -10 -16 -16
q-56 -45 -56 -91q0 -33 30 -55.5t75 -22.5q40 0 80.5 17t74.5 46t54.5 65.5t20.5 76.5q0 65 -44 95t-112 30q-77 0 -152.5 -29t-141.5 -80t-118 -117q-104 -131 -104 -246q0 -61 28 -103.5t77.5 -64.5t113.5 -22q95 0 184 41.5t152 111.5q17 18 25 18q6 0 6 -9
q0 -12 -11 -23q-34 -36 -81 -67t-100.5 -55t-108.5 -37.5t-105 -13.5zM601 692q-7 0 -14 10.5t-7 18.5q0 15 30 36t46 21q2 0 3 -1q-1 0 -14 -18l-17 -40q-10 -27 -27 -27z" />
    <glyph glyph-name="Dcaron" unicode="&#x10e;" horiz-adv-x="921" 
d="M427 -58q-167 -8 -240 83q-88 -68 -129 -68q-22 0 -32.5 21.5t-10.5 46.5q0 48 37 138q44 102 81 102q19 0 29 -60q17 -90 31 -124q33 35 82.5 95t114.5 145q162 213 215 233q18 7 36 7q20 0 32.5 -8.5t12.5 -19.5q0 -17 -29 -20q-21 -11 -51.5 -38t-64 -61.5t-62.5 -68
t-47 -57.5q-107 -149 -214 -238l-6 -5q32 -47 77 -65t100 -18q91 0 173.5 27.5t149 82t109.5 133.5q47 86 47 164q0 53 -23 100.5t-61.5 81.5t-85.5 44q-55 12 -115 12q-154 0 -284 -71q-137 -75 -137 -168q0 -25 15 -43q12 -14 17 -16h-6q-28 5 -48 28t-20 51
q0 52 32.5 95.5t94.5 79.5q124 71 293 71q38 0 76 -4t75 -12q65 -14 118 -53t85 -95t32 -121q0 -75 -44 -155q-44 -81 -113.5 -135.5t-156.5 -83t-185 -33.5zM63 -25q43 19 104 79q-29 48 -38 81q-6 22 -9 67q-69 -99 -69 -173q0 -31 12 -54zM625 753q5 0 11.5 -10t17.5 -25
q5 -5 7 -11.5t5 -12.5q17 8 43 22.5t42 21.5q8 4 21.5 9.5t20.5 5.5q10 0 10 -6q0 -4 -6.5 -11t-12.5 -11q-22 -10 -50 -25t-51 -26.5t-30 -11.5q-12 0 -20.5 12t-16.5 29q-2 7 -4 13.5t-2 13.5q0 23 15 23z" />
    <glyph glyph-name="Dcroat" unicode="&#x110;" horiz-adv-x="921" 
d="M427 -58q-167 -8 -240 83q-88 -68 -129 -68q-22 0 -34 24q-9 20 -9 44q0 48 37 138q44 102 81 102q19 0 29 -60q17 -90 31 -124q23 24 54.5 61.5t70.5 86.5q-12 0 -27 3q-32 6 -32 21q0 11 9 17.5t16 6.5h3.5t6.5 1h26q8 0 17.5 0.5t19.5 -0.5l33 43q162 213 215 233
q18 7 36 7q20 0 32.5 -8.5t12.5 -19.5q0 -17 -29 -20q-35 -19 -108 -92q-37 -37 -66.5 -70.5t-50.5 -62.5l-8 -11q67 0 101 3q8 -17 -78 -32l-50 -7q-44 -58 -89.5 -106t-89.5 -85l-6 -5q56 -83 176 -83q10 0 19.5 0.5t19.5 1.5q278 26 394 241q47 86 47 164q0 90 -61 157
q-49 55 -109 69q-55 12 -115 12q-154 0 -284 -71t-137 -159q-3 -31 15 -52q12 -14 17 -16h-6q-26 5 -46 26q-23 27 -22 57q5 101 127 171q124 71 293 71q38 0 76 -4t75 -12q91 -20 158 -88q77 -80 77 -181q0 -75 -44 -155q-76 -138 -227 -202q-105 -44 -228 -50zM63 -25
q43 19 104 79q-29 48 -38 81q-6 22 -9 67q-69 -99 -69 -173q0 -31 12 -54z" />
    <glyph glyph-name="Ecaron" unicode="&#x11a;" horiz-adv-x="691" 
d="M256 -80q-67 0 -124.5 17t-93 52t-35.5 88q0 41 26 82q92 146 314 217q-33 38 -33 86q0 39 21 67q41 56 124 93q47 20 95.5 31t98.5 11q62 0 94.5 -20t32.5 -56q0 -25 -13.5 -45.5t-33.5 -33t-41 -12.5q-31 0 -31 15q0 9 13 9q4 0 10.5 -1.5t9.5 -1.5q21 0 37 22t16 44
q0 32 -30.5 46t-68.5 14q-95 0 -186 -61q-96 -63 -96 -142q0 -29 20 -54q35 11 65.5 15.5t58.5 4.5q96 0 96 -37q0 -17 -14 -29.5t-35.5 -19t-43.5 -6.5q-23 0 -51 6t-54 16t-44 23q-94 -27 -166.5 -83.5t-107.5 -126.5q-19 -38 -19 -74q0 -44 25 -72t66.5 -41t91.5 -13
q83 0 165 26.5t140 78.5q79 70 79 147q0 61 -59 61q-31 0 -69 -15.5t-71.5 -41.5t-55.5 -57t-22 -63t28 -39q10 -4 10 -10q0 -8 -15 -8q-53 0 -53 59q0 39 23 74t59.5 62t79.5 42.5t83 15.5q47 0 73 -20.5t26 -66.5q0 -93 -103 -175q-65 -53 -144 -76.5t-168 -23.5zM500 337
q54 0 54 31q0 14 -54 14q-24 0 -49.5 -3t-51.5 -8q43 -34 101 -34zM588 805q5 0 11.5 -10t17.5 -25q5 -5 7 -11.5t5 -12.5q17 8 43 22.5t42 21.5q8 4 21.5 9.5t20.5 5.5q10 0 10 -6q0 -4 -6.5 -11t-12.5 -11q-22 -10 -50 -25t-51 -26.5t-30 -11.5q-12 0 -20.5 12t-16.5 29
q-2 7 -4 13.5t-2 13.5q0 23 15 23z" />
    <glyph glyph-name="uni1EBE" unicode="&#x1ebe;" horiz-adv-x="691" 
d="M256 -80q-67 0 -124.5 17t-93 52t-35.5 88q0 41 26 82q92 146 314 217q-33 38 -33 86q0 39 21 67q41 56 124 93q47 20 95.5 31t98.5 11q62 0 94.5 -20t32.5 -56q0 -25 -13.5 -45.5t-33.5 -33t-41 -12.5q-31 0 -31 15q0 9 13 9q4 0 10.5 -1.5t9.5 -1.5q21 0 37 22t16 44
q0 32 -30.5 46t-68.5 14q-95 0 -186 -61q-96 -63 -96 -142q0 -29 20 -54q35 11 65.5 15.5t58.5 4.5q96 0 96 -37q0 -17 -14 -29.5t-35.5 -19t-43.5 -6.5q-23 0 -51 6t-54 16t-44 23q-94 -27 -166.5 -83.5t-107.5 -126.5q-19 -38 -19 -74q0 -44 25 -72t66.5 -41t91.5 -13
q83 0 165 26.5t140 78.5q79 70 79 147q0 61 -59 61q-31 0 -69 -15.5t-71.5 -41.5t-55.5 -57t-22 -63t28 -39q10 -4 10 -10q0 -8 -15 -8q-53 0 -53 59q0 39 23 74t59.5 62t79.5 42.5t83 15.5q47 0 73 -20.5t26 -66.5q0 -93 -103 -175q-65 -53 -144 -76.5t-168 -23.5zM500 337
q54 0 54 31q0 14 -54 14q-24 0 -49.5 -3t-51.5 -8q43 -34 101 -34zM717 713q-13 0 -35 13q-10 5 -26 17t-18 13q-4 -2 -7.5 -5.5t-27.5 -19.5q-34 -23 -42 -23q-7 0 -4 8q2 4 8.5 11.5t30.5 23.5q26 18 36.5 24t16.5 6q13 0 37 -15.5t40 -31.5q2 -3 2 -8q0 -8 -2 -10.5
t-9 -2.5zM591.181 794.956q-7.2793 -0.120117 -5.20898 7.60742q1.03516 3.86328 5.67578 5.72656l113.887 50.2344q12.9551 5.84668 18.751 4.29297q4.8291 -1.29395 10.1328 -10.4795q5.30273 -9.18652 3.49121 -15.9482q-1.55273 -5.79492 -7.06445 -8.97754
q-5.51172 -3.18164 -10.4111 -6.00977q-6.12402 -3.53613 -21.4941 -8.73438q-15.3691 -5.19922 -40.4336 -9.87109q-29.4453 -5.56836 -45.2285 -6.51562q-15.7832 -0.946289 -22.0967 -1.3252z" />
    <glyph glyph-name="uni1EC6" unicode="&#x1ec6;" horiz-adv-x="691" 
d="M256 -80q-67 0 -124.5 17t-93 52t-35.5 88q0 41 26 82q92 146 314 217q-33 38 -33 86q0 39 21 67q41 56 124 93q47 20 95.5 31t98.5 11q62 0 94.5 -20t32.5 -56q0 -25 -13.5 -45.5t-33.5 -33t-41 -12.5q-31 0 -31 15q0 9 13 9q4 0 10.5 -1.5t9.5 -1.5q21 0 37 22t16 44
q0 32 -30.5 46t-68.5 14q-95 0 -186 -61q-96 -63 -96 -142q0 -29 20 -54q35 11 65.5 15.5t58.5 4.5q96 0 96 -37q0 -17 -14 -29.5t-35.5 -19t-43.5 -6.5q-23 0 -51 6t-54 16t-44 23q-94 -27 -166.5 -83.5t-107.5 -126.5q-19 -38 -19 -74q0 -44 25 -72t66.5 -41t91.5 -13
q83 0 165 26.5t140 78.5q79 70 79 147q0 61 -59 61q-31 0 -69 -15.5t-71.5 -41.5t-55.5 -57t-22 -63t28 -39q10 -4 10 -10q0 -8 -15 -8q-53 0 -53 59q0 39 23 74t59.5 62t79.5 42.5t83 15.5q47 0 73 -20.5t26 -66.5q0 -93 -103 -175q-65 -53 -144 -76.5t-168 -23.5zM500 337
q54 0 54 31q0 14 -54 14q-24 0 -49.5 -3t-51.5 -8q43 -34 101 -34zM175.021 -98.1191q-7.20605 0 -14.4131 8.95898q-7.20703 8.95801 -7.20703 15.7842q0 12.7979 30.8867 30.7158q30.8857 17.917 47.3584 17.917q2.05957 0 3.08887 -0.853516q-1.0293 0 -14.4131 -15.3574
l-17.5029 -34.1279q-10.2949 -23.0371 -27.7979 -23.0371zM717 713q-13 0 -35 13q-10 5 -26 17t-18 13q-4 -2 -7.5 -5.5t-27.5 -19.5q-34 -23 -42 -23q-7 0 -4 8q2 4 8.5 11.5t30.5 23.5q26 18 36.5 24t16.5 6q13 0 37 -15.5t40 -31.5q2 -3 2 -8q0 -8 -2 -10.5t-9 -2.5z" />
    <glyph glyph-name="uni1EC0" unicode="&#x1ec0;" horiz-adv-x="691" 
d="M256 -80q-67 0 -124.5 17t-93 52t-35.5 88q0 41 26 82q92 146 314 217q-33 38 -33 86q0 39 21 67q41 56 124 93q47 20 95.5 31t98.5 11q62 0 94.5 -20t32.5 -56q0 -25 -13.5 -45.5t-33.5 -33t-41 -12.5q-31 0 -31 15q0 9 13 9q4 0 10.5 -1.5t9.5 -1.5q21 0 37 22t16 44
q0 32 -30.5 46t-68.5 14q-95 0 -186 -61q-96 -63 -96 -142q0 -29 20 -54q35 11 65.5 15.5t58.5 4.5q96 0 96 -37q0 -17 -14 -29.5t-35.5 -19t-43.5 -6.5q-23 0 -51 6t-54 16t-44 23q-94 -27 -166.5 -83.5t-107.5 -126.5q-19 -38 -19 -74q0 -44 25 -72t66.5 -41t91.5 -13
q83 0 165 26.5t140 78.5q79 70 79 147q0 61 -59 61q-31 0 -69 -15.5t-71.5 -41.5t-55.5 -57t-22 -63t28 -39q10 -4 10 -10q0 -8 -15 -8q-53 0 -53 59q0 39 23 74t59.5 62t79.5 42.5t83 15.5q47 0 73 -20.5t26 -66.5q0 -93 -103 -175q-65 -53 -144 -76.5t-168 -23.5zM500 337
q54 0 54 31q0 14 -54 14q-24 0 -49.5 -3t-51.5 -8q43 -34 101 -34zM717 713q-13 0 -35 13q-10 5 -26 17t-18 13q-4 -2 -7.5 -5.5t-27.5 -19.5q-34 -23 -42 -23q-7 0 -4 8q2 4 8.5 11.5t30.5 23.5q26 18 36.5 24t16.5 6q13 0 37 -15.5t40 -31.5q2 -3 2 -8q0 -8 -2 -10.5
t-9 -2.5zM730.852 790.956q7.2793 -0.120117 5.20801 7.60742q-1.03516 3.86328 -5.67578 5.72559l-113.887 50.2354q-12.9541 5.84668 -18.75 4.29297q-4.83008 -1.29395 -10.1328 -10.4805q-5.30371 -9.18555 -3.49121 -15.9473q1.55273 -5.7959 7.06445 -8.97754
t10.4102 -6.00977q6.12402 -3.53613 21.4941 -8.73438q15.3701 -5.19922 40.4336 -9.87109q29.4463 -5.56836 45.2295 -6.51562t22.0967 -1.3252z" />
    <glyph glyph-name="uni1EC2" unicode="&#x1ec2;" horiz-adv-x="691" 
d="M256 -80q-67 0 -124.5 17t-93 52t-35.5 88q0 41 26 82q92 146 314 217q-33 38 -33 86q0 39 21 67q41 56 124 93q47 20 95.5 31t98.5 11q62 0 94.5 -20t32.5 -56q0 -25 -13.5 -45.5t-33.5 -33t-41 -12.5q-31 0 -31 15q0 9 13 9q4 0 10.5 -1.5t9.5 -1.5q21 0 37 22t16 44
q0 32 -30.5 46t-68.5 14q-95 0 -186 -61q-96 -63 -96 -142q0 -29 20 -54q35 11 65.5 15.5t58.5 4.5q96 0 96 -37q0 -17 -14 -29.5t-35.5 -19t-43.5 -6.5q-23 0 -51 6t-54 16t-44 23q-94 -27 -166.5 -83.5t-107.5 -126.5q-19 -38 -19 -74q0 -44 25 -72t66.5 -41t91.5 -13
q83 0 165 26.5t140 78.5q79 70 79 147q0 61 -59 61q-31 0 -69 -15.5t-71.5 -41.5t-55.5 -57t-22 -63t28 -39q10 -4 10 -10q0 -8 -15 -8q-53 0 -53 59q0 39 23 74t59.5 62t79.5 42.5t83 15.5q47 0 73 -20.5t26 -66.5q0 -93 -103 -175q-65 -53 -144 -76.5t-168 -23.5zM500 337
q54 0 54 31q0 14 -54 14q-24 0 -49.5 -3t-51.5 -8q43 -34 101 -34zM717 713q-13 0 -35 13q-10 5 -26 17t-18 13q-4 -2 -7.5 -5.5t-27.5 -19.5q-34 -23 -42 -23q-7 0 -4 8q2 4 8.5 11.5t30.5 23.5q26 18 36.5 24t16.5 6q13 0 37 -15.5t40 -31.5q2 -3 2 -8q0 -8 -2 -10.5
t-9 -2.5zM716 771q-4 0 -5 3t1 4q20 14 36 25.5t16 27.5q0 15 -17 15q-10 0 -24.5 -6t-25.5 -17l-0.5 -0.5t-1.5 -0.5t-2 2t0 4q8 23 28.5 35t46.5 10q13 -1 20 -10.5t7 -20.5q0 -15 -7.5 -26t-20.5 -19q-19 -12 -31 -19t-17 -7h-3z" />
    <glyph glyph-name="uni1EC4" unicode="&#x1ec4;" horiz-adv-x="691" 
d="M256 -80q-67 0 -124.5 17t-93 52t-35.5 88q0 41 26 82q92 146 314 217q-33 38 -33 86q0 39 21 67q41 56 124 93q47 20 95.5 31t98.5 11q62 0 94.5 -20t32.5 -56q0 -25 -13.5 -45.5t-33.5 -33t-41 -12.5q-31 0 -31 15q0 9 13 9q4 0 10.5 -1.5t9.5 -1.5q21 0 37 22t16 44
q0 32 -30.5 46t-68.5 14q-95 0 -186 -61q-96 -63 -96 -142q0 -29 20 -54q35 11 65.5 15.5t58.5 4.5q96 0 96 -37q0 -17 -14 -29.5t-35.5 -19t-43.5 -6.5q-23 0 -51 6t-54 16t-44 23q-94 -27 -166.5 -83.5t-107.5 -126.5q-19 -38 -19 -74q0 -44 25 -72t66.5 -41t91.5 -13
q83 0 165 26.5t140 78.5q79 70 79 147q0 61 -59 61q-31 0 -69 -15.5t-71.5 -41.5t-55.5 -57t-22 -63t28 -39q10 -4 10 -10q0 -8 -15 -8q-53 0 -53 59q0 39 23 74t59.5 62t79.5 42.5t83 15.5q47 0 73 -20.5t26 -66.5q0 -93 -103 -175q-65 -53 -144 -76.5t-168 -23.5zM500 337
q54 0 54 31q0 14 -54 14q-24 0 -49.5 -3t-51.5 -8q43 -34 101 -34zM717 713q-13 0 -35 13q-10 5 -26 17t-18 13q-4 -2 -7.5 -5.5t-27.5 -19.5q-34 -23 -42 -23q-7 0 -4 8q2 4 8.5 11.5t30.5 23.5q26 18 36.5 24t16.5 6q13 0 37 -15.5t40 -31.5q2 -3 2 -8q0 -8 -2 -10.5
t-9 -2.5zM680.681 820.582q-17.8877 0 -48.0146 14.2998q-31.0684 15.3994 -45.1904 15.3994q-16.9463 0 -32.0098 -14.2998t-19.7705 -14.2998q-0.941406 1.09961 -0.941406 2.2002q0 17.5996 40.4824 45.0986q15.0635 11 33.8926 11q14.1221 0 45.1904 -12.0996
q28.2441 -11 44.249 -11q22.5957 0 39.542 23.0996q5.64844 0 5.64844 -4.40039q0 -16.499 -37.6582 -46.1982q-12.2393 -8.7998 -25.4199 -8.7998z" />
    <glyph glyph-name="Edotaccent" unicode="&#x116;" horiz-adv-x="691" 
d="M256 -80q-67 0 -124.5 17t-93 52t-35.5 88q0 41 26 82q92 146 314 217q-33 38 -33 86q0 39 21 67q41 56 124 93q47 20 95.5 31t98.5 11q62 0 94.5 -20t32.5 -56q0 -25 -13.5 -45.5t-33.5 -33t-41 -12.5q-31 0 -31 15q0 9 13 9q4 0 10.5 -1.5t9.5 -1.5q21 0 37 22t16 44
q0 32 -30.5 46t-68.5 14q-95 0 -186 -61q-96 -63 -96 -142q0 -29 20 -54q35 11 65.5 15.5t58.5 4.5q96 0 96 -37q0 -17 -14 -29.5t-35.5 -19t-43.5 -6.5q-23 0 -51 6t-54 16t-44 23q-94 -27 -166.5 -83.5t-107.5 -126.5q-19 -38 -19 -74q0 -44 25 -72t66.5 -41t91.5 -13
q83 0 165 26.5t140 78.5q79 70 79 147q0 61 -59 61q-31 0 -69 -15.5t-71.5 -41.5t-55.5 -57t-22 -63t28 -39q10 -4 10 -10q0 -8 -15 -8q-53 0 -53 59q0 39 23 74t59.5 62t79.5 42.5t83 15.5q47 0 73 -20.5t26 -66.5q0 -93 -103 -175q-65 -53 -144 -76.5t-168 -23.5zM500 337
q54 0 54 31q0 14 -54 14q-24 0 -49.5 -3t-51.5 -8q43 -34 101 -34zM631 712q-7 0 -14 10.5t-7 18.5q0 15 30 36t46 21q2 0 3 -1q-1 0 -14 -18l-17 -40q-10 -27 -27 -27z" />
    <glyph glyph-name="uni1EB8" unicode="&#x1eb8;" horiz-adv-x="691" 
d="M256 -80q-67 0 -124.5 17t-93 52t-35.5 88q0 41 26 82q92 146 314 217q-33 38 -33 86q0 39 21 67q41 56 124 93q47 20 95.5 31t98.5 11q62 0 94.5 -20t32.5 -56q0 -25 -13.5 -45.5t-33.5 -33t-41 -12.5q-31 0 -31 15q0 9 13 9q4 0 10.5 -1.5t9.5 -1.5q21 0 37 22t16 44
q0 32 -30.5 46t-68.5 14q-95 0 -186 -61q-96 -63 -96 -142q0 -29 20 -54q35 11 65.5 15.5t58.5 4.5q96 0 96 -37q0 -17 -14 -29.5t-35.5 -19t-43.5 -6.5q-23 0 -51 6t-54 16t-44 23q-94 -27 -166.5 -83.5t-107.5 -126.5q-19 -38 -19 -74q0 -44 25 -72t66.5 -41t91.5 -13
q83 0 165 26.5t140 78.5q79 70 79 147q0 61 -59 61q-31 0 -69 -15.5t-71.5 -41.5t-55.5 -57t-22 -63t28 -39q10 -4 10 -10q0 -8 -15 -8q-53 0 -53 59q0 39 23 74t59.5 62t79.5 42.5t83 15.5q47 0 73 -20.5t26 -66.5q0 -93 -103 -175q-65 -53 -144 -76.5t-168 -23.5zM500 337
q54 0 54 31q0 14 -54 14q-24 0 -49.5 -3t-51.5 -8q43 -34 101 -34zM175.021 -98.1191q-7.20605 0 -14.4131 8.95898q-7.20703 8.95801 -7.20703 15.7842q0 12.7979 30.8867 30.7158q30.8857 17.917 47.3584 17.917q2.05957 0 3.08887 -0.853516q-1.0293 0 -14.4131 -15.3574
l-17.5029 -34.1279q-10.2949 -23.0371 -27.7979 -23.0371z" />
    <glyph glyph-name="uni1EBA" unicode="&#x1eba;" horiz-adv-x="691" 
d="M256 -80q-67 0 -124.5 17t-93 52t-35.5 88q0 41 26 82q92 146 314 217q-33 38 -33 86q0 39 21 67q41 56 124 93q47 20 95.5 31t98.5 11q62 0 94.5 -20t32.5 -56q0 -25 -13.5 -45.5t-33.5 -33t-41 -12.5q-31 0 -31 15q0 9 13 9q4 0 10.5 -1.5t9.5 -1.5q21 0 37 22t16 44
q0 32 -30.5 46t-68.5 14q-95 0 -186 -61q-96 -63 -96 -142q0 -29 20 -54q35 11 65.5 15.5t58.5 4.5q96 0 96 -37q0 -17 -14 -29.5t-35.5 -19t-43.5 -6.5q-23 0 -51 6t-54 16t-44 23q-94 -27 -166.5 -83.5t-107.5 -126.5q-19 -38 -19 -74q0 -44 25 -72t66.5 -41t91.5 -13
q83 0 165 26.5t140 78.5q79 70 79 147q0 61 -59 61q-31 0 -69 -15.5t-71.5 -41.5t-55.5 -57t-22 -63t28 -39q10 -4 10 -10q0 -8 -15 -8q-53 0 -53 59q0 39 23 74t59.5 62t79.5 42.5t83 15.5q47 0 73 -20.5t26 -66.5q0 -93 -103 -175q-65 -53 -144 -76.5t-168 -23.5zM500 337
q54 0 54 31q0 14 -54 14q-24 0 -49.5 -3t-51.5 -8q43 -34 101 -34zM626 712q-4 0 -5 3t1 4q20 14 36 25.5t16 27.5q0 15 -17 15q-10 0 -24.5 -6t-25.5 -17l-0.5 -0.5t-1.5 -0.5t-2 2t0 4q8 23 28.5 35t46.5 10q13 -1 20 -10.5t7 -20.5q0 -15 -7.5 -26t-20.5 -19
q-19 -12 -31 -19t-17 -7h-3z" />
    <glyph glyph-name="Emacron" unicode="&#x112;" horiz-adv-x="691" 
d="M256 -80q-67 0 -124.5 17t-93 52t-35.5 88q0 41 26 82q92 146 314 217q-33 38 -33 86q0 39 21 67q41 56 124 93q47 20 95.5 31t98.5 11q62 0 94.5 -20t32.5 -56q0 -25 -13.5 -45.5t-33.5 -33t-41 -12.5q-31 0 -31 15q0 9 13 9q4 0 10.5 -1.5t9.5 -1.5q21 0 37 22t16 44
q0 32 -30.5 46t-68.5 14q-95 0 -186 -61q-96 -63 -96 -142q0 -29 20 -54q35 11 65.5 15.5t58.5 4.5q96 0 96 -37q0 -17 -14 -29.5t-35.5 -19t-43.5 -6.5q-23 0 -51 6t-54 16t-44 23q-94 -27 -166.5 -83.5t-107.5 -126.5q-19 -38 -19 -74q0 -44 25 -72t66.5 -41t91.5 -13
q83 0 165 26.5t140 78.5q79 70 79 147q0 61 -59 61q-31 0 -69 -15.5t-71.5 -41.5t-55.5 -57t-22 -63t28 -39q10 -4 10 -10q0 -8 -15 -8q-53 0 -53 59q0 39 23 74t59.5 62t79.5 42.5t83 15.5q47 0 73 -20.5t26 -66.5q0 -93 -103 -175q-65 -53 -144 -76.5t-168 -23.5zM500 337
q54 0 54 31q0 14 -54 14q-24 0 -49.5 -3t-51.5 -8q43 -34 101 -34zM560 719q-5 0 -12.5 11.5t-8.5 17.5l2 1q10 5 34.5 6t62.5 1q82 0 106 -12q3 -1 3 -3t-1.5 -6t-4.5 -4q-31 0 -91 -6t-90 -6z" />
    <glyph glyph-name="Eng" unicode="&#x14a;" horiz-adv-x="925" 
d="M353 -287q-7 23 -6 42t0 26q2 4 5 4q8 0 17.5 -15.5t18.5 -42.5q14 -44 32 -61t37.5 -13.5t39.5 20.5t38.5 41t34.5 49q10 15 29.5 50.5t45.5 83.5t53.5 99.5t52.5 99.5t43 84q18 35 47.5 87.5t66.5 112t77 115.5q-133 -12 -344 -210q-83 -79 -139 -136.5t-89 -111.5
q-10 -17 -19.5 -31.5t-21.5 -28.5q-6 -6 -16 -9t-20 -3q-18 0 -23.5 6.5t-2.5 11.5q5 11 27 44t53 79q52 75 85 128t49 81q68 122 68 193q0 28 -11 52q-16 36 -82 36q-119 0 -253 -109q-50 -41 -89.5 -84.5t-67.5 -89.5q-50 -85 -50 -152q0 -96 89 -98q124 -3 187 83
q24 33 24 62q0 17 -11 23q-1 1 -1 3q0 4 6 4q26 0 26 -34q0 -21 -17 -53q-23 -40 -69 -68q-58 -36 -128 -36q-65 0 -104 39t-39 105q0 156 214 328q54 43 140 72q87 29 158 29q70 0 102 -29q26 -24 26 -71q0 -71 -58 -188q-13 -26 -33 -60t-47 -75q31 39 101 99
q126 106 233 174.5t195 100.5q9 4 20 4q38 0 48 -43q5 -17 -48 -71q-42 -42 -80.5 -95.5t-73 -110.5t-65.5 -110q-1 -3 -15 -28t-35 -64.5t-45.5 -86t-49 -92t-44.5 -83t-31.5 -59t-10.5 -19.5q-22 -41 -51.5 -60.5t-61 -22t-60.5 8t-49.5 30.5t-27.5 44z" />
    </font>
</defs>
</svg>
